<svg width="101" height="81" viewBox="0 0 101 81" fill="none" xmlns="http://www.w3.org/2000/svg">
<path d="M19.9065 49.0253C15.0859 49.0253 10.7249 52.0627 9.05449 56.5843C8.65585 57.6642 9.20788 58.8634 10.2879 59.2625C10.5261 59.3504 10.7702 59.392 11.0104 59.392C11.8581 59.392 12.6551 58.8709 12.966 58.0292C14.0342 55.1379 16.8233 53.1949 19.9065 53.1949C21.0578 53.1949 21.9913 52.2611 21.9913 51.1101C21.9913 49.9583 21.0582 49.0253 19.9065 49.0253Z" fill="#006BD6"/>
<path d="M12.7508 62.4801C12.4479 61.3694 11.3009 60.715 10.1913 61.0175C9.09115 61.3172 8.43809 62.4444 8.71968 63.5449C8.95221 64.495 9.80362 65.1342 10.743 65.1342C10.9011 65.1342 11.0617 65.1162 11.2223 65.0783C12.3428 64.8143 13.0379 63.6923 12.7741 62.5718C12.7666 62.5405 12.7594 62.5102 12.7508 62.4801Z" fill="#006BD6"/>
<path d="M80.1444 49.0253C75.3238 49.0253 70.9628 52.0627 69.2924 56.5843C68.8938 57.6642 69.4458 58.8634 70.5259 59.2625C70.7641 59.3504 71.0082 59.392 71.2483 59.392C72.096 59.392 72.8931 58.8709 73.204 58.0292C74.2721 55.1379 77.0612 53.1949 80.1444 53.1949C81.2958 53.1949 82.2293 52.2611 82.2293 51.1101C82.2293 49.9583 81.2958 49.0253 80.1444 49.0253Z" fill="#006BD6"/>
<path d="M72.9888 62.4801C72.6859 61.3694 71.5388 60.715 70.4293 61.0175C69.3291 61.3172 68.6761 62.4444 68.9576 63.5449C69.1902 64.495 70.0416 65.1342 70.9809 65.1342C71.139 65.1342 71.2996 65.1162 71.4603 65.0783C72.5808 64.8143 73.2758 63.6923 73.012 62.5718C73.0046 62.5405 72.9972 62.5102 72.9888 62.4801Z" fill="#006BD6"/>
<path fill-rule="evenodd" clip-rule="evenodd" d="M98.492 52.8722L89.964 24.4861C88.7677 20.5035 87.3029 15.6299 84.0104 12.4054L84.0108 12.3867C84.0108 5.83258 78.6788 0.5 72.1241 0.5C65.5695 0.5 60.2375 5.83238 60.2375 12.3867C60.2375 13.8478 60.5118 15.3003 61.0348 16.6601C60.5644 17.1578 60.1026 17.6555 59.6483 18.1464C59.2692 18.556 58.8991 18.9556 58.5333 19.3447C56.1174 17.4676 53.1153 16.4204 50.0251 16.4204C46.9347 16.4204 43.9328 17.4672 41.5165 19.3447C41.1513 18.9554 40.7812 18.556 40.4021 18.1468C39.9475 17.6559 39.4856 17.1574 39.0152 16.6597C39.5381 15.2995 39.8125 13.847 39.8125 12.3867C39.8125 5.83258 34.4805 0.5 27.9258 0.5C21.3715 0.5 16.0392 5.83238 16.0392 12.3867L16.0396 12.4058C12.7475 15.6299 11.2825 20.5035 10.086 24.4861L1.55958 52.871C0.555359 55.2468 0 57.8565 0 60.5936C0 71.5701 8.9299 80.5 19.9063 80.5C30.5246 80.5 39.2269 72.1442 39.784 61.6629C42.8093 63.6051 46.3566 64.6691 50.0255 64.6691C53.6943 64.6691 57.2416 63.6051 60.2666 61.6629C60.8241 72.1442 69.5264 80.5 80.1442 80.5C91.1207 80.5 100.051 71.5701 100.051 60.5936C100.051 57.8569 99.4952 55.2476 98.492 52.8722ZM79.3024 9.55907C78.1717 6.69942 75.3813 4.66968 72.1241 4.66968C67.8693 4.66968 64.4074 8.13159 64.407 12.3865C64.407 12.6997 64.4269 13.0116 64.4648 13.3213C67.3588 10.8244 70.6871 8.90581 74.8269 8.90581C76.5102 8.90581 77.9918 9.14011 79.3024 9.55907ZM35.6434 12.3867C35.6434 8.1314 32.1815 4.66968 27.9264 4.66968C24.6693 4.66968 21.8788 6.69942 20.7482 9.55927C22.0588 9.1405 23.5402 8.90601 25.2235 8.90601C29.3633 8.90601 32.6917 10.8246 35.5856 13.3215C35.6235 13.0116 35.6434 12.6993 35.6434 12.3867ZM4.16949 60.5936C4.16949 69.2713 11.2289 76.3305 19.9063 76.3305C28.584 76.3305 35.6434 69.2713 35.6432 60.5936C35.6432 51.9166 28.584 44.8578 19.9063 44.8578C11.2287 44.8578 4.16949 51.9166 4.16949 60.5936ZM39.2308 55.811C42.021 58.7943 45.9254 60.4997 50.0257 60.4997C54.126 60.4997 58.0301 58.7941 60.8202 55.8104C62.968 47.1374 70.8165 40.6879 80.1442 40.6879C84.3891 40.6879 88.3273 42.0245 91.5621 44.2973L85.9706 25.6858C83.7529 18.3018 81.6549 13.0757 74.8273 13.0757C70.0274 13.0757 66.3066 17.0933 62.7079 20.9791C62.0988 21.6372 61.4744 22.3102 60.8466 22.9621L61.4318 26.8235C61.604 27.9619 60.821 29.0248 59.6825 29.1973C59.5766 29.2133 59.4715 29.221 59.3677 29.221C58.3543 29.221 57.4654 28.4805 57.309 27.448L56.671 23.2353C54.8826 21.5483 52.4949 20.5898 50.0257 20.5898C47.5561 20.5898 45.1683 21.5483 43.3799 23.2353L42.0017 32.3376C41.8454 33.3703 40.9564 34.1105 39.943 34.1105C39.8393 34.1105 39.7341 34.1027 39.6282 34.0869C38.4898 33.9143 37.7067 32.8515 37.8789 31.7134L39.2042 22.9625C38.5767 22.3106 37.9524 21.6374 37.3433 20.9795L37.342 20.9781C33.7435 17.0927 30.023 13.0757 25.2233 13.0757C18.3956 13.0757 16.2985 18.3024 14.08 25.6858L8.48886 44.2975C11.7235 42.0245 15.6618 40.6881 19.9067 40.6881C29.2349 40.6881 37.0832 47.1374 39.2308 55.811ZM64.4074 60.5936C64.4074 69.2713 71.4668 76.3305 80.1442 76.3305C88.8216 76.3305 95.8811 69.2713 95.8811 60.5936C95.8811 51.9166 88.8216 44.8578 80.1442 44.8578C71.4666 44.8578 64.4074 51.9166 64.4074 60.5936Z" fill="#00429A"/>
<path fill-rule="evenodd" clip-rule="evenodd" d="M50.0254 39.4109C45.7312 39.4109 42.2377 42.9047 42.2377 47.1988C42.2377 51.4928 45.7312 54.9862 50.0254 54.9862C54.3195 54.9862 57.8129 51.4928 57.8129 47.1988C57.8129 42.9045 54.3195 39.4109 50.0254 39.4109ZM46.4071 47.1988C46.4071 49.1934 48.0302 50.8165 50.0254 50.8165C52.0203 50.8165 53.6434 49.1934 53.6432 47.1988C53.6432 45.2035 52.0201 43.5804 50.0254 43.5804C48.0302 43.5804 46.4071 45.2035 46.4071 47.1988Z" fill="#006BD6"/>
</svg>
