<svg width="52" height="55" viewBox="0 0 52 55" fill="none" xmlns="http://www.w3.org/2000/svg">
<path d="M42.9603 55H17.1845C16.7287 55 16.2916 54.819 15.9694 54.4967C15.6471 54.1744 15.4661 53.7374 15.4661 53.2816V48.1265H12.0293C10.6621 48.1265 9.35084 47.5833 8.38406 46.6165C7.41727 45.6498 6.87414 44.3385 6.87414 42.9713V37.1597L0.950862 34.2075C0.732688 34.0986 0.540193 33.9445 0.38617 33.7554C0.232148 33.5664 0.120125 33.3467 0.0575471 33.111C-0.00503101 32.8754 -0.0167311 32.6291 0.023224 32.3885C0.0631792 32.148 0.153874 31.9187 0.289283 31.7159L6.87414 21.8197C6.98127 17.1372 8.55802 12.607 11.3813 8.86985C14.2046 5.13274 18.1315 2.37797 22.6064 0.995266C27.0813 -0.38744 31.8778 -0.328075 36.3171 1.16496C40.7565 2.658 44.614 5.50912 47.3439 9.31497C47.4761 9.49786 47.571 9.70502 47.6232 9.9246C47.6754 10.1442 47.6838 10.3719 47.648 10.5947C47.6122 10.8176 47.5328 11.0312 47.4144 11.2233C47.2961 11.4155 47.141 11.5825 46.9581 11.7147C46.7752 11.8469 46.568 11.9418 46.3485 11.994C46.1289 12.0462 45.9012 12.0546 45.6783 12.0188C45.4555 11.983 45.2419 11.9036 45.0497 11.7852C44.8576 11.6669 44.6906 11.5118 44.5584 11.3289C42.2238 8.08313 38.9202 5.6612 35.1224 4.41129C31.3246 3.16138 27.2283 3.14788 23.4224 4.37273C19.6165 5.59757 16.297 7.99768 13.9411 11.228C11.5851 14.4583 10.3142 18.3525 10.3109 22.3506C10.3104 22.69 10.21 23.0217 10.0222 23.3044L4.22783 31.9942L9.36065 34.5598C9.6463 34.7025 9.88653 34.922 10.0544 35.1937C10.2222 35.4654 10.3111 35.7784 10.3109 36.0977V42.9713C10.3109 43.427 10.492 43.8641 10.8142 44.1864C11.1365 44.5086 11.5736 44.6897 12.0293 44.6897H17.1845C17.6402 44.6897 18.0773 44.8707 18.3995 45.193C18.7218 45.5152 18.9029 45.9523 18.9029 46.4081V51.5632H41.2419V48.068C41.1709 42.4503 42.6227 36.9183 45.4433 32.0595C47.5376 28.5566 48.4418 24.47 48.0209 20.4106C47.9302 19.4711 47.7653 18.5403 47.5277 17.6268C47.4249 17.1895 47.4975 16.7293 47.7298 16.3448C47.9622 15.9603 48.3358 15.6821 48.7708 15.5697C49.2058 15.4574 49.6675 15.5198 50.057 15.7437C50.4464 15.9677 50.7327 16.3352 50.8545 16.7676C51.1356 17.8546 51.3321 18.9616 51.4422 20.0789C51.938 24.8705 50.8678 29.6938 48.3921 33.826C45.8911 38.151 44.6078 43.0725 44.6787 48.068V53.2816C44.6787 53.7374 44.4976 54.1744 44.1754 54.4967C43.8531 54.819 43.416 55 42.9603 55Z" fill="#00429A"/>
<path d="M20.6212 48.1265H17.1845C16.7287 48.1265 16.2916 47.9454 15.9694 47.6232C15.6471 47.3009 15.4661 46.8638 15.4661 46.4081C15.4661 45.9523 15.6471 45.5152 15.9694 45.193C16.2916 44.8707 16.7287 44.6897 17.1845 44.6897H20.6212C21.077 44.6897 21.5141 44.8707 21.8363 45.193C22.1586 45.5152 22.3396 45.9523 22.3396 46.4081C22.3396 46.8638 22.1586 47.3009 21.8363 47.6232C21.5141 47.9454 21.077 48.1265 20.6212 48.1265Z" fill="#00429A"/>
<path d="M31.0553 32.661H27.3711C26.5265 32.6613 25.7136 32.3396 25.098 31.7613C24.4824 31.1831 24.1105 30.3919 24.058 29.549C23.3033 29.9254 22.4335 29.9997 21.6259 29.7567C20.8183 29.5137 20.1338 28.9717 19.7122 28.2413L17.8718 25.052C17.4522 24.3205 17.3264 23.4568 17.5201 22.636C17.7138 21.8153 18.2125 21.0989 18.9149 20.6323C18.2125 20.1656 17.7138 19.4493 17.5201 18.6285C17.3264 17.8077 17.4522 16.944 17.8718 16.2126L19.7139 13.0232C20.1355 12.2933 20.8197 11.7516 21.6269 11.5086C22.434 11.2656 23.3035 11.3396 24.058 11.7156C24.1105 10.8726 24.4824 10.0814 25.098 9.5032C25.7136 8.92497 26.5265 8.60323 27.3711 8.60355H31.0553C31.9001 8.60241 32.7135 8.92387 33.3292 9.50226C33.945 10.0807 34.3167 10.8723 34.3683 11.7156C35.1234 11.3388 35.9938 11.2644 36.8019 11.5078C37.6099 11.7512 38.2945 12.2938 38.7159 13.025L40.5545 16.2126C40.9742 16.944 41.0999 17.8077 40.9062 18.6285C40.7125 19.4493 40.2139 20.1656 39.5115 20.6323C40.2132 21.0991 40.7111 21.8153 40.9045 22.6356C41.0978 23.456 40.9721 24.3191 40.5528 25.0502L38.709 28.2413C38.287 28.9718 37.6023 29.5138 36.7944 29.7568C35.9865 29.9998 35.1164 29.9255 34.3615 29.549C34.3099 30.391 33.9391 31.1817 33.3248 31.7599C32.7106 32.3381 31.8989 32.6604 31.0553 32.661ZM27.4948 29.2242H30.9316C30.9525 28.6639 31.1152 28.118 31.4045 27.6377C31.6938 27.1574 32.1002 26.7583 32.5857 26.4778C33.0712 26.1973 33.6199 26.0445 34.1805 26.0338C34.7411 26.023 35.2953 26.1546 35.7912 26.4164L37.5095 23.4384C37.0345 23.1402 36.6429 22.7264 36.3715 22.2356C36.1001 21.7448 35.9577 21.1931 35.9577 20.6323C35.9577 20.0714 36.1001 19.5197 36.3715 19.0289C36.6429 18.5382 37.0345 18.1243 37.5095 17.8261L35.7912 14.8482C35.2953 15.1099 34.7411 15.2415 34.1805 15.2308C33.6199 15.22 33.0712 15.0672 32.5857 14.7867C32.1002 14.5062 31.6938 14.1071 31.4045 13.6268C31.1152 13.1465 30.9525 12.6006 30.9316 12.0403H27.4948C27.4736 12.6005 27.3107 13.1461 27.0213 13.6262C26.7318 14.1063 26.3254 14.5052 25.84 14.7855C25.3545 15.0658 24.8059 15.2184 24.2454 15.2291C23.685 15.2398 23.1309 15.1081 22.6352 14.8465L20.9168 17.8261C21.3918 18.1243 21.7834 18.5382 22.0548 19.0289C22.3262 19.5197 22.4686 20.0714 22.4686 20.6323C22.4686 21.1931 22.3262 21.7448 22.0548 22.2356C21.7834 22.7264 21.3918 23.1402 20.9168 23.4384L22.6352 26.4181C23.1309 26.1564 23.685 26.0248 24.2454 26.0354C24.8059 26.0461 25.3545 26.1987 25.84 26.479C26.3254 26.7594 26.7318 27.1582 27.0213 27.6383C27.3107 28.1184 27.4736 28.664 27.4948 29.2242Z" fill="#006BD6"/>
<path d="M29.2132 24.069C28.5334 24.069 27.869 23.8675 27.3038 23.4898C26.7386 23.1122 26.2981 22.5754 26.038 21.9475C25.7779 21.3195 25.7098 20.6284 25.8424 19.9618C25.975 19.2951 26.3024 18.6827 26.783 18.2021C27.2636 17.7215 27.876 17.3941 28.5427 17.2615C29.2094 17.1289 29.9004 17.197 30.5284 17.4571C31.1564 17.7172 31.6931 18.1577 32.0707 18.7229C32.4484 19.2881 32.65 19.9525 32.65 20.6323C32.65 21.5438 32.2879 22.4179 31.6433 23.0624C30.9988 23.7069 30.1247 24.069 29.2132 24.069Z" fill="#006BD6"/>
</svg>
