<svg width="54" height="59" viewBox="0 0 54 59" fill="none" xmlns="http://www.w3.org/2000/svg">
<path d="M2 25.1574C2 16.3639 2 11.9672 3.03818 10.4881C4.07633 9.00896 8.21038 7.59387 16.4785 4.76365L18.0537 4.22445C22.3637 2.74913 24.5187 2.01147 26.75 2.01147C28.9813 2.01147 31.1363 2.74913 35.4463 4.22445L37.0215 4.76365C45.2897 7.59387 49.4237 9.00896 50.4619 10.4881C51.5 11.9672 51.5 16.3639 51.5 25.1574C51.5 26.4854 51.5 27.9258 51.5 29.4878C51.5 44.9923 39.8428 52.5166 32.5289 55.7115C30.545 56.5781 29.5531 57.0115 26.75 57.0115C23.9469 57.0115 22.955 56.5781 20.971 55.7115C13.6571 52.5166 2 44.9923 2 29.4878C2 27.9258 2 26.4854 2 25.1574Z" stroke="#00429A" stroke-width="3.5"/>
<path d="M26.75 26.7615C29.7876 26.7615 32.25 24.299 32.25 21.2615C32.25 18.2239 29.7876 15.7615 26.75 15.7615C23.7124 15.7615 21.25 18.2239 21.25 21.2615C21.25 24.299 23.7124 26.7615 26.75 26.7615Z" stroke="#006BD6" stroke-width="3.5"/>
<path d="M37.75 37.7615C37.75 40.7991 37.75 43.2615 26.75 43.2615C15.75 43.2615 15.75 40.7991 15.75 37.7615C15.75 34.7238 20.6749 32.2615 26.75 32.2615C32.825 32.2615 37.75 34.7238 37.75 37.7615Z" stroke="#006BD6" stroke-width="3.5"/>
</svg>
