<svg width="439" height="428" viewBox="0 0 439 428" fill="none" xmlns="http://www.w3.org/2000/svg">
<g clip-path="url(#clip0_23_597)">
<path d="M169.498 389.806L158.066 400.329L167.151 385.087C159.993 372.109 148.287 360.893 148.287 360.893C148.287 360.893 123.999 384.158 123.999 402.446C123.999 420.734 134.873 427.119 148.287 427.119C161.7 427.119 172.574 420.734 172.574 402.446C172.574 398.375 171.369 394.058 169.498 389.806Z" fill="#AAAAAA"/>
<path d="M155.127 400.899V401.8C155.073 412.278 153.306 420.453 149.838 426.21C149.788 426.295 149.735 426.375 149.686 426.46L149.297 426.224L148.927 425.991C152.774 419.775 154.136 410.988 154.185 401.849C154.189 401.555 154.194 401.256 154.189 400.957C154.176 397.088 153.939 393.174 153.56 389.372C153.533 389.077 153.502 388.778 153.471 388.479C152.944 383.463 152.185 378.671 151.409 374.507C151.355 374.213 151.297 373.918 151.239 373.628C149.896 366.586 148.525 361.485 148.213 360.356C148.177 360.218 148.155 360.142 148.15 360.124L148.574 360.004L148.579 359.999L149.007 359.879C149.012 359.897 149.088 360.151 149.213 360.624C149.69 362.391 150.931 367.189 152.15 373.516C152.203 373.802 152.261 374.097 152.315 374.391C152.949 377.769 153.569 381.545 154.06 385.507C154.185 386.502 154.297 387.484 154.395 388.453C154.43 388.752 154.462 389.051 154.488 389.345C154.899 393.455 155.112 397.306 155.127 400.899Z" fill="white"/>
<path d="M152.15 373.517C151.851 373.557 151.547 373.597 151.239 373.628C150.403 373.714 149.562 373.757 148.722 373.758C145.139 373.762 141.6 372.963 138.367 371.419C138.179 371.656 137.992 371.892 137.8 372.133C141.201 373.793 144.937 374.654 148.722 374.65C149.619 374.65 150.516 374.602 151.409 374.507C151.712 374.476 152.016 374.436 152.315 374.391C154.783 374.037 157.184 373.31 159.434 372.236C159.242 371.99 159.054 371.749 158.871 371.513C156.742 372.508 154.477 373.183 152.15 373.517Z" fill="white"/>
<path d="M154.394 388.453C154.086 388.47 153.778 388.479 153.47 388.479C153.377 388.484 153.278 388.484 153.185 388.484C149.302 388.484 145.477 387.545 142.036 385.748C138.594 383.951 135.639 381.348 133.421 378.162C133.242 378.425 133.064 378.689 132.89 378.956C135.201 382.18 138.248 384.807 141.777 386.619C145.307 388.431 149.217 389.376 153.185 389.376C153.31 389.376 153.435 389.376 153.56 389.372C153.872 389.367 154.18 389.358 154.488 389.345C159.254 389.101 163.848 387.49 167.722 384.704C167.579 384.441 167.436 384.177 167.289 383.914C163.524 386.649 159.043 388.227 154.394 388.453Z" fill="white"/>
<path d="M155.127 400.899C154.814 400.925 154.502 400.943 154.189 400.957C153.855 400.97 153.52 400.979 153.185 400.979C147.968 400.973 142.893 399.278 138.72 396.147C134.548 393.016 131.501 388.617 130.038 383.611C129.837 383.972 129.636 384.329 129.444 384.691C131.093 389.686 134.275 394.034 138.537 397.119C142.798 400.203 147.924 401.866 153.185 401.871C153.52 401.871 153.855 401.867 154.185 401.849C154.502 401.84 154.814 401.822 155.127 401.8C161.437 401.306 167.325 398.434 171.597 393.763C171.503 393.433 171.396 393.107 171.289 392.777C167.163 397.482 161.365 400.396 155.127 400.899Z" fill="white"/>
<path d="M438.364 23.7557H0.635071C0.466955 23.7552 0.305936 23.688 0.187265 23.5689C0.068594 23.4499 0.00195312 23.2886 0.00195312 23.1205C0.00195312 22.9525 0.068594 22.7912 0.187265 22.6722C0.305936 22.5531 0.466955 22.4859 0.635071 22.4854H438.364C438.533 22.4859 438.694 22.5531 438.812 22.6722C438.931 22.7912 438.998 22.9525 438.998 23.1205C438.998 23.2886 438.931 23.4499 438.812 23.5689C438.694 23.688 438.533 23.7552 438.364 23.7557Z" fill="#CACACA"/>
<path d="M14.9347 14.8631C18.7943 14.8631 21.9231 11.7349 21.9231 7.87601C21.9231 4.01714 18.7943 0.888916 14.9347 0.888916C11.0751 0.888916 7.94629 4.01714 7.94629 7.87601C7.94629 11.7349 11.0751 14.8631 14.9347 14.8631Z" fill="#00429A"/>
<path d="M39.0763 14.8631C42.9359 14.8631 46.0647 11.7349 46.0647 7.87601C46.0647 4.01714 42.9359 0.888916 39.0763 0.888916C35.2167 0.888916 32.0879 4.01714 32.0879 7.87601C32.0879 11.7349 35.2167 14.8631 39.0763 14.8631Z" fill="#00429A"/>
<path d="M63.2189 14.8631C67.0785 14.8631 70.2073 11.7349 70.2073 7.87601C70.2073 4.01714 67.0785 0.888916 63.2189 0.888916C59.3593 0.888916 56.2305 4.01714 56.2305 7.87601C56.2305 11.7349 59.3593 14.8631 63.2189 14.8631Z" fill="#00429A"/>
<path d="M423.9 5.16271H406.747C406.41 5.16155 406.088 5.0272 405.851 4.78908C405.614 4.55096 405.48 4.2285 405.48 3.89233C405.48 3.55617 405.614 3.2337 405.851 2.99558C406.088 2.75747 406.41 2.62312 406.747 2.62196H423.9C424.067 2.62138 424.233 2.65381 424.388 2.71739C424.542 2.78098 424.683 2.87446 424.801 2.99249C424.92 3.11051 425.014 3.25074 425.078 3.40516C425.142 3.55958 425.175 3.72513 425.175 3.89233C425.175 4.05953 425.142 4.22509 425.078 4.3795C425.014 4.53392 424.92 4.67416 424.801 4.79218C424.683 4.9102 424.542 5.00369 424.388 5.06727C424.233 5.13086 424.067 5.16329 423.9 5.16271Z" fill="#00429A"/>
<path d="M423.9 9.92663H406.747C406.41 9.92546 406.088 9.79111 405.851 9.553C405.614 9.31488 405.48 8.99242 405.48 8.65625C405.48 8.32008 405.614 7.99762 405.851 7.7595C406.088 7.52138 406.41 7.38703 406.747 7.38587H423.9C424.067 7.38529 424.233 7.41772 424.388 7.48131C424.542 7.54489 424.683 7.63838 424.801 7.7564C424.92 7.87442 425.014 8.01466 425.078 8.16908C425.142 8.32349 425.175 8.48905 425.175 8.65625C425.175 8.82345 425.142 8.989 425.078 9.14342C425.014 9.29784 424.92 9.43807 424.801 9.5561C424.683 9.67412 424.542 9.76761 424.388 9.83119C424.233 9.89477 424.067 9.9272 423.9 9.92663Z" fill="#00429A"/>
<path d="M423.9 14.6906H406.747C406.41 14.6894 406.088 14.555 405.851 14.3169C405.614 14.0788 405.48 13.7563 405.48 13.4202C405.48 13.084 405.614 12.7615 405.851 12.5234C406.088 12.2853 406.41 12.1509 406.747 12.1498H423.9C424.067 12.1492 424.233 12.1817 424.388 12.2452C424.542 12.3088 424.683 12.4023 424.801 12.5203C424.92 12.6383 425.014 12.7786 425.078 12.933C425.142 13.0874 425.175 13.253 425.175 13.4202C425.175 13.5874 425.142 13.7529 425.078 13.9073C425.014 14.0618 424.92 14.202 424.801 14.32C424.683 14.438 424.542 14.5315 424.388 14.5951C424.233 14.6587 424.067 14.6911 423.9 14.6906Z" fill="#00429A"/>
<path d="M414.328 52.4814H13.1865V264.971H414.328V52.4814Z" fill="#D9D9D9"/>
<path d="M414.328 92.2561V90.1722H336.241V52.4814H334.157V90.1722H256.07V52.4814H253.986V90.1722H175.9V52.4814H173.816V90.1722H95.7291V52.4814H93.6449V90.1722H13.1865V92.2561H93.6449V133.895H13.1865V135.979H93.6449V177.617H13.1865V179.701H93.6449V221.332H13.1865V223.416H93.6449V264.971H95.7291V223.416H173.816V264.971H175.9V223.416H253.986V264.971H256.07V223.416H334.157V264.971H336.241V223.416H414.328V221.332H336.241V179.701H414.328V177.617H336.241V135.979H414.328V133.895H336.241V92.2561L414.328 92.2561ZM173.816 221.332H95.7291V179.701H173.816V221.332ZM173.816 177.617H95.7291V135.979H173.816V177.617ZM173.816 133.895H95.7291V92.2561H173.816V133.895ZM253.986 221.332H175.9V179.701H253.986V221.332ZM253.986 177.617H175.9V135.979H253.986V177.617ZM253.986 133.895H175.9V92.2561H253.986V133.895ZM334.157 221.332H256.07V179.701H334.157V221.332ZM334.157 177.617H256.07V135.979H334.157V177.617ZM334.157 133.895H256.07V92.2562H334.157V133.895Z" fill="white"/>
<path d="M138.1 102.382H111.264V128.358H138.1V102.382Z" fill="#FCFCFC"/>
<path d="M385.175 186.493H358.339V212.469H385.175V186.493Z" fill="#FCFCFC"/>
<path d="M146.437 229.685H119.601V255.661H146.437V229.685Z" fill="#FCFCFC"/>
<path d="M154.369 97.563H127.532V123.539H154.369V97.563Z" fill="#006BD6"/>
<path d="M280.521 205.541L312.368 177.173L321.763 181.827L283.567 221.88L280.521 205.541Z" fill="#FFB6B6"/>
<path d="M316.558 186.922C320.744 186.922 324.137 183.53 324.137 179.345C324.137 175.16 320.744 171.767 316.558 171.767C312.373 171.767 308.979 175.16 308.979 179.345C308.979 183.53 312.373 186.922 316.558 186.922Z" fill="#FFB6B6"/>
<path d="M250.712 419.061H243.177L239.592 390.001L250.713 390.002L250.712 419.061Z" fill="#FFB6B6"/>
<path d="M252.634 426.364L228.337 426.363V426.056C228.337 423.548 229.334 421.143 231.107 419.37C232.881 417.597 235.286 416.601 237.794 416.601L252.635 416.601L252.634 426.364Z" fill="#151515"/>
<path d="M223.428 419.061H215.892L212.308 390.001L223.429 390.002L223.428 419.061Z" fill="#FFB6B6"/>
<path d="M225.35 426.364L201.053 426.363V426.056C201.053 423.548 202.049 421.143 203.823 419.37C205.596 417.597 208.002 416.601 210.51 416.601L225.35 416.601L225.35 426.364Z" fill="#151515"/>
<path d="M257.625 256.011C257.625 256.011 276.572 254.495 270.509 287.836C264.446 321.178 251.887 412.382 251.887 412.382L240.5 413.947L233.773 292.282L228.684 413.947L214.203 412.382L200.024 281.774C200.024 281.774 195.472 271.273 200.022 264.021C204.572 256.768 257.625 256.011 257.625 256.011Z" fill="#151515"/>
<path d="M244.915 170.353L250.176 167.535C250.176 167.535 263.137 166.43 268.426 181.652L282.454 202.835L305.191 183.134L315.043 189.954L286.388 224.147L274.473 225.669L248.705 192.328L244.915 170.353Z" fill="#00429A"/>
<path d="M225.825 108.874C204.212 108.874 198.162 132.612 198.162 146.004C198.162 159.396 210.547 157.37 225.825 157.37C232.383 157.37 238.404 157.74 243.145 157.107L245.425 151.54L247.261 156.153C251.152 154.723 253.489 151.817 253.489 146.004C253.489 132.612 248.183 108.874 225.825 108.874Z" fill="#151515"/>
<path d="M225.733 157.348C236.014 157.348 244.348 149.015 244.348 138.736C244.348 128.458 236.014 120.125 225.733 120.125C215.452 120.125 207.118 128.458 207.118 138.736C207.118 149.015 215.452 157.348 225.733 157.348Z" fill="#FFB6B6"/>
<path d="M204.226 136.911H211.588L214.836 127.817L215.486 136.911H219.005L220.899 131.606L221.278 136.911H247.426C247.426 131.685 245.35 126.674 241.654 122.979C237.959 119.285 232.947 117.209 227.72 117.209H223.931C218.705 117.209 213.693 119.285 209.997 122.979C206.302 126.674 204.226 131.685 204.226 136.911Z" fill="#151515"/>
<path d="M328.685 150.606H301.849V176.582H328.685V150.606Z" fill="#006BD6"/>
<path d="M262.931 246.092C260.072 246.128 251.464 195.057 251.464 195.057L250.175 167.535L240.769 167.219V166.6C240.769 165.358 240.275 164.167 239.396 163.288C238.518 162.41 237.326 161.917 236.084 161.917H218.169C216.979 161.917 215.834 162.371 214.966 163.186C214.099 164 213.574 165.115 213.499 166.302L206.123 166.054L193.348 206.635C193.348 206.635 205.12 244.341 199.438 260.958C199.438 260.958 254.793 265.711 265.391 255.162C265.391 255.162 265.789 246.055 262.931 246.092Z" fill="#00429A"/>
<path d="M209.294 171.111L206.123 166.054C206.123 166.054 195.808 163.505 191.561 170.339C187.315 177.173 174.832 214.202 174.832 214.202L187.716 218.748L202.337 198.254L209.294 171.111Z" fill="#00429A"/>
<path d="M241.527 197.587H214.69V223.563H241.527V197.587Z" fill="#006BD6"/>
<path d="M194.1 206.975L184.763 205.988C184.174 207.245 183.878 208.62 183.898 210.009C183.919 211.398 184.255 212.764 184.881 214.003C185.508 215.243 186.408 216.324 187.513 217.164C188.619 218.005 189.902 218.583 191.264 218.855L228.207 226.226L224.353 214.361L194.1 206.975Z" fill="#FFB6B6"/>
<path d="M228.318 226.363C232.504 226.363 235.897 222.971 235.897 218.786C235.897 214.601 232.504 211.208 228.318 211.208C224.132 211.208 220.739 214.601 220.739 218.786C220.739 222.971 224.132 226.363 228.318 226.363Z" fill="#FFB6B6"/>
<path d="M218.857 226.594L190.712 220.164C188.673 219.692 186.79 218.702 185.245 217.29C183.701 215.877 182.547 214.09 181.896 212.101L180.759 208.594L188.063 202.847L221.526 212.198L218.857 226.594Z" fill="#00429A"/>
<path d="M377.009 427.889H88.2491C88.0481 427.889 87.8553 427.809 87.7132 427.667C87.5711 427.525 87.4912 427.332 87.4912 427.131C87.4912 426.93 87.5711 426.737 87.7132 426.595C87.8553 426.453 88.0481 426.373 88.2491 426.373H377.009C377.21 426.373 377.403 426.453 377.545 426.595C377.687 426.737 377.767 426.93 377.767 427.131C377.767 427.332 377.687 427.525 377.545 427.667C377.403 427.809 377.21 427.889 377.009 427.889Z" fill="#CACACA"/>
</g>
<defs>
<clipPath id="clip0_23_597">
<rect width="439" height="427" fill="white" transform="translate(0 0.888916)"/>
</clipPath>
</defs>
</svg>
