<svg width="31" height="31" viewBox="0 0 31 31" fill="none" xmlns="http://www.w3.org/2000/svg">
<path fill-rule="evenodd" clip-rule="evenodd" d="M15.667 0.0114746C23.9515 0.0114746 30.667 6.89636 30.667 15.3909C30.667 22.1843 26.374 27.9474 20.4175 29.9829C19.657 30.1344 19.387 29.6541 19.387 29.2446C19.387 28.7376 19.405 27.0817 19.405 25.0237C19.405 23.5897 18.925 22.6537 18.3865 22.1767C21.727 21.7957 25.237 20.4951 25.237 14.5881C25.237 12.9081 24.655 11.5372 23.692 10.4602C23.848 10.0717 24.3625 8.50739 23.545 6.3894C23.545 6.3894 22.288 5.9773 19.4245 7.9663C18.226 7.6258 16.942 7.45448 15.667 7.44848C14.392 7.45448 13.1095 7.6258 11.9125 7.9663C9.04599 5.9773 7.78599 6.3894 7.78599 6.3894C6.97149 8.50739 7.48599 10.0717 7.64049 10.4602C6.68199 11.5372 6.09549 12.9081 6.09549 14.5881C6.09549 20.4801 9.59799 21.8007 12.9295 22.1892C12.5005 22.5732 12.112 23.2506 11.977 24.2451C11.122 24.6381 8.94998 25.3182 7.61198 22.9677C7.61198 22.9677 6.81849 21.4901 5.31249 21.3821C5.31249 21.3821 3.84999 21.3626 5.21049 22.3166C5.21049 22.3166 6.19299 22.7891 6.87549 24.5666C6.87549 24.5666 7.75599 27.3116 11.929 26.3816C11.9365 27.6671 11.95 28.8786 11.95 29.2446C11.95 29.6511 11.674 30.1268 10.9255 29.9843C4.96448 27.9518 0.666992 22.1858 0.666992 15.3909C0.666992 6.89636 7.38399 0.0114746 15.667 0.0114746Z" fill="#AAAAAA" />
</svg>
