<svg width="560" height="466" viewBox="0 0 560 466" fill="none" xmlns="http://www.w3.org/2000/svg">
<g clip-path="url(#clip0_23_477)">
<path d="M249.264 88.7469C249.155 88.7469 249.047 88.743 248.938 88.7361C241.764 88.2752 217.215 84.8026 202.554 59.453C201.471 57.5819 201.684 55.201 203.086 53.5301C215.33 43.5726 224.894 32.7958 230.539 20.8211C231.559 19.6063 233.089 18.9422 234.637 18.9696C236.227 19.0072 237.692 19.7557 238.657 21.0233C245.617 30.1698 259.359 46.3612 273.186 52.0379C274.741 52.6766 275.866 53.9725 276.273 55.5955C276.678 57.2049 276.304 58.8641 275.247 60.1473L253.254 86.8524C252.265 88.0536 250.792 88.7469 249.264 88.7469Z" fill="#F0F0F0"/>
<path d="M207.625 55.1383C207.25 55.5855 207.182 56.2232 207.455 56.7271C220.718 81.15 244.431 83.066 249.049 83.2017C249.494 83.2271 249.911 83.0269 250.193 82.6842L272.028 56.1715C272.337 55.7955 272.433 55.316 272.291 54.8531C272.147 54.3883 271.794 54.0416 271.323 53.9049C256.493 49.5709 240.934 29.4967 236.518 23.4469C236.26 23.0933 235.861 22.8814 235.424 22.8668C234.976 22.8624 234.567 23.0387 234.281 23.3785C227.963 35.6972 219.117 46.3103 207.625 55.1383Z" fill="white"/>
<path d="M218.62 60.8594L238.412 40.6788C239.765 39.2993 237.646 37.1763 236.291 38.5575L216.499 58.7381C215.146 60.1176 217.265 62.2407 218.62 60.8594Z" fill="#F0F0F0"/>
<path d="M230.566 66.5447C236.028 61.6487 240.775 55.9798 244.662 49.7593C245.688 48.1174 243.094 46.6097 242.072 48.2452C238.314 54.259 233.725 59.6906 228.445 64.4234C227.004 65.7147 229.131 67.8306 230.566 66.5447Z" fill="#F0F0F0"/>
<path d="M241.333 73.3527C246.307 67.8435 250.54 61.6949 253.873 55.0625C254.738 53.3419 252.151 51.8211 251.283 53.5483C248.062 59.9564 244.018 65.9074 239.212 71.2314C237.921 72.6613 240.036 74.7895 241.333 73.3527Z" fill="#F0F0F0"/>
<path d="M267.264 96.7469C267.155 96.7469 267.047 96.743 266.938 96.7361C259.764 96.2752 235.215 92.8026 220.554 67.453C219.471 65.5819 219.684 63.201 221.086 61.5301C232.718 51.4413 241.476 40.4091 248.539 28.8211C249.559 27.6063 251.089 26.9422 252.637 26.9696C254.227 27.0072 255.692 27.7557 256.657 29.0233C263.617 38.1698 277.359 54.3612 291.186 60.0379C292.741 60.6766 293.866 61.9725 294.273 63.5955C294.678 65.2049 294.304 66.8641 293.247 68.1473L271.254 94.8524C270.265 96.0536 268.792 96.7469 267.264 96.7469Z" fill="#F0F0F0"/>
<path d="M225.625 63.1383C225.25 63.5855 225.182 64.2232 225.455 64.7271C238.718 89.15 262.431 91.066 267.049 91.2017C267.494 91.2271 267.911 91.0269 268.193 90.6842L290.028 64.1715C290.337 63.7955 290.433 63.316 290.291 62.8531C290.147 62.3883 289.794 62.0416 289.323 61.9049C274.493 57.5709 258.934 37.4967 254.518 31.4469C254.26 31.0933 253.861 30.8814 253.424 30.8668C252.976 30.8624 252.567 31.0387 252.281 31.3785C244.713 43.9548 236.199 55.1029 225.625 63.1383Z" fill="white"/>
<path d="M236.62 68.8594L256.412 48.6788C257.765 47.2993 255.646 45.1763 254.291 46.5575L234.499 66.7381C233.146 68.1176 235.265 70.2407 236.62 68.8594Z" fill="#F0F0F0"/>
<path d="M248.566 74.5447C254.028 69.6487 258.775 63.9798 262.662 57.7593C263.688 56.1174 261.094 54.6097 260.072 56.2452C256.314 62.259 251.725 67.6906 246.445 72.4234C245.004 73.7147 247.131 75.8306 248.566 74.5447Z" fill="#F0F0F0"/>
<path d="M259.333 81.3527C264.307 75.8435 268.54 69.6949 271.873 63.0625C272.738 61.3419 270.151 59.8211 269.283 61.5483C266.062 67.9564 262.018 73.9074 257.212 79.2314C255.921 80.6613 258.036 82.7895 259.333 81.3527Z" fill="#F0F0F0"/>
<path d="M464.264 282.747C464.155 282.747 464.047 282.743 463.938 282.736C456.764 282.275 432.215 278.803 417.554 253.453C416.471 251.582 416.685 249.201 418.086 247.53L445.539 214.821C446.559 213.607 448.089 212.942 449.637 212.97C451.227 213.007 453.268 213.479 453.657 215.024C456.819 227.576 470.44 243.876 488.186 246.038C489.854 246.241 490.866 247.973 491.273 249.596C491.678 251.205 491.304 252.864 490.247 254.148L468.254 280.853C467.265 282.054 465.792 282.747 464.264 282.747Z" fill="#F0F0F0"/>
<path d="M422.625 249.139C422.25 249.586 422.182 250.224 422.455 250.728C435.718 275.15 459.431 277.067 464.049 277.202C464.494 277.228 464.911 277.027 465.193 276.685L487.028 250.172C487.337 249.796 487.433 249.316 487.291 248.854C487.147 248.389 486.813 247.928 486.323 247.905C467.446 247.02 452.285 226.607 451.518 217.447C451.482 217.011 450.861 216.882 450.424 216.867C449.976 216.863 449.567 217.039 449.281 217.379L422.625 249.139Z" fill="white"/>
<path d="M433.62 254.859L453.412 234.679C454.765 233.299 452.646 231.176 451.291 232.557L431.499 252.738C430.146 254.118 432.265 256.241 433.62 254.859Z" fill="#F0F0F0"/>
<path d="M445.566 260.545C451.028 255.649 455.775 249.98 459.662 243.76C460.688 242.118 458.094 240.61 457.072 242.245C453.314 248.259 448.725 253.691 443.445 258.424C442.004 259.715 444.131 261.831 445.566 260.545Z" fill="#F0F0F0"/>
<path d="M456.333 267.353C461.307 261.844 465.54 255.695 468.873 249.063C469.738 247.342 467.151 245.821 466.283 247.549C463.062 253.957 459.018 259.908 454.212 265.232C452.921 266.662 455.036 268.79 456.333 267.353Z" fill="#F0F0F0"/>
<path d="M382.02 457.1L370.161 457.099L364.52 411.356L382.022 411.357L382.02 457.1Z" fill="#FFB6B6"/>
<path d="M341.389 456.831C341.02 457.453 340.825 459.46 340.825 460.183C340.825 462.406 342.627 464.208 344.85 464.208H381.577C383.093 464.208 384.322 462.979 384.322 461.462V459.933C384.322 459.933 386.139 455.337 382.399 449.673C382.399 449.673 377.75 454.108 370.803 447.162L368.755 443.451L353.926 454.296L345.707 455.307C343.909 455.529 342.314 455.273 341.389 456.831Z" fill="#151515"/>
<path d="M491.529 433.696L481.428 439.909L452.654 403.905L467.563 394.734L491.529 433.696Z" fill="#FFB6B6"/>
<path d="M456.781 454.757C456.793 455.48 457.679 457.291 458.058 457.907C459.222 459.801 461.701 460.391 463.595 459.227L494.876 439.983C496.167 439.188 496.57 437.497 495.776 436.205L494.975 434.903C494.975 434.903 494.114 430.037 487.96 427.172C487.96 427.172 486.325 433.386 476.768 431.109L473.079 429.022L466.131 446.028L459.661 451.197C458.245 452.327 456.753 452.945 456.781 454.757Z" fill="#151515"/>
<path d="M416.991 243.152C416.404 240.591 416.449 238.106 416.999 236.046L409.854 212.018L421.488 208.864L427.483 233.577C428.874 235.18 429.995 237.391 430.582 239.952C431.923 245.801 429.968 251.26 426.215 252.144C422.461 253.027 418.332 249.002 416.991 243.152Z" fill="#FFB6B6"/>
<path d="M350.795 82.9897C350.795 82.9897 369.544 74.8288 380.013 86.6219C389.542 97.356 408.886 129.656 406.9 132.799L425.944 222.784L411.828 227.132L374.383 123.629L350.795 82.9897Z" fill="#006BD6"/>
<path d="M330.146 216.344L339.807 329.047L363.152 433.7L388.108 431.285L376.033 316.971L383.424 215.381L330.146 216.344Z" fill="#151515"/>
<path d="M332.144 240.798L392.313 336.584L460.966 418.95L482.049 405.381L418.996 309.268C409.345 266.932 398.659 227.742 379.073 215.559L332.144 240.798Z" fill="#151515"/>
<path d="M335.655 241.267C332.833 241.267 330.099 240.272 327.872 238.384C324.881 235.848 323.324 232.151 323.597 228.241L328.846 177.882L326.841 122.892L326.854 122.832L333.085 92.9492C333.147 91.9995 333.346 90.9941 333.668 90.0288L342.872 62.356C344.527 57.3784 349.163 54.0342 354.409 54.0342H362.547C366.623 54.0342 370.405 56.0581 372.665 59.4487L379.79 70.1362C380.263 70.8462 380.663 71.6084 380.977 72.4018L396.707 112.101C397.206 113.361 397.49 114.687 397.55 116.041L402.43 226.216C402.593 229.874 401.122 233.374 398.394 235.819C395.683 238.251 392.066 239.326 388.479 238.772C367.939 235.601 349.962 238.194 338.498 240.93C337.55 241.155 336.597 241.267 335.655 241.267Z" fill="#006BD6"/>
<path d="M333.366 131.816L319.681 121.351C319.681 121.351 326.121 64.1944 343.026 64.1944C359.932 64.1944 368.787 54.5342 368.787 54.5342C368.787 54.5342 429.164 139.062 412.258 148.722C395.353 158.382 372.007 153.552 372.007 153.552L363.784 81.3432C362.774 77.5261 357.521 77.1127 355.926 80.7248L333.366 131.816Z" fill="#00429A"/>
<path d="M355.881 51.5709C368.804 51.5709 379.281 41.0943 379.281 28.1707C379.281 15.2471 368.804 4.77051 355.881 4.77051C342.957 4.77051 332.48 15.2471 332.48 28.1707C332.48 41.0943 342.957 51.5709 355.881 51.5709Z" fill="#FFB6B6"/>
<path d="M374.411 45.8607C372.301 46.6488 369.064 47.8742 366.954 48.6623C364.985 44.738 367.397 42.7016 367.647 38.3184C367.731 36.8556 367.942 35.3912 367.821 33.931C367.699 32.4709 367.198 30.9721 366.096 30.0059C364.411 28.528 361.605 28.7683 359.974 30.3054C358.343 31.8425 357.878 34.3824 358.545 36.5223C352.129 33.7487 347.983 26.4724 348.87 19.5389C346.953 18.7878 344.989 18.0265 342.932 17.969C340.875 17.9116 338.671 18.6966 337.574 20.4384C336.806 21.6598 336.652 23.2102 335.789 24.3671C334.388 26.2469 331.358 26.3926 329.497 24.9666C327.635 23.5407 326.923 20.9494 327.32 18.6384C327.717 16.3273 324.828 11.6111 326.445 9.91296C327.548 8.75455 333.024 10.3959 334.254 9.37405C335.377 8.44175 336.504 7.50636 337.742 6.73292C339.313 5.75116 341.052 5.04019 342.861 4.64069C344.572 4.2628 346.331 4.16354 348.081 4.06549C349.857 3.96594 352.314 0.429175 354.09 0.329625C359.32 0.0365455 363.994 3.1944 369.011 4.69783C374.028 6.20126 377.185 10.5185 379.962 14.9595C383.918 21.2851 382.573 28.2163 379.849 34.2649C379.176 35.76 381.435 37.3312 381.101 38.9363C380.79 40.4285 379.392 41.5092 379.065 42.9979C378.786 44.2709 377.134 42.7961 376.739 44.0384C376.399 45.1104 375.397 45.8673 374.326 46.2094C373.254 46.5516 372.107 46.5446 370.982 46.5344" fill="#151515"/>
<path d="M369.388 53.9336L370.213 54.5341L372.292 56.0478C378.543 60.599 377.962 70.0994 371.203 73.8546L362.75 60.3531" fill="#00429A"/>
<path d="M505.384 448.356C507.45 448.485 508.592 445.919 507.029 444.423L506.873 443.805C506.894 443.755 506.914 443.706 506.935 443.656C509.024 438.674 516.105 438.709 518.176 443.698C520.015 448.126 522.356 452.562 522.932 457.244C523.19 459.311 523.074 461.416 522.616 463.444C526.924 454.034 529.191 443.758 529.191 433.424C529.191 430.827 529.049 428.231 528.758 425.641C528.519 423.522 528.19 421.417 527.763 419.33C525.458 408.053 520.465 397.312 513.263 388.341C509.801 386.448 506.914 383.49 505.17 379.944C504.544 378.665 504.053 377.29 503.82 375.888C504.214 375.94 505.306 369.939 505.009 369.571C505.558 368.738 506.54 368.324 507.14 367.511C510.122 363.467 514.231 364.173 516.376 369.668C520.959 371.981 521.003 375.816 518.191 379.505C516.403 381.852 516.157 385.027 514.587 387.54C514.749 387.746 514.917 387.947 515.078 388.153C518.039 391.951 520.6 396.033 522.759 400.322C522.149 395.556 523.05 389.814 524.586 386.112C526.334 381.895 529.611 378.343 532.496 374.697C535.962 370.318 543.069 372.229 543.68 377.781C543.686 377.834 543.692 377.888 543.697 377.942C543.269 378.184 542.849 378.441 542.439 378.712C540.099 380.259 540.908 383.886 543.68 384.314L543.743 384.323C543.588 385.867 543.323 387.398 542.935 388.903C546.637 403.218 538.645 408.433 527.234 408.667C526.982 408.796 526.736 408.925 526.484 409.048C527.641 412.303 528.564 415.642 529.249 419.027C529.862 422.017 530.289 425.04 530.528 428.076C530.825 431.906 530.799 435.755 530.476 439.579L530.495 439.443C531.316 435.232 533.602 431.299 536.922 428.573C541.868 424.51 548.855 423.014 554.19 419.749C556.759 418.177 560.05 420.208 559.602 423.186L559.58 423.328C558.785 423.651 558.01 424.026 557.261 424.446C556.832 424.688 556.412 424.944 556.002 425.216C553.663 426.763 554.471 430.39 557.243 430.817L557.306 430.827C557.351 430.834 557.39 430.84 557.435 430.847C556.073 434.082 554.174 437.086 551.797 439.676C549.482 452.173 539.541 453.359 528.907 449.719H528.9C527.737 454.783 526.039 459.731 523.856 464.446H505.835C505.771 464.245 505.713 464.039 505.655 463.838C507.321 463.942 509 463.845 510.641 463.541C509.304 461.901 507.967 460.247 506.63 458.607C506.598 458.574 506.572 458.542 506.546 458.51C505.868 457.67 505.183 456.837 504.505 455.997L504.505 455.996C504.462 453.419 504.772 450.849 505.384 448.356Z" fill="#CCCCCC"/>
<path d="M193.833 464.499C193.833 465.159 194.363 465.689 195.023 465.689H558.313C558.973 465.689 559.503 465.159 559.503 464.499C559.503 463.839 558.973 463.309 558.313 463.309H195.023C194.363 463.309 193.833 463.839 193.833 464.499Z" fill="#CCCCCC"/>
<path d="M251.376 81.7825C253.486 83.1751 255.107 84.9289 256.093 86.718L277.034 98.7144L271.034 108.512L250.437 95.288C248.405 95.0852 246.155 94.2847 244.044 92.8921C239.224 89.7107 236.957 84.6448 238.981 81.577C241.006 78.5091 246.555 78.6012 251.376 81.7825Z" fill="#FFB6B6"/>
<path d="M349.903 69.1362C363.257 60.9464 376.676 79.7014 364.803 89.92L364.762 89.9548L317.319 134.576L260.542 106.539L266.156 91.4003L310.145 108.826L343.143 74.5697C345.439 72.2699 347.699 70.4874 349.903 69.1362Z" fill="#006BD6"/>
<path d="M68.6523 143.642C67.5493 143.642 66.6523 144.539 66.6523 145.642V176.642C66.6523 177.745 67.5493 178.642 68.6523 178.642C69.7554 178.642 70.6523 177.745 70.6523 176.642V145.642C70.6523 144.539 69.7554 143.642 68.6523 143.642Z" fill="#00429A"/>
<path d="M88.2533 173.513C95.1366 173.513 100.717 168.051 100.717 161.312C100.717 154.574 95.1366 149.112 88.2533 149.112C81.37 149.112 75.79 154.574 75.79 161.312C75.79 168.051 81.37 173.513 88.2533 173.513Z" fill="#006BD6"/>
<path d="M188.166 157.139H121.081C118.78 157.139 116.907 155.266 116.907 152.965C116.907 150.663 118.78 148.791 121.081 148.791H188.166C190.468 148.791 192.34 150.663 192.34 152.965C192.34 155.266 190.468 157.139 188.166 157.139Z" fill="#CCCCCC"/>
<path d="M240.519 171.266H121.081C118.78 171.266 116.907 169.393 116.907 167.092C116.907 164.79 118.78 162.918 121.081 162.918H240.519C242.821 162.918 244.693 164.79 244.693 167.092C244.693 169.393 242.821 171.266 240.519 171.266Z" fill="#CCCCCC"/>
<path d="M12.8207 239.493C19.704 239.493 25.284 234.031 25.284 227.293C25.284 220.554 19.704 215.092 12.8207 215.092C5.93742 215.092 0.357422 220.554 0.357422 227.293C0.357422 234.031 5.93742 239.493 12.8207 239.493Z" fill="#006BD6"/>
<path d="M112.733 223.119H45.6485C43.3471 223.119 41.4746 221.246 41.4746 218.945C41.4746 216.643 43.3471 214.771 45.6485 214.771H112.733C115.035 214.771 116.907 216.643 116.907 218.945C116.907 221.246 115.035 223.119 112.733 223.119Z" fill="#CCCCCC"/>
<path d="M129.878 279.503C136.762 279.503 142.342 274.041 142.342 267.303C142.342 260.564 136.762 255.102 129.878 255.102C122.995 255.102 117.415 260.564 117.415 267.303C117.415 274.041 122.995 279.503 129.878 279.503Z" fill="#006BD6"/>
<path d="M282.144 277.256H162.706C160.405 277.256 158.532 275.383 158.532 273.082C158.532 270.78 160.405 268.908 162.706 268.908H282.144C284.446 268.908 286.318 270.78 286.318 273.082C286.318 275.383 284.446 277.256 282.144 277.256Z" fill="#CCCCCC"/>
<path d="M252.637 51.3711C259.52 51.3711 265.1 45.9087 265.1 39.1704C265.1 32.4322 259.52 26.9697 252.637 26.9697C245.754 26.9697 240.174 32.4322 240.174 39.1704C240.174 45.9087 245.754 51.3711 252.637 51.3711Z" fill="#006BD6"/>
<path d="M482.049 255.909C488.932 255.909 494.512 250.447 494.512 243.708C494.512 236.97 488.932 231.508 482.049 231.508C475.166 231.508 469.586 236.97 469.586 243.708C469.586 250.447 475.166 255.909 482.049 255.909Z" fill="#006BD6"/>
</g>
<defs>
<clipPath id="clip0_23_477">
<rect width="559.286" height="465.379" fill="white" transform="translate(0.357422 0.310547)"/>
</clipPath>
</defs>
</svg>
