<svg width="616" height="468" viewBox="0 0 616 468" fill="none" xmlns="http://www.w3.org/2000/svg">
<g clip-path="url(#clip0_43_383)">
<path d="M433.37 360.52C378.924 360.52 329.724 322.776 317.492 267.507C306.168 216.341 338.612 165.508 389.815 154.193C399.589 152.033 409.693 151.817 419.55 153.56C429.407 155.302 438.824 158.967 447.264 164.346C455.704 169.725 463.001 176.712 468.738 184.909C474.475 193.106 478.541 202.352 480.702 212.119C484.184 227.935 481.245 244.485 472.531 258.139C463.816 271.793 450.038 281.435 434.219 284.949C423.289 287.32 411.878 285.907 401.858 280.941C391.839 275.975 383.807 267.753 379.082 257.623C379.042 257.537 379.019 257.444 379.015 257.349C379.011 257.255 379.026 257.16 379.058 257.071C379.091 256.982 379.141 256.9 379.206 256.83C379.27 256.76 379.348 256.704 379.434 256.664C379.52 256.625 379.614 256.602 379.708 256.599C379.803 256.595 379.898 256.611 379.987 256.644C380.076 256.677 380.158 256.727 380.227 256.792C380.297 256.857 380.353 256.935 380.392 257.021C384.978 266.853 392.774 274.834 402.499 279.653C412.223 284.473 423.299 285.844 433.907 283.542C449.353 280.11 462.807 270.696 471.315 257.364C479.824 244.033 482.694 227.873 479.294 212.43C475.011 193.078 463.211 176.219 446.488 165.561C429.766 154.903 409.492 151.32 390.126 155.6C365.886 160.986 344.774 175.76 331.421 196.681C318.068 217.602 313.565 242.961 318.9 267.196C332.861 330.28 395.578 370.253 458.709 356.301C479.567 351.706 499.167 342.611 516.138 329.653C533.108 316.694 547.039 300.185 556.956 281.282C557 281.198 557.06 281.123 557.132 281.063C557.205 281.002 557.289 280.956 557.38 280.928C557.47 280.9 557.566 280.889 557.66 280.898C557.755 280.907 557.847 280.934 557.93 280.978C558.014 281.022 558.089 281.082 558.15 281.155C558.21 281.228 558.256 281.312 558.284 281.403C558.312 281.493 558.322 281.588 558.313 281.683C558.304 281.777 558.277 281.869 558.232 281.953C548.219 301.042 534.151 317.712 517.013 330.798C499.876 343.884 480.083 353.069 459.021 357.709C450.598 359.574 441.997 360.517 433.37 360.52Z" fill="#F0F0F0"/>
<path d="M573.682 198.301C573.504 198.3 573.333 198.234 573.201 198.116C573.069 197.997 572.985 197.833 572.966 197.657C572.379 192.21 571.492 186.799 570.309 181.45C551.475 96.3519 474.617 35.8125 387.556 37.582C387.365 37.5858 387.18 37.5135 387.042 37.3811C386.904 37.2486 386.824 37.0669 386.82 36.8758C386.817 36.6847 386.889 36.4999 387.021 36.3621C387.154 36.2243 387.336 36.1447 387.527 36.1408C430.259 35.3478 471.95 49.3547 505.523 75.7844C539.097 102.214 562.484 139.438 571.717 181.139C572.912 186.54 573.808 192.003 574.4 197.503C574.41 197.597 574.402 197.692 574.375 197.783C574.348 197.874 574.304 197.959 574.245 198.032C574.185 198.106 574.112 198.167 574.029 198.212C573.945 198.258 573.854 198.286 573.76 198.296C573.734 198.299 573.708 198.301 573.682 198.301Z" fill="#F0F0F0"/>
<path d="M175.986 316.479C175.822 316.478 175.663 316.422 175.535 316.32C175.407 316.217 175.318 316.074 175.283 315.913C166.207 275.044 168.426 232.478 181.703 192.772C194.981 153.067 218.816 117.718 250.656 90.5113C250.727 90.4491 250.811 90.4016 250.901 90.3717C250.991 90.3417 251.087 90.3299 251.181 90.3369C251.276 90.3439 251.369 90.3696 251.454 90.4124C251.538 90.4553 251.614 90.5145 251.676 90.5866C251.738 90.6587 251.785 90.7424 251.814 90.8327C251.844 90.9231 251.855 91.0183 251.847 91.113C251.84 91.2077 251.813 91.3 251.77 91.3845C251.727 91.4691 251.667 91.5442 251.594 91.6056C219.953 118.643 196.266 153.771 183.072 193.229C169.877 232.687 167.672 274.988 176.691 315.602C176.714 315.708 176.714 315.817 176.689 315.922C176.665 316.027 176.617 316.125 176.549 316.21C176.481 316.294 176.396 316.362 176.298 316.408C176.201 316.455 176.094 316.479 175.986 316.479Z" fill="#F0F0F0"/>
<path d="M375.283 116.016H262.789C259.539 116.013 256.423 114.721 254.125 112.424C251.827 110.128 250.534 107.014 250.53 103.766V12.2502C250.534 9.00233 251.827 5.88858 254.125 3.59202C256.423 1.29546 259.539 0.00365622 262.789 0H375.283C378.533 0.00365622 381.649 1.29546 383.947 3.59202C386.245 5.88858 387.538 9.00233 387.542 12.2502V103.766C387.538 107.014 386.245 110.128 383.947 112.424C381.649 114.721 378.533 116.013 375.283 116.016ZM262.789 1.4412C259.921 1.44444 257.172 2.58428 255.144 4.61065C253.116 6.63702 251.976 9.38443 251.972 12.2502V103.766C251.976 106.632 253.116 109.379 255.144 111.406C257.172 113.432 259.921 114.572 262.789 114.575H375.283C378.15 114.572 380.9 113.432 382.928 111.406C384.955 109.379 386.096 106.632 386.099 103.766V12.2502C386.096 9.38443 384.955 6.63702 382.928 4.61065C380.9 2.58428 378.15 1.44444 375.283 1.4412H262.789Z" fill="#3F3D56"/>
<path d="M362.496 27.4822H305.722C305.223 27.4923 304.739 27.3128 304.367 26.9798C303.996 26.6469 303.765 26.1854 303.721 25.6886C303.707 25.4315 303.745 25.1742 303.834 24.9325C303.923 24.6908 304.061 24.4698 304.238 24.2829C304.415 24.096 304.629 23.9471 304.865 23.8454C305.102 23.7436 305.357 23.6912 305.615 23.6912H363.407C365.311 25.3629 364.152 27.4822 362.496 27.4822Z" fill="#AAAAAA"/>
<path d="M362.496 37.4336H305.722C305.223 37.4438 304.739 37.2642 304.367 36.9312C303.996 36.5983 303.765 36.1368 303.721 35.64C303.707 35.3829 303.745 35.1256 303.834 34.8839C303.923 34.6423 304.061 34.4212 304.238 34.2343C304.415 34.0474 304.629 33.8985 304.865 33.7968C305.102 33.6951 305.357 33.6426 305.615 33.6426H363.407C365.311 35.3144 364.152 37.4336 362.496 37.4336Z" fill="#AAAAAA"/>
<path d="M293.449 43.0996H276.122C275.556 43.0991 275.014 42.8742 274.614 42.4745C274.214 42.0747 273.989 41.5327 273.988 40.9674V20.5348C273.989 19.9695 274.214 19.4275 274.614 19.0277C275.014 18.628 275.556 18.4032 276.122 18.4026H293.449C294.015 18.4034 294.557 18.6282 294.957 19.028C295.357 19.4277 295.582 19.9696 295.583 20.5348V40.9674C295.582 41.5327 295.357 42.0747 294.957 42.4745C294.557 42.8742 294.015 43.0991 293.449 43.0996Z" fill="#006BD6"/>
<path d="M362.33 57.8091H275.683C275.184 57.8192 274.7 57.6397 274.328 57.3067C273.957 56.9738 273.726 56.5123 273.681 56.0155C273.668 55.7584 273.706 55.5011 273.795 55.2594C273.884 55.0178 274.021 54.7967 274.199 54.6098C274.376 54.4229 274.59 54.274 274.826 54.1723C275.063 54.0705 275.318 54.0181 275.576 54.0181H363.242C365.146 55.6899 363.986 57.8091 362.33 57.8091Z" fill="#AAAAAA"/>
<path d="M362.331 67.7635H275.683C275.184 67.7736 274.7 67.594 274.328 67.2611C273.957 66.9281 273.726 66.4666 273.681 65.9699C273.668 65.7127 273.706 65.4555 273.795 65.2138C273.884 64.9721 274.021 64.7511 274.199 64.5641C274.376 64.3772 274.59 64.2284 274.826 64.1266C275.063 64.0249 275.318 63.9724 275.576 63.9724H363.242C365.146 65.6442 363.986 67.7635 362.331 67.7635Z" fill="#AAAAAA"/>
<path d="M362.33 77.7115H275.683C275.184 77.7216 274.7 77.542 274.328 77.2091C273.957 76.8761 273.726 76.4146 273.681 75.9179C273.668 75.6607 273.706 75.4035 273.795 75.1618C273.884 74.9201 274.021 74.699 274.199 74.5121C274.376 74.3252 274.59 74.1764 274.826 74.0746C275.063 73.9729 275.318 73.9204 275.576 73.9204H363.242C365.146 75.5922 363.986 77.7115 362.33 77.7115Z" fill="#AAAAAA"/>
<path d="M362.33 87.665H275.683C275.184 87.6752 274.7 87.4956 274.328 87.1627C273.957 86.8297 273.726 86.3682 273.681 85.8715C273.668 85.6143 273.706 85.3571 273.795 85.1154C273.884 84.8737 274.021 84.6527 274.199 84.4658C274.376 84.2788 274.59 84.13 274.826 84.0282C275.063 83.9265 275.318 83.874 275.576 83.874H363.242C365.146 85.5458 363.986 87.665 362.33 87.665Z" fill="#AAAAAA"/>
<path d="M362.33 97.6135H275.683C275.184 97.6237 274.7 97.4441 274.328 97.1111C273.957 96.7782 273.726 96.3167 273.681 95.82C273.668 95.5628 273.706 95.3056 273.795 95.0639C273.884 94.8222 274.021 94.6011 274.199 94.4142C274.376 94.2273 274.59 94.0784 274.826 93.9767C275.063 93.875 275.318 93.8225 275.576 93.8225H363.242C365.146 95.4943 363.986 97.6135 362.33 97.6135Z" fill="#AAAAAA"/>
<path d="M606.399 282.338H524.913C522.368 282.335 519.928 281.324 518.128 279.525C516.328 277.726 515.315 275.288 515.312 272.744V206.453C515.315 203.91 516.328 201.471 518.128 199.673C519.928 197.874 522.368 196.862 524.913 196.859H606.399C608.945 196.862 611.385 197.874 613.185 199.673C614.985 201.471 615.997 203.91 616 206.453V272.744C615.997 275.288 614.985 277.726 613.185 279.525C611.385 281.324 608.945 282.335 606.399 282.338ZM524.913 198.301C522.75 198.303 520.677 199.163 519.147 200.691C517.617 202.22 516.757 204.292 516.755 206.453V272.744C516.757 274.906 517.617 276.978 519.147 278.506C520.677 280.035 522.75 280.895 524.913 280.897H606.399C608.562 280.895 610.636 280.035 612.166 278.506C613.695 276.978 614.556 274.906 614.558 272.744V206.453C614.556 204.292 613.695 202.22 612.166 200.691C610.636 199.163 608.562 198.303 606.399 198.301L524.913 198.301Z" fill="#3F3D56"/>
<path d="M597.137 217.487H556.012C555.651 217.494 555.3 217.364 555.031 217.123C554.762 216.882 554.594 216.547 554.563 216.188C554.553 216.001 554.581 215.815 554.645 215.64C554.709 215.465 554.809 215.305 554.937 215.169C555.066 215.034 555.22 214.926 555.392 214.852C555.563 214.779 555.748 214.741 555.935 214.741H597.797C599.176 215.952 598.336 217.487 597.137 217.487Z" fill="#AAAAAA"/>
<path d="M597.137 224.695H556.012C555.651 224.703 555.3 224.573 555.031 224.331C554.762 224.09 554.594 223.756 554.563 223.396C554.553 223.21 554.581 223.023 554.645 222.848C554.709 222.673 554.809 222.513 554.937 222.378C555.066 222.242 555.22 222.135 555.392 222.061C555.563 221.987 555.748 221.949 555.935 221.949H597.797C599.176 223.16 598.336 224.695 597.137 224.695Z" fill="#AAAAAA"/>
<path d="M547.122 228.799H534.571C534.161 228.799 533.768 228.636 533.479 228.347C533.189 228.057 533.026 227.664 533.025 227.255V212.454C533.026 212.045 533.189 211.652 533.479 211.363C533.768 211.073 534.161 210.91 534.571 210.91H547.122C547.532 210.91 547.924 211.073 548.214 211.363C548.504 211.652 548.667 212.045 548.668 212.454V227.255C548.667 227.664 548.504 228.057 548.214 228.347C547.925 228.636 547.532 228.799 547.122 228.799Z" fill="#006BD6"/>
<path d="M597.018 239.455H534.254C533.892 239.462 533.541 239.332 533.272 239.091C533.003 238.85 532.836 238.515 532.804 238.155C532.794 237.969 532.822 237.783 532.886 237.608C532.951 237.433 533.05 237.273 533.178 237.137C533.307 237.002 533.462 236.894 533.633 236.82C533.804 236.747 533.989 236.708 534.176 236.708H597.678C599.057 237.919 598.217 239.455 597.018 239.455Z" fill="#AAAAAA"/>
<path d="M597.018 246.665H534.254C533.892 246.672 533.541 246.542 533.272 246.301C533.003 246.06 532.836 245.726 532.804 245.366C532.794 245.18 532.822 244.993 532.886 244.818C532.951 244.643 533.05 244.483 533.178 244.348C533.307 244.212 533.462 244.104 533.633 244.031C533.804 243.957 533.989 243.919 534.176 243.919H597.678C599.057 245.13 598.217 246.665 597.018 246.665Z" fill="#AAAAAA"/>
<path d="M597.018 253.871H534.254C533.892 253.878 533.541 253.748 533.272 253.507C533.003 253.266 532.836 252.931 532.804 252.572C532.794 252.385 532.822 252.199 532.886 252.024C532.951 251.849 533.05 251.689 533.178 251.553C533.307 251.418 533.462 251.31 533.633 251.236C533.804 251.163 533.989 251.125 534.176 251.125H597.678C599.057 252.336 598.217 253.871 597.018 253.871Z" fill="#AAAAAA"/>
<path d="M597.018 261.081H534.254C533.892 261.088 533.541 260.958 533.272 260.717C533.003 260.476 532.836 260.142 532.804 259.782C532.794 259.596 532.822 259.409 532.886 259.234C532.951 259.059 533.05 258.899 533.178 258.764C533.307 258.628 533.462 258.52 533.633 258.447C533.804 258.373 533.989 258.335 534.176 258.335H597.678C599.057 259.546 598.217 261.081 597.018 261.081Z" fill="#AAAAAA"/>
<path d="M597.018 268.287H534.254C533.892 268.295 533.541 268.165 533.272 267.923C533.003 267.682 532.836 267.348 532.804 266.988C532.794 266.802 532.822 266.616 532.886 266.44C532.951 266.265 533.05 266.105 533.178 265.97C533.307 265.834 533.462 265.727 533.633 265.653C533.804 265.579 533.989 265.541 534.176 265.541H597.678C599.057 266.752 598.217 268.287 597.018 268.287Z" fill="#AAAAAA"/>
<path d="M406.161 258.312H354.499C352.816 258.31 351.201 257.641 350.011 256.451C348.82 255.261 348.15 253.648 348.148 251.965V209.938C348.15 208.255 348.82 206.642 350.011 205.452C351.201 204.262 352.816 203.593 354.499 203.591H406.161C407.845 203.593 409.459 204.262 410.65 205.452C411.84 206.642 412.51 208.255 412.512 209.938V251.965C412.51 253.648 411.84 255.261 410.65 256.451C409.459 257.641 407.845 258.31 406.161 258.312ZM354.499 205.033C353.198 205.034 351.95 205.551 351.03 206.471C350.11 207.39 349.592 208.637 349.591 209.938V251.965C349.592 253.266 350.11 254.513 351.03 255.432C351.95 256.352 353.198 256.869 354.499 256.87H406.161C407.462 256.869 408.71 256.352 409.63 255.432C410.551 254.513 411.068 253.266 411.07 251.965V209.938C411.068 208.637 410.551 207.39 409.63 206.471C408.71 205.551 407.462 205.034 406.161 205.033H354.499Z" fill="#3F3D56"/>
<path d="M397.997 235.455H362.663C361.802 235.455 360.977 235.114 360.368 234.506C359.76 233.897 359.418 233.073 359.418 232.213C359.418 231.353 359.76 230.528 360.368 229.92C360.977 229.312 361.802 228.97 362.663 228.97H397.997C398.858 228.97 399.684 229.312 400.292 229.92C400.901 230.528 401.242 231.353 401.242 232.213C401.242 233.073 400.901 233.897 400.292 234.506C399.684 235.114 398.858 235.455 397.997 235.455Z" fill="#006BD6"/>
<path d="M390.786 222.124H369.874C369.013 222.124 368.188 221.783 367.579 221.175C366.971 220.566 366.629 219.742 366.629 218.882C366.629 218.022 366.971 217.197 367.579 216.589C368.188 215.981 369.013 215.639 369.874 215.639H390.786C391.647 215.639 392.472 215.981 393.081 216.589C393.689 217.197 394.031 218.022 394.031 218.882C394.031 219.742 393.689 220.566 393.081 221.175C392.472 221.783 391.647 222.124 390.786 222.124Z" fill="#006BD6"/>
<path d="M397.997 246.264H362.663C361.802 246.264 360.977 245.923 360.368 245.314C359.76 244.706 359.418 243.882 359.418 243.021C359.418 242.161 359.76 241.337 360.368 240.729C360.977 240.12 361.802 239.779 362.663 239.779H397.997C398.858 239.779 399.684 240.12 400.292 240.729C400.901 241.337 401.242 242.161 401.242 243.021C401.242 243.882 400.901 244.706 400.292 245.314C399.684 245.923 398.858 246.264 397.997 246.264Z" fill="#006BD6"/>
<path d="M91.1469 341.276C90.6481 340.342 90.3604 339.309 90.3042 338.251C90.2479 337.193 90.4245 336.136 90.8214 335.154C91.2183 334.171 91.8259 333.288 92.6014 332.566C93.3769 331.844 94.3014 331.3 95.3099 330.973L95.8412 305.229L106.866 312.824L104.671 336.107C105.108 337.837 104.895 339.666 104.072 341.249C103.249 342.831 101.874 344.057 100.207 344.695C98.5396 345.332 96.6965 345.336 95.0268 344.706C93.357 344.076 91.9766 342.856 91.1469 341.276Z" fill="#A0616A"/>
<path d="M103.337 242.144L92.5459 323.221L105.537 323.71L116.393 238.6L113.788 237.063C112.797 236.479 111.676 236.149 110.526 236.103C109.376 236.057 108.232 236.296 107.197 236.799C106.162 237.302 105.268 238.054 104.594 238.986C103.921 239.919 103.489 241.004 103.337 242.144Z" fill="#006BD6"/>
<path d="M137.779 459.418L146.619 459.418L150.825 425.342L137.776 425.343L137.779 459.418Z" fill="#A0616A"/>
<path d="M163.669 467.62L135.884 467.622L135.883 456.894L152.933 456.893C155.78 456.893 158.511 458.023 160.524 460.035C162.538 462.047 163.669 464.775 163.669 467.62Z" fill="#151515"/>
<path d="M64.2227 448.86L72.245 452.571L90.3882 423.415L78.5476 417.938L64.2227 448.86Z" fill="#A0616A"/>
<path d="M84.2686 467.174L59.0544 455.509L63.5642 445.774L79.0365 452.932C81.6202 454.127 83.623 456.299 84.6042 458.97C85.5854 461.641 85.4646 464.592 84.2686 467.174Z" fill="#151515"/>
<path d="M147.047 452.218C146.917 452.218 146.788 452.21 146.659 452.195L139.665 451.373C138.929 451.283 138.246 450.946 137.728 450.417C137.21 449.887 136.887 449.197 136.814 448.46L128.418 360.446C128.396 360.216 128.301 359.999 128.146 359.827C127.992 359.655 127.787 359.537 127.561 359.49C127.334 359.443 127.099 359.47 126.889 359.567C126.679 359.663 126.505 359.824 126.394 360.026L79.6795 444.6C79.3282 445.24 78.7703 445.743 78.0967 446.026C77.423 446.309 76.6734 446.355 75.9699 446.158L68.1125 443.976C67.6884 443.859 67.2926 443.657 66.9492 443.381C66.6059 443.106 66.3222 442.764 66.1155 442.376C65.9087 441.987 65.7832 441.561 65.7466 441.123C65.71 440.685 65.763 440.243 65.9025 439.826C72.7456 419.366 107.03 316.82 109.961 307.382C113.464 296.104 139.61 291.66 141.863 291.298L143.157 290.005L143.406 290.34C154.946 305.864 160.53 326.424 159.13 348.234L159.129 348.242L150.271 449.258C150.2 450.065 149.83 450.815 149.234 451.363C148.637 451.911 147.857 452.216 147.047 452.218Z" fill="#151515"/>
<path d="M110.198 223.68C119.979 223.68 127.909 215.756 127.909 205.982C127.909 196.207 119.979 188.283 110.198 188.283C100.416 188.283 92.4863 196.207 92.4863 205.982C92.4863 215.756 100.416 223.68 110.198 223.68Z" fill="#A0616A"/>
<path d="M111.101 304.67L100.592 249.932C99.7128 245.308 100.625 240.523 103.144 236.546C105.663 232.569 109.601 229.698 114.159 228.513C116.977 227.781 119.94 227.831 122.731 228.656C125.523 229.482 128.036 231.052 130 233.198C135.365 239.05 142.179 247.566 144.178 254.906C145.87 261.136 150.632 284.483 150.68 284.718L150.718 284.903L150.587 285.04C150.561 285.066 148.01 287.701 144.038 290.99C141.708 292.92 139.326 294.712 136.958 296.315C130.311 300.801 112.224 304.446 111.458 304.599L111.101 304.67Z" fill="#006BD6"/>
<path opacity="0.2" d="M136.757 296.017C139.396 294.23 141.79 292.385 143.809 290.713C143.081 279.947 127.209 257.407 120.777 257.407C120.777 257.407 119.255 292.147 136.757 296.017Z" fill="black"/>
<path d="M169.425 324.291C168.428 323.93 167.523 323.355 166.773 322.606C166.023 321.858 165.446 320.954 165.083 319.959C164.721 318.963 164.581 317.901 164.673 316.845C164.766 315.79 165.089 314.768 165.62 313.851L148.775 294.363L162.054 292.636L176.014 311.407C177.497 312.4 178.563 313.902 179.011 315.628C179.46 317.354 179.259 319.185 178.447 320.773C177.634 322.362 176.267 323.597 174.605 324.245C172.942 324.893 171.099 324.91 169.425 324.291Z" fill="#A0616A"/>
<path d="M122.332 229.682C123.066 229.697 123.797 229.781 124.515 229.932C125.968 230.264 127.317 230.951 128.439 231.932C129.561 232.913 130.423 234.157 130.946 235.552L151.77 279.025L174.124 302.805L162.947 311.812L127.612 280.106L113.496 241.711C113.045 240.325 112.931 238.851 113.163 237.412C113.394 235.972 113.966 234.609 114.829 233.434C115.692 232.258 116.823 231.305 118.128 230.653C119.432 230.001 120.874 229.668 122.332 229.682Z" fill="#006BD6"/>
<path d="M109.149 223.517C106.629 219.747 104.639 214.519 107.415 210.931C110.154 207.39 115.557 207.912 119.753 206.345C125.597 204.163 128.986 197.302 127.929 191.158C126.872 185.014 121.937 179.921 116.057 177.837C110.177 175.753 103.547 176.43 97.7888 178.83C90.7008 181.785 84.6205 187.499 82.0708 194.738C79.5212 201.977 80.8841 210.669 86.1734 216.234C91.8441 222.199 100.744 223.789 108.977 223.692" fill="#151515"/>
<path d="M81.3376 202.649C80.616 206.678 76.1932 208.966 72.1284 209.469C68.0636 209.972 63.8588 209.327 59.9017 210.384C52.9256 212.246 48.3244 218.95 45.7919 225.707C43.2593 232.465 42.1362 239.758 38.8457 246.181C35.5553 252.604 29.1752 258.266 21.9795 257.665C23.3892 261.212 25.8595 264.237 29.0534 266.329C32.2473 268.421 36.0093 269.477 39.826 269.353C43.6427 269.23 47.3283 267.932 50.3799 265.638C53.4315 263.344 55.7005 260.165 56.8773 256.534C59.5207 248.38 56.4863 238.654 61.1091 231.434C63.6671 227.438 68.0844 225.087 72.3436 222.993C76.6028 220.899 81.0731 218.749 83.9287 214.96C86.7843 211.171 87.3549 205.187 83.8359 202.003" fill="#151515"/>
<path d="M0.859064 468H231.827C232.054 467.999 232.272 467.909 232.433 467.748C232.593 467.587 232.683 467.369 232.683 467.142C232.683 466.915 232.593 466.697 232.433 466.536C232.272 466.375 232.054 466.285 231.827 466.284H0.859064C0.631775 466.285 0.414026 466.375 0.253541 466.536C0.093056 466.697 0.00292969 466.915 0.00292969 467.142C0.00292969 467.369 0.093056 467.587 0.253541 467.748C0.414026 467.909 0.631775 467.999 0.859064 468Z" fill="#3F3D56"/>
<path d="M190.409 182.447C195.985 182.447 200.505 177.931 200.505 172.359C200.505 166.787 195.985 162.271 190.409 162.271C184.833 162.271 180.313 166.787 180.313 172.359C180.313 177.931 184.833 182.447 190.409 182.447Z" fill="#F0F0F0"/>
<path d="M511.305 93.8139C516.88 93.8139 521.4 89.2972 521.4 83.7256C521.4 78.1539 516.88 73.6372 511.305 73.6372C505.729 73.6372 501.209 78.1539 501.209 83.7256C501.209 89.2972 505.729 93.8139 511.305 93.8139Z" fill="#F0F0F0"/>
<path d="M400.974 366.2C406.55 366.2 411.07 361.683 411.07 356.111C411.07 350.54 406.55 346.023 400.974 346.023C395.399 346.023 390.879 350.54 390.879 356.111C390.879 361.683 395.399 366.2 400.974 366.2Z" fill="#F0F0F0"/>
</g>
<defs>
<clipPath id="clip0_43_383">
<rect width="616" height="468" fill="white"/>
</clipPath>
</defs>
</svg>
