<svg width="869" height="240" viewBox="0 0 869 240" fill="none" xmlns="http://www.w3.org/2000/svg">
<path d="M64.5 211.5H102C112.8 211.5 122 209.9 129.6 206.7C137.2 203.3 143.6 198.3 148.8 191.7C154.2 184.9 158.3 176.2 161.1 165.6C163.9 155 165.3 142.4 165.3 127.8C165.3 99.4 159.8 77.7 148.8 62.7C143.4 55.3 136.6 49.8 128.4 46.2C120.4 42.4 110.6 40.5 99 40.5H64.5V211.5ZM0.299988 18H110.1C139.9 18 163.1 26.4 179.7 43.2C189.1 52.8 196.3 64.6 201.3 78.6C206.3 92.6 208.8 107.6 208.8 123.6C208.8 140.4 206.1 156.2 200.7 171C195.5 185.6 188.2 197.9 178.8 207.9C162.2 225.3 138.4 234 107.4 234H0.299988V216.6L25.5 210.3V41.7L0.299988 35.4V18ZM391.889 153C391.889 165.8 389.989 177.9 386.189 189.3C382.589 200.5 377.289 209.9 370.289 217.5C363.689 224.5 355.689 229.5 346.289 232.5C337.089 235.5 326.289 237 313.889 237C301.489 237 290.589 235.5 281.189 232.5C271.989 229.5 264.089 224.5 257.489 217.5C250.489 209.9 245.089 200.5 241.289 189.3C237.689 177.9 235.889 165.8 235.889 153C235.889 140.2 237.689 128.1 241.289 116.7C245.089 105.3 250.489 95.9 257.489 88.5C264.089 81.5 271.989 76.5 281.189 73.5C290.589 70.5 301.489 69 313.889 69C326.289 69 337.089 70.5 346.289 73.5C355.689 76.5 363.689 81.5 370.289 88.5C377.289 95.9 382.589 105.3 386.189 116.7C389.989 128.1 391.889 140.2 391.889 153ZM286.589 204.9C289.389 208.9 292.989 211.9 297.389 213.9C301.989 215.9 307.489 216.9 313.889 216.9C320.289 216.9 325.789 215.9 330.389 213.9C334.989 211.9 338.589 208.9 341.189 204.9C347.589 195.1 350.789 177.8 350.789 153C350.789 140.4 349.989 129.8 348.389 121.2C346.789 112.6 344.389 105.9 341.189 101.1C338.589 97.1 334.989 94.1 330.389 92.1C325.789 90.1 320.289 89.1 313.889 89.1C307.489 89.1 301.989 90.1 297.389 92.1C292.989 94.1 289.389 97.1 286.589 101.1C280.189 110.9 276.989 128.2 276.989 153C276.989 177.8 280.189 195.1 286.589 204.9ZM435.614 211.2V22.8L412.514 17.1V0H473.714V211.2L496.814 216.9V234H412.514V216.9L435.614 211.2ZM508.266 91.5V76.2L537.666 72L541.266 34.8L575.466 30V72H613.866V91.5H575.466V189.6C575.466 196.4 575.566 201.1 575.766 203.7C575.966 206.1 576.366 208.1 576.966 209.7C577.566 210.9 578.666 211.8 580.266 212.4C581.866 213 584.466 213.3 588.066 213.3H609.066V226.5C597.466 230.1 587.166 232.7 578.166 234.3C569.366 236.1 562.366 237 557.166 237C548.166 237 542.366 233.3 539.766 225.9C538.966 223.5 538.366 220.4 537.966 216.6C537.566 212.8 537.366 207.2 537.366 199.8V91.5H508.266Z" fill="#00429A"/>
<path d="M857.5 170V67.5C857.5 48.17 841.83 32.5 822.5 32.5H679C677.895 32.5 677 33.395 677 34.5V228.5C677 229.605 677.895 230.5 679 230.5H772M795.5 209.5L817.07 232.478C817.85 233.308 819.16 233.321 819.96 232.507L862 189.5M732 179.5H800M732 132H800M732 85.5H800" stroke="#006BD6" stroke-width="13" stroke-linecap="round" stroke-linejoin="round"/>
</svg>
