<svg width="61" height="61" viewBox="0 0 61 61" fill="none" xmlns="http://www.w3.org/2000/svg">
<mask id="path-1-inside-1_23_537" fill="white">
<path d="M45.667 55.5C45.667 58.2614 43.4284 60.5 40.667 60.5H5.66699C2.90557 60.5 0.666992 58.2614 0.666992 55.5V20.5C0.666992 17.7386 2.90557 15.5 5.66699 15.5H15.667V20.5H7.66699C6.56242 20.5 5.66699 21.3954 5.66699 22.5V53.5C5.66699 54.6046 6.56242 55.5 7.66699 55.5H38.667C39.7716 55.5 40.667 54.6046 40.667 53.5V45.5H20.667C17.9056 45.5 15.667 43.2614 15.667 40.5V5.5C15.667 2.73858 17.9056 0.5 20.667 0.5H55.667C58.4284 0.5 60.667 2.73858 60.667 5.5V40.5C60.667 43.2614 58.4284 45.5 55.667 45.5H45.667V55.5ZM20.667 38.5C20.667 39.6046 21.5624 40.5 22.667 40.5H53.667C54.7716 40.5 55.667 39.6046 55.667 38.5V7.5C55.667 6.39543 54.7716 5.5 53.667 5.5H22.667C21.5624 5.5 20.667 6.39543 20.667 7.5V38.5ZM40.667 33H35.667V25.5H28.167V20.5H35.667V13H40.667V20.5H48.167V25.5H40.667V33Z"/>
</mask>
<path d="M15.667 15.5H24.0003V7.16667H15.667V15.5ZM15.667 20.5V28.8333H24.0003V20.5H15.667ZM40.667 45.5H49.0003V37.1667H40.667V45.5ZM45.667 45.5V37.1667H37.3337V45.5H45.667ZM40.667 33V41.3333H49.0003V33H40.667ZM35.667 33H27.3337V41.3333H35.667V33ZM35.667 25.5H44.0003V17.1667H35.667V25.5ZM28.167 25.5H19.8337V33.8333H28.167V25.5ZM28.167 20.5V12.1667H19.8337V20.5H28.167ZM35.667 20.5V28.8333H44.0003V20.5H35.667ZM35.667 13V4.66667H27.3337V13H35.667ZM40.667 13H49.0003V4.66667H40.667V13ZM40.667 20.5H32.3337V28.8333H40.667V20.5ZM48.167 20.5H56.5003V12.1667H48.167V20.5ZM48.167 25.5V33.8333H56.5003V25.5H48.167ZM40.667 25.5V17.1667H32.3337V25.5H40.667ZM40.667 52.1667H5.66699V68.8333H40.667V52.1667ZM9.00033 55.5V20.5H-7.66634V55.5H9.00033ZM5.66699 23.8333H15.667V7.16667H5.66699V23.8333ZM7.33366 15.5V20.5H24.0003V15.5H7.33366ZM15.667 12.1667H7.66699V28.8333H15.667V12.1667ZM-2.66634 22.5V53.5H14.0003V22.5H-2.66634ZM7.66699 63.8333H38.667V47.1667H7.66699V63.8333ZM49.0003 53.5V45.5H32.3337V53.5H49.0003ZM40.667 37.1667H20.667V53.8333H40.667V37.1667ZM24.0003 40.5V5.5H7.33366V40.5H24.0003ZM20.667 8.83333H55.667V-7.83333H20.667V8.83333ZM52.3337 5.5V40.5H69.0003V5.5H52.3337ZM55.667 37.1667H45.667V53.8333H55.667V37.1667ZM37.3337 45.5V55.5H54.0003V45.5H37.3337ZM22.667 48.8333H53.667V32.1667H22.667V48.8333ZM64.0003 38.5V7.5H47.3337V38.5H64.0003ZM53.667 -2.83333H22.667V13.8333H53.667V-2.83333ZM12.3337 7.5V38.5H29.0003V7.5H12.3337ZM40.667 24.6667H35.667V41.3333H40.667V24.6667ZM44.0003 33V25.5H27.3337V33H44.0003ZM35.667 17.1667H28.167V33.8333H35.667V17.1667ZM36.5003 25.5V20.5H19.8337V25.5H36.5003ZM28.167 28.8333H35.667V12.1667H28.167V28.8333ZM44.0003 20.5V13H27.3337V20.5H44.0003ZM35.667 21.3333H40.667V4.66667H35.667V21.3333ZM32.3337 13V20.5H49.0003V13H32.3337ZM40.667 28.8333H48.167V12.1667H40.667V28.8333ZM39.8337 20.5V25.5H56.5003V20.5H39.8337ZM48.167 17.1667H40.667V33.8333H48.167V17.1667ZM32.3337 25.5V33H49.0003V25.5H32.3337ZM22.667 -2.83333C16.96 -2.83333 12.3337 1.79306 12.3337 7.5H29.0003C29.0003 10.9978 26.1648 13.8333 22.667 13.8333V-2.83333ZM64.0003 7.5C64.0003 1.79306 59.3739 -2.83333 53.667 -2.83333V13.8333C50.1692 13.8333 47.3337 10.9978 47.3337 7.5H64.0003ZM53.667 48.8333C59.3739 48.8333 64.0003 44.2069 64.0003 38.5H47.3337C47.3337 35.0022 50.1692 32.1667 53.667 32.1667V48.8333ZM22.667 32.1667C26.1648 32.1667 29.0003 35.0022 29.0003 38.5H12.3337C12.3337 44.2069 16.9601 48.8333 22.667 48.8333V32.1667ZM24.0003 5.5C24.0003 7.34095 22.5079 8.83333 20.667 8.83333V-7.83333C13.3032 -7.83333 7.33366 -1.8638 7.33366 5.5H24.0003ZM20.667 37.1667C22.5079 37.1667 24.0003 38.6591 24.0003 40.5H7.33366C7.33366 47.8638 13.3032 53.8333 20.667 53.8333V37.1667ZM38.667 63.8333C44.3739 63.8333 49.0003 59.2069 49.0003 53.5H32.3337C32.3337 50.0022 35.1692 47.1667 38.667 47.1667V63.8333ZM9.00033 20.5C9.00033 22.341 7.50794 23.8333 5.66699 23.8333V7.16667C-1.6968 7.16667 -7.66634 13.1362 -7.66634 20.5H9.00033ZM-2.66634 53.5C-2.66634 59.2069 1.96005 63.8333 7.66699 63.8333V47.1667C11.1648 47.1667 14.0003 50.0022 14.0003 53.5H-2.66634ZM52.3337 40.5C52.3337 38.6591 53.826 37.1667 55.667 37.1667V53.8333C63.0308 53.8333 69.0003 47.8638 69.0003 40.5H52.3337ZM5.66699 52.1667C7.50794 52.1667 9.00033 53.6591 9.00033 55.5H-7.66634C-7.66634 62.8638 -1.69681 68.8333 5.66699 68.8333V52.1667ZM7.66699 12.1667C1.96005 12.1667 -2.66634 16.7931 -2.66634 22.5H14.0003C14.0003 25.9978 11.1648 28.8333 7.66699 28.8333V12.1667ZM55.667 8.83333C53.826 8.83333 52.3337 7.34095 52.3337 5.5H69.0003C69.0003 -1.8638 63.0308 -7.83333 55.667 -7.83333V8.83333ZM40.667 68.8333C48.0308 68.8333 54.0003 62.8638 54.0003 55.5H37.3337C37.3337 53.6591 38.826 52.1667 40.667 52.1667V68.8333Z" fill="#006BD6" mask="url(#path-1-inside-1_23_537)"/>
</svg>
