<svg width="675" height="592" viewBox="0 0 675 592" fill="none" xmlns="http://www.w3.org/2000/svg">
<g clip-path="url(#clip0_39_312)">
<path d="M32.5614 201.958L0.0233438 183.632C-0.415559 164.024 3.93853 144.606 12.7075 127.062C20.2093 161.111 59.6887 177.311 77.904 207.04C83.5142 216.355 86.9561 226.814 87.9747 237.641C88.9933 248.468 87.5625 259.385 83.7883 269.584L85.9283 295.983C69.1115 290.946 53.5866 282.323 40.4232 270.708C27.2597 259.094 16.7708 244.763 9.67892 228.705C5.78967 219.656 3.05535 210.154 1.54049 200.423C16.7111 202.037 32.5614 201.958 32.5614 201.958Z" fill="#F0F0F0"/>
<path d="M617.487 535.371L618.484 512.937C628.885 507.377 640.486 504.44 652.28 504.382C636.049 517.652 638.077 543.233 627.072 561.078C623.598 566.618 618.921 571.305 613.388 574.791C607.856 578.277 601.61 580.474 595.113 581.218L581.53 589.535C579.666 579.144 580.077 568.473 582.735 558.257C585.392 548.04 590.233 538.522 596.923 530.356C600.722 525.812 605.077 521.765 609.887 518.31C613.141 526.888 617.487 535.371 617.487 535.371Z" fill="#F0F0F0"/>
<path d="M582.489 577.99L570.189 577.989L564.338 530.549L582.491 530.55L582.489 577.99Z" fill="#FFB6B6"/>
<path d="M585.626 589.912L545.968 589.91V589.409C545.968 585.315 547.594 581.389 550.489 578.494C553.384 575.6 557.31 573.973 561.404 573.973L568.649 568.477L582.165 573.974L585.627 573.974L585.626 589.912Z" fill="#151515"/>
<path d="M525.348 577.99L513.049 577.989L507.198 530.549L525.351 530.55L525.348 577.99Z" fill="#FFB6B6"/>
<path d="M528.485 589.912L488.827 589.91V589.409C488.827 585.315 490.454 581.389 493.349 578.494C496.243 575.6 500.169 573.973 504.263 573.973L511.508 568.477L525.024 573.974L528.486 573.974L528.485 589.912Z" fill="#151515"/>
<path d="M520.024 318.631L600.024 320.631C615.218 328.883 615.449 346.745 610.47 367.951C610.47 367.951 612.151 380.556 608.79 383.917C605.429 387.278 603.748 387.278 605.429 393.16C607.109 399.042 598.23 408.649 599.308 409.728C600.387 410.806 602.908 416.688 602.908 416.688L594.505 464.585C594.505 464.585 588.623 547.775 586.942 549.456C585.261 551.136 583.581 549.455 585.261 553.657C586.942 557.858 588.623 556.178 586.942 557.858C585.453 559.464 584.051 561.147 582.74 562.9H562.424C562.424 562.9 560.893 554.497 560.893 553.657C560.893 552.817 559.212 547.775 559.212 546.935C559.212 546.094 560.698 544.609 560.698 544.609C561.211 542.901 561.558 541.147 561.733 539.372C561.733 537.691 566.775 472.988 566.775 472.988L556.691 388.959L532.323 471.308C532.323 471.308 532.323 543.573 530.642 545.254C528.961 546.935 528.961 546.094 529.802 549.456C530.642 552.817 534.003 551.976 531.482 554.497C528.961 557.018 528.121 552.817 528.961 557.018L529.802 561.22L504.593 561.58C504.593 561.58 501.232 554.497 502.912 551.976C504.593 549.456 504.492 550.144 502.442 546.018C500.391 541.893 499.551 541.053 500.391 540.212C501.232 539.372 501.232 534.902 501.232 534.902L505.433 454.502C505.433 454.502 506.273 369.632 506.273 367.111C506.337 365.814 506.098 364.52 505.575 363.331V359.909L508.794 347.784L520.024 318.631Z" fill="#151515"/>
<path d="M568.082 152.284C581.81 152.284 592.938 141.155 592.938 127.427C592.938 113.699 581.81 102.571 568.082 102.571C554.354 102.571 543.226 113.699 543.226 127.427C543.226 141.155 554.354 152.284 568.082 152.284Z" fill="#FFB6B6"/>
<path d="M555.654 168.712C550.299 171.895 547.095 177.745 545.257 183.697C541.852 194.717 539.803 206.11 539.154 217.626L537.212 252.101L513.157 325.509C534.005 343.149 612.367 329.518 612.367 329.518C612.367 329.518 614.772 328.716 612.367 326.311C609.961 323.905 607.619 326.036 610.025 323.631C612.43 321.225 610.772 323.905 609.97 321.5C609.168 319.094 609.97 320.698 610.772 319.896C611.574 319.094 604.565 311.878 604.565 311.878L610.979 269.741L618.998 184.748C609.376 172.721 590.025 165.631 590.025 165.631L585.025 156.631L560.025 158.631L555.654 168.712Z" fill="#E6E6E6"/>
<path d="M552.245 112.839C553.207 112.847 554.164 112.972 555.095 113.213C556.931 113.655 558.795 113.967 560.674 114.149C566.428 114.69 571.835 117.144 576.031 121.119C580.227 125.094 582.97 130.36 583.822 136.077C585.266 134.817 588.553 132.501 591.247 134.654C591.288 134.688 591.312 134.705 591.406 134.661C593.195 133.812 596.371 123.366 596.467 114.168C596.518 109.286 595.75 103.052 591.801 101.078L591.593 100.974L591.539 100.748C591.275 99.6498 588.328 97.7753 583.206 96.3163C573.897 93.6649 560.022 88.5 552.208 96.1011C551.617 98.6636 549.693 104.147 547.75 104.769C545.598 105.457 543.739 106.051 543.446 108.69C543.202 112.447 543.22 116.216 543.5 119.97C544.229 117.673 545.66 115.662 547.592 114.221C548.966 113.296 550.589 112.814 552.245 112.839Z" fill="#151515"/>
<path d="M505.979 250.182L546.582 224.179L526.132 196.993L505.938 221.833L443.02 225.692C441.365 224.056 439.27 222.937 436.99 222.472C434.71 222.006 432.344 222.214 430.18 223.069C428.016 223.925 426.148 225.392 424.803 227.291C423.459 229.19 422.696 231.44 422.607 233.765C422.519 236.09 423.109 238.391 424.306 240.387C425.502 242.382 427.254 243.987 429.347 245.004C431.439 246.022 433.783 246.408 436.092 246.117C438.4 245.825 440.574 244.869 442.348 243.363L505.979 250.182Z" fill="#FFB6B6"/>
<path d="M584.268 187.883C586.624 202.145 542.122 229.379 542.122 229.379C542.121 226.031 515.56 251.302 514.361 248.526C510.954 240.636 508.558 221.947 503.797 218.956C501.074 217.245 520.196 201.175 520.196 201.175C520.196 201.175 530.206 191.091 543.341 178.372C546.988 174.707 551.503 172.025 556.465 170.574C561.428 169.124 566.676 168.952 571.723 170.076C571.723 170.076 581.911 173.622 584.268 187.883Z" fill="#E6E6E6"/>
<path d="M667.957 257.008L641.1 216.964L614.354 237.986L639.616 257.649L644.806 320.472C643.205 322.161 642.131 324.279 641.714 326.568C641.296 328.858 641.554 331.219 642.455 333.364C643.357 335.509 644.863 337.346 646.79 338.65C648.717 339.954 650.982 340.669 653.309 340.709C655.636 340.748 657.923 340.109 659.893 338.87C661.863 337.632 663.43 335.846 664.403 333.733C665.376 331.619 665.713 329.268 665.373 326.966C665.032 324.664 664.03 322.511 662.487 320.769L667.957 257.008Z" fill="#FFB6B6"/>
<path d="M604.015 180.056C618.224 177.398 646.393 221.313 646.393 221.313C643.047 221.385 668.874 247.405 666.124 248.662C658.308 252.236 639.674 255.027 636.784 259.851C635.132 262.609 618.66 243.832 618.66 243.832C618.66 243.832 608.367 234.038 595.372 221.175C591.631 217.606 588.854 213.149 587.298 208.219C585.743 203.288 585.461 198.044 586.477 192.975C586.477 192.975 589.806 182.714 604.015 180.056Z" fill="#E6E6E6"/>
<path d="M674.818 590.109C674.819 590.266 674.788 590.421 674.729 590.565C674.669 590.71 674.582 590.841 674.471 590.952C674.36 591.063 674.229 591.15 674.084 591.21C673.94 591.269 673.785 591.3 673.628 591.299H393.338C393.023 591.299 392.72 591.174 392.497 590.951C392.274 590.728 392.148 590.425 392.148 590.109C392.148 589.794 392.274 589.491 392.497 589.268C392.72 589.045 393.023 588.919 393.338 588.919H673.628C673.785 588.919 673.94 588.949 674.084 589.009C674.229 589.069 674.36 589.156 674.471 589.267C674.582 589.378 674.669 589.509 674.729 589.654C674.788 589.798 674.819 589.953 674.818 590.109Z" fill="#AAAAAA"/>
<path d="M415.162 229.493H74.9921C69.6774 229.499 64.5822 231.613 60.8242 235.371C57.0662 239.129 54.9523 244.224 54.9463 249.538V461.327C54.9523 466.641 57.0662 471.736 60.8242 475.494C64.5822 479.252 69.6774 481.366 74.9921 481.372H415.162C420.477 481.367 425.572 479.253 429.33 475.495C433.088 471.737 435.202 466.641 435.208 461.327V249.538C435.202 244.224 433.088 239.129 429.33 235.371C425.572 231.612 420.477 229.499 415.162 229.493Z" fill="#006BD6"/>
<path d="M415.162 229.493H74.9921C69.6774 229.499 64.5822 231.613 60.8242 235.371C57.0662 239.129 54.9523 244.224 54.9463 249.538V461.327C54.9523 466.641 57.0662 471.736 60.8242 475.494C64.5822 479.252 69.6774 481.366 74.9921 481.372H415.162C420.477 481.367 425.572 479.253 429.33 475.495C433.088 471.737 435.202 466.641 435.208 461.327V249.538C435.202 244.224 433.088 239.129 429.33 235.371C425.572 231.612 420.477 229.499 415.162 229.493ZM421.741 381.623C421.659 403.184 413.131 423.855 397.984 439.2C382.838 454.546 362.28 463.344 340.722 463.707C306.206 464.156 359.82 464.331 318.19 464.331C222.998 464.331 123.738 463.421 86.7032 462.832C81.8306 462.731 77.1903 460.73 73.773 457.255C70.3558 453.78 68.4325 449.107 68.4136 444.233V249.554C68.4156 247.809 69.1086 246.135 70.3412 244.9C71.5737 243.664 73.2454 242.967 74.9907 242.961H415.148C416.893 242.963 418.566 243.656 419.802 244.888C421.037 246.12 421.734 247.792 421.741 249.537V381.623Z" fill="#00429A"/>
<path d="M373.287 107.539H114.114C111.82 107.542 109.584 108.253 107.71 109.574C105.836 110.896 104.416 112.764 103.643 114.922L63.6149 227.222C63.0175 228.898 62.8312 230.693 63.0717 232.457C63.3122 234.22 63.9724 235.899 64.9969 237.354C66.0214 238.809 67.3802 239.997 68.9591 240.818C70.538 241.639 72.2908 242.068 74.0703 242.071L421.665 242.688H421.68C423.52 242.688 425.331 242.231 426.95 241.359C428.57 240.487 429.948 239.226 430.96 237.691C431.973 236.155 432.589 234.392 432.752 232.56C432.916 230.728 432.622 228.883 431.898 227.193L383.505 114.276C382.649 112.275 381.225 110.57 379.408 109.372C377.592 108.175 375.463 107.537 373.287 107.539Z" fill="#00429A"/>
<path d="M432.798 229.631C432.797 231.137 432.491 232.627 431.898 234.011L383.508 320.931C382.646 322.927 381.22 324.628 379.404 325.824C377.588 327.02 375.462 327.658 373.288 327.661H114.118C111.824 327.659 109.586 326.949 107.711 325.628C105.835 324.307 104.413 322.44 103.638 320.281L63.6177 233.981C63.1272 232.606 62.9124 231.148 62.9857 229.69C63.059 228.232 63.4189 226.803 64.0448 225.484C64.6708 224.166 65.5505 222.983 66.6337 222.005C67.7169 221.026 68.9823 220.27 70.3577 219.781C71.5475 219.352 72.8028 219.132 74.0677 219.131L116.528 219.051L133.858 219.021L361.898 218.621L379.238 218.591L421.668 218.511H421.678C424.627 218.512 427.455 219.683 429.54 221.769C431.625 223.854 432.797 226.682 432.798 229.631Z" fill="#00429A"/>
<path d="M100.493 388.358C105.632 388.358 176.207 392.672 176.207 397.811C176.207 402.95 105.632 406.97 100.493 406.97C98.0251 406.97 95.6582 405.989 93.913 404.244C92.1679 402.499 91.1875 400.132 91.1875 397.664C91.1875 395.196 92.1679 392.829 93.913 391.084C95.6582 389.339 98.0251 388.358 100.493 388.358Z" fill="#00429A"/>
<path d="M357.147 39.2212H138.617C132.761 39.228 127.146 41.5575 123.005 45.6987C118.864 49.8399 116.534 55.4546 116.527 61.3112V327.661H373.287C375.396 327.668 377.461 327.067 379.237 325.931V61.3112C379.231 55.4546 376.901 49.8399 372.76 45.6987C368.619 41.5575 363.004 39.228 357.147 39.2212Z" fill="#E6E6E6"/>
<path d="M273.737 57.1313H153.977C148.645 57.1365 143.532 59.2566 139.76 63.0266C135.988 66.7965 133.865 71.9086 133.857 77.2414V327.661H361.897V145.291C361.87 121.918 352.574 99.51 336.046 82.9826C319.519 66.4552 297.111 57.1583 273.737 57.1313Z" fill="white"/>
<path d="M323.048 305.421H172.708C171.408 305.421 170.162 305.937 169.243 306.856C168.324 307.775 167.808 309.022 167.808 310.321C167.808 311.621 168.324 312.867 169.243 313.786C170.162 314.705 171.408 315.221 172.708 315.221H323.048C324.347 315.221 325.593 314.705 326.512 313.786C327.431 312.867 327.948 311.621 327.948 310.321C327.948 309.022 327.431 307.775 326.512 306.856C325.593 305.937 324.347 305.421 323.048 305.421Z" fill="#F0F0F0"/>
<path d="M323.048 286.041H172.708C171.407 286.041 170.159 286.558 169.239 287.478C168.32 288.398 167.803 289.645 167.803 290.946C167.803 292.247 168.32 293.495 169.239 294.415C170.159 295.334 171.407 295.851 172.708 295.851H323.048C324.349 295.851 325.596 295.334 326.516 294.415C327.436 293.495 327.953 292.247 327.953 290.946C327.953 289.645 327.436 288.398 326.516 287.478C325.596 286.558 324.349 286.041 323.048 286.041Z" fill="#F0F0F0"/>
<path d="M237.878 266.671H172.708C171.408 266.671 170.162 267.187 169.243 268.106C168.324 269.025 167.808 270.272 167.808 271.571C167.808 272.871 168.324 274.117 169.243 275.036C170.162 275.955 171.408 276.471 172.708 276.471H237.878C239.177 276.471 240.424 275.955 241.342 275.036C242.261 274.117 242.778 272.871 242.778 271.571C242.778 270.272 242.261 269.025 241.342 268.106C240.424 267.187 239.177 266.671 237.878 266.671Z" fill="#F0F0F0"/>
<path d="M323.048 226.091H172.708C171.407 226.091 170.159 226.608 169.239 227.528C168.32 228.448 167.803 229.695 167.803 230.996C167.803 232.297 168.32 233.545 169.239 234.465C170.159 235.385 171.407 235.901 172.708 235.901H323.048C324.349 235.901 325.596 235.385 326.516 234.465C327.436 233.545 327.953 232.297 327.953 230.996C327.953 229.695 327.436 228.448 326.516 227.528C325.596 226.608 324.349 226.091 323.048 226.091Z" fill="#F0F0F0"/>
<path d="M323.048 206.721H172.708C171.408 206.721 170.162 207.237 169.243 208.156C168.324 209.075 167.808 210.322 167.808 211.621C167.808 212.921 168.324 214.167 169.243 215.086C170.162 216.005 171.408 216.521 172.708 216.521H323.048C324.347 216.521 325.593 216.005 326.512 215.086C327.431 214.167 327.948 212.921 327.948 211.621C327.948 210.322 327.431 209.075 326.512 208.156C325.593 207.237 324.347 206.721 323.048 206.721Z" fill="#F0F0F0"/>
<path d="M237.878 187.341H172.708C171.407 187.341 170.159 187.858 169.239 188.778C168.32 189.698 167.803 190.945 167.803 192.246C167.803 193.547 168.32 194.795 169.239 195.715C170.159 196.635 171.407 197.151 172.708 197.151H237.878C239.179 197.151 240.426 196.635 241.346 195.715C242.266 194.795 242.783 193.547 242.783 192.246C242.783 190.945 242.266 189.698 241.346 188.778C240.426 187.858 239.179 187.341 237.878 187.341Z" fill="#F0F0F0"/>
<path d="M323.048 146.761H172.708C171.407 146.761 170.159 147.278 169.239 148.198C168.32 149.118 167.803 150.365 167.803 151.666C167.803 152.967 168.32 154.215 169.239 155.135C170.159 156.054 171.407 156.571 172.708 156.571H323.048C324.349 156.571 325.596 156.054 326.516 155.135C327.436 154.215 327.953 152.967 327.953 151.666C327.953 150.365 327.436 149.118 326.516 148.198C325.596 147.278 324.349 146.761 323.048 146.761Z" fill="#006BD6"/>
<path d="M323.048 127.391H172.708C171.407 127.391 170.159 127.908 169.239 128.828C168.32 129.748 167.803 130.995 167.803 132.296C167.803 133.597 168.32 134.845 169.239 135.764C170.159 136.684 171.407 137.201 172.708 137.201H323.048C324.349 137.201 325.596 136.684 326.516 135.764C327.436 134.845 327.953 133.597 327.953 132.296C327.953 130.995 327.436 129.748 326.516 128.828C325.596 127.908 324.349 127.391 323.048 127.391Z" fill="#006BD6"/>
<path d="M237.878 108.011H172.708C171.407 108.011 170.159 108.528 169.239 109.448C168.32 110.368 167.803 111.615 167.803 112.916C167.803 114.217 168.32 115.465 169.239 116.385C170.159 117.304 171.407 117.821 172.708 117.821H237.878C239.179 117.821 240.426 117.304 241.346 116.385C242.266 115.465 242.783 114.217 242.783 112.916C242.783 111.615 242.266 110.368 241.346 109.448C240.426 108.528 239.179 108.011 237.878 108.011Z" fill="#006BD6"/>
<path d="M371.045 77.0263C392.121 77.0263 409.207 59.9403 409.207 38.8635C409.207 17.7868 392.121 0.700684 371.045 0.700684C349.968 0.700684 332.882 17.7868 332.882 38.8635C332.882 59.9403 349.968 77.0263 371.045 77.0263Z" fill="#006BD6"/>
<path d="M365.839 58.7256C365.18 58.7256 364.53 58.5721 363.94 58.2774C363.351 57.9826 362.838 57.5545 362.443 57.0272L352.032 43.1451C351.695 42.6993 351.45 42.1915 351.311 41.6508C351.171 41.1101 351.139 40.5472 351.218 39.9942C351.296 39.4413 351.482 38.9092 351.767 38.4285C352.051 37.9478 352.427 37.5279 352.874 37.1929C353.321 36.8578 353.829 36.6142 354.37 36.476C354.911 36.3378 355.474 36.3077 356.027 36.3874C356.58 36.4672 357.111 36.6552 357.591 36.9407C358.071 37.2263 358.49 37.6037 358.824 38.0514L365.635 47.1327L383.13 20.8914C383.754 19.9546 384.725 19.3042 385.829 19.0834C386.933 18.8626 388.08 19.0894 389.017 19.714C389.954 20.3385 390.604 21.3096 390.825 22.4136C391.046 23.5176 390.819 24.6642 390.194 25.6009L369.371 56.8352C368.995 57.4001 368.488 57.8664 367.894 58.1951C367.3 58.5238 366.636 58.7052 365.957 58.7243C365.918 58.7249 365.878 58.7256 365.839 58.7256Z" fill="white"/>
</g>
<defs>
<clipPath id="clip0_39_312">
<rect width="674.818" height="590.599" fill="white" transform="translate(0 0.700684)"/>
</clipPath>
</defs>
</svg>
