<svg width="462" height="400" viewBox="0 0 462 400" fill="none" xmlns="http://www.w3.org/2000/svg">
<g clip-path="url(#clip0_59_804)">
<path d="M427.268 370.718L439.683 366.78C441.23 360.117 441.127 353.177 439.384 346.563C434.396 357.653 419.764 360.37 411.427 369.221C408.848 372.002 406.927 375.327 405.808 378.95C404.689 382.574 404.399 386.403 404.961 390.154L402.349 399.014C408.449 398.493 414.364 396.655 419.685 393.628C425.007 390.601 429.609 386.456 433.174 381.479C435.147 378.667 436.758 375.618 437.968 372.404C432.674 371.874 427.268 370.718 427.268 370.718Z" fill="#F2F2F2"/>
<path d="M414.003 354.334L423.358 345.273C421.771 338.62 418.585 332.454 414.074 327.312C414.556 339.462 402.671 348.419 399.157 360.06C398.088 363.699 397.852 367.531 398.467 371.274C399.081 375.016 400.529 378.572 402.705 381.679L404.319 390.774C409.546 387.587 414.02 383.305 417.433 378.222C420.846 373.139 423.117 367.377 424.088 361.332C424.6 357.936 424.682 354.488 424.332 351.071C419.357 352.958 414.003 354.334 414.003 354.334Z" fill="#F2F2F2"/>
<path d="M351.816 26.5587H1.93279C1.56887 26.5509 1.22246 26.401 0.967817 26.1409C0.71317 25.8808 0.570557 25.5313 0.570557 25.1673C0.570557 24.8033 0.71317 24.4538 0.967817 24.1937C1.22246 23.9336 1.56887 23.7836 1.93279 23.7759H351.816C352.18 23.7836 352.526 23.9336 352.781 24.1937C353.035 24.4538 353.178 24.8033 353.178 25.1673C353.178 25.5313 353.035 25.8808 352.781 26.1409C352.526 26.401 352.18 26.5509 351.816 26.5587Z" fill="#AAAAAA"/>
<path d="M25.7498 16.6718C30.2532 16.6718 33.9039 12.9397 33.9039 8.3359C33.9039 3.73211 30.2532 0 25.7498 0C21.2463 0 17.5956 3.73211 17.5956 8.3359C17.5956 12.9397 21.2463 16.6718 25.7498 16.6718Z" fill="#AAAAAA"/>
<path d="M53.9188 16.6718C58.4223 16.6718 62.073 12.9397 62.073 8.3359C62.073 3.73211 58.4223 0 53.9188 0C49.4154 0 45.7646 3.73211 45.7646 8.3359C45.7646 12.9397 49.4154 16.6718 53.9188 16.6718Z" fill="#AAAAAA"/>
<path d="M82.0878 16.6718C86.5912 16.6718 90.242 12.9397 90.242 8.3359C90.242 3.73211 86.5912 0 82.0878 0C77.5843 0 73.9336 3.73211 73.9336 8.3359C73.9336 12.9397 77.5843 16.6718 82.0878 16.6718Z" fill="#AAAAAA"/>
<path d="M334.856 2.06592H314.846C314.449 2.07382 314.072 2.23691 313.794 2.52019C313.516 2.80346 313.361 3.18433 313.361 3.58102C313.361 3.9777 313.516 4.35857 313.794 4.64184C314.072 4.92512 314.449 5.08822 314.846 5.09611H334.856C335.252 5.08822 335.63 4.92512 335.908 4.64184C336.185 4.35857 336.341 3.9777 336.341 3.58102C336.341 3.18433 336.185 2.80346 335.908 2.52019C335.63 2.23691 335.252 2.07382 334.856 2.06592Z" fill="#AAAAAA"/>
<path d="M334.856 7.75342H314.846C314.449 7.76127 314.072 7.92435 313.794 8.20763C313.516 8.49091 313.36 8.8718 313.36 9.26852C313.36 9.66523 313.516 10.0461 313.794 10.3294C314.072 10.6127 314.449 10.7758 314.846 10.7836H334.856C335.252 10.7758 335.63 10.6127 335.908 10.3294C336.186 10.0461 336.341 9.66523 336.341 9.26852C336.341 8.8718 336.186 8.49091 335.908 8.20763C335.63 7.92435 335.252 7.76127 334.856 7.75342Z" fill="#AAAAAA"/>
<path d="M334.856 13.4331H314.846C314.449 13.441 314.072 13.604 313.794 13.8873C313.516 14.1706 313.36 14.5515 313.36 14.9482C313.36 15.3449 313.516 15.7258 313.794 16.0091C314.072 16.2924 314.449 16.4555 314.846 16.4633H334.856C335.252 16.4555 335.63 16.2924 335.908 16.0091C336.186 15.7258 336.341 15.3449 336.341 14.9482C336.341 14.5515 336.186 14.1706 335.908 13.8873C335.63 13.604 335.252 13.441 334.856 13.4331Z" fill="#AAAAAA"/>
<path d="M27.6766 83.0893C33.2442 83.0893 37.7577 78.5759 37.7577 73.0083C37.7577 67.4407 33.2442 62.9272 27.6766 62.9272C22.109 62.9272 17.5956 67.4407 17.5956 73.0083C17.5956 78.5759 22.109 83.0893 27.6766 83.0893Z" fill="#E6E7E8"/>
<path d="M284.392 95.3315H20.5977C19.8016 95.3315 19.038 95.0152 18.4751 94.4523C17.9121 93.8893 17.5958 93.1257 17.5958 92.3296C17.5958 91.5334 17.9121 90.7699 18.4751 90.2069C19.038 89.6439 19.8016 89.3276 20.5977 89.3276H284.392C285.188 89.3276 285.952 89.6439 286.515 90.2069C287.078 90.7699 287.394 91.5334 287.394 92.3296C287.394 93.1257 287.078 93.8893 286.515 94.4523C285.952 95.0152 285.188 95.3315 284.392 95.3315Z" fill="#E6E7E8"/>
<path d="M215.207 107.194H20.5977C19.8015 107.194 19.0379 106.877 18.4749 106.314C17.9119 105.751 17.5956 104.988 17.5956 104.192C17.5956 103.395 17.9119 102.632 18.4749 102.069C19.0379 101.506 19.8015 101.189 20.5977 101.189H215.207C216.003 101.189 216.767 101.506 217.33 102.069C217.893 102.632 218.209 103.395 218.209 104.192C218.209 104.988 217.893 105.751 217.33 106.314C216.767 106.877 216.003 107.194 215.207 107.194Z" fill="#E6E7E8"/>
<path d="M27.6766 240.439C33.2442 240.439 37.7577 235.925 37.7577 230.358C37.7577 224.79 33.2442 220.277 27.6766 220.277C22.109 220.277 17.5956 224.79 17.5956 230.358C17.5956 235.925 22.109 240.439 27.6766 240.439Z" fill="#E6E7E8"/>
<path d="M284.392 252.681H20.5977C20.2031 252.681 19.8122 252.604 19.4474 252.454C19.0826 252.303 18.7512 252.082 18.4719 251.803C18.1926 251.524 17.9711 251.193 17.8199 250.829C17.6688 250.464 17.5909 250.073 17.5909 249.679C17.5909 249.284 17.6688 248.893 17.8199 248.529C17.9711 248.164 18.1926 247.833 18.4719 247.554C18.7512 247.275 19.0826 247.054 19.4474 246.904C19.8122 246.753 20.2031 246.676 20.5977 246.677H284.392C285.228 246.723 286.017 247.081 286.603 247.679C287.189 248.277 287.531 249.073 287.56 249.91C287.536 250.301 287.434 250.682 287.261 251.033C287.088 251.384 286.848 251.698 286.553 251.955C286.258 252.213 285.916 252.409 285.545 252.534C285.174 252.658 284.782 252.708 284.392 252.681Z" fill="#E6E7E8"/>
<path d="M215.207 264.543H20.5977C19.8015 264.543 19.0379 264.226 18.4749 263.663C17.9119 263.1 17.5956 262.337 17.5956 261.541C17.5956 260.744 17.9119 259.981 18.4749 259.418C19.0379 258.855 19.8015 258.539 20.5977 258.539H215.207C216.003 258.539 216.767 258.855 217.33 259.418C217.893 259.981 218.209 260.744 218.209 261.541C218.209 262.337 217.893 263.1 217.33 263.663C216.767 264.226 216.003 264.543 215.207 264.543Z" fill="#E6E7E8"/>
<path d="M27.6766 155.833C33.2442 155.833 37.7577 151.32 37.7577 145.752C37.7577 140.184 33.2442 135.671 27.6766 135.671C22.109 135.671 17.5956 140.184 17.5956 145.752C17.5956 151.32 22.109 155.833 27.6766 155.833Z" fill="#E6E7E8"/>
<path d="M284.392 168.075H20.5977C19.8016 168.075 19.038 167.759 18.4751 167.196C17.9121 166.633 17.5958 165.869 17.5958 165.073C17.5958 164.277 17.9121 163.514 18.4751 162.951C19.038 162.388 19.8016 162.071 20.5977 162.071H284.392C285.188 162.071 285.952 162.388 286.515 162.951C287.078 163.514 287.394 164.277 287.394 165.073C287.394 165.869 287.078 166.633 286.515 167.196C285.952 167.759 285.188 168.075 284.392 168.075Z" fill="#E6E7E8"/>
<path d="M247.657 179.937H20.5977C19.8015 179.937 19.0379 179.621 18.4749 179.058C17.9119 178.495 17.5956 177.731 17.5956 176.935C17.5956 176.139 17.9119 175.375 18.4749 174.812C19.0379 174.249 19.8015 173.933 20.5977 173.933H247.657C248.453 173.933 249.216 174.249 249.779 174.812C250.342 175.375 250.659 176.139 250.659 176.935C250.659 177.731 250.342 178.495 249.779 179.058C249.216 179.621 248.453 179.937 247.657 179.937Z" fill="#E6E7E8"/>
<path d="M232.245 191.799H20.5977C19.8015 191.799 19.0379 191.483 18.4749 190.92C17.9119 190.357 17.5956 189.593 17.5956 188.797C17.5956 188.001 17.9119 187.237 18.4749 186.674C19.0379 186.111 19.8015 185.795 20.5977 185.795H232.245C233.042 185.795 233.805 186.111 234.368 186.674C234.931 187.237 235.247 188.001 235.247 188.797C235.247 189.593 234.931 190.357 234.368 190.92C233.805 191.483 233.042 191.799 232.245 191.799Z" fill="#E6E7E8"/>
<path d="M236.625 324.514C277.856 324.514 311.28 291.09 311.28 249.859C311.28 208.628 277.856 175.204 236.625 175.204C195.394 175.204 161.969 208.628 161.969 249.859C161.969 291.09 195.394 324.514 236.625 324.514Z" fill="#006BD6"/>
<path d="M236.522 275.907C242.412 275.907 247.187 271.132 247.187 265.241C247.187 259.351 242.412 254.576 236.522 254.576C230.632 254.576 225.857 259.351 225.857 265.241C225.857 271.132 230.632 275.907 236.522 275.907Z" fill="#00429A"/>
<path d="M236.522 270.164C239.241 270.164 241.445 267.96 241.445 265.241C241.445 262.523 239.241 260.319 236.522 260.319C233.804 260.319 231.6 262.523 231.6 265.241C231.6 267.96 233.804 270.164 236.522 270.164Z" fill="#006BD6"/>
<path d="M256.32 288.982H216.93C213.03 288.978 209.291 287.427 206.533 284.669C203.775 281.911 202.223 278.172 202.219 274.271V256.211C202.223 252.311 203.775 248.572 206.533 245.814C209.29 243.056 213.03 241.504 216.93 241.5H256.32C260.22 241.505 263.959 243.056 266.717 245.814C269.475 248.572 271.026 252.311 271.031 256.211V274.271C271.026 278.172 269.475 281.911 266.717 284.669C263.959 287.426 260.22 288.978 256.32 288.982ZM216.93 243.04C213.438 243.044 210.09 244.433 207.621 246.902C205.152 249.372 203.763 252.719 203.759 256.211V274.271C203.763 277.763 205.152 281.111 207.621 283.58C210.09 286.049 213.438 287.438 216.93 287.442H256.32C259.812 287.438 263.159 286.049 265.629 283.58C268.098 281.111 269.487 277.763 269.49 274.271V256.211C269.487 252.72 268.098 249.372 265.629 246.903C263.159 244.433 259.812 243.044 256.32 243.04L216.93 243.04Z" fill="white"/>
<path d="M214.597 279.179H249.559C251.374 279.179 253.171 278.821 254.848 278.127C256.524 277.433 258.048 276.415 259.331 275.131C260.614 273.848 261.632 272.325 262.326 270.648C263.021 268.972 263.378 267.175 263.378 265.36V250.247C263.376 248.571 263.067 246.909 262.467 245.344C264.172 246.629 265.556 248.292 266.51 250.202C267.463 252.113 267.959 254.219 267.959 256.354V271.467C267.959 273.282 267.601 275.079 266.907 276.756C266.212 278.432 265.195 279.956 263.911 281.239C262.628 282.522 261.105 283.54 259.428 284.234C257.752 284.929 255.955 285.286 254.14 285.286H219.178C216.376 285.285 213.641 284.431 211.335 282.838C209.03 281.246 207.264 278.99 206.271 276.37C208.664 278.192 211.589 279.179 214.597 279.179Z" fill="#00429A"/>
<path d="M321.663 390.123L313.072 390.123L308.985 356.985L321.665 356.985L321.663 390.123Z" fill="#A0616A"/>
<path d="M321.966 399.086L295.547 399.085V398.751C295.547 396.023 296.63 393.408 298.559 391.48C300.487 389.551 303.103 388.468 305.83 388.468L310.656 384.807L319.66 388.468L321.966 388.468L321.966 399.086Z" fill="#151515"/>
<path d="M382.452 390.123L391.043 390.123L395.13 356.985L382.45 356.985L382.452 390.123Z" fill="#A0616A"/>
<path d="M382.149 399.086L408.568 399.085V398.751C408.568 396.023 407.484 393.408 405.556 391.48C403.627 389.551 401.012 388.468 398.285 388.468L393.458 384.807L384.455 388.468L382.148 388.468L382.149 399.086Z" fill="#151515"/>
<path d="M308.607 332.634C308.734 330.743 309.743 320.286 309.743 320.286L312.159 298.109L316.418 239.323L316.696 235.475L339.006 231.192L354.253 223.882L372.376 229.676L386.488 234.968C386.488 234.968 386.512 237.233 386.621 239.97C386.766 243.552 387.02 247.944 387.624 249.086C388.633 251.103 388.379 261.935 388.379 261.935C388.379 261.935 389.382 283.973 390.644 286.389C391.907 288.806 392.161 293.838 391.78 294.847C391.4 295.856 393.043 322.322 393.043 322.322C393.043 322.322 397.26 369.156 394.614 376.218C391.968 383.28 381.97 378.654 381.97 378.654C381.97 378.654 382.453 376.77 379.553 375.882C376.653 374.993 367.821 308.584 367.821 308.584C367.821 308.584 366.178 294.967 364.668 291.065C363.158 287.163 361.768 276.198 361.768 276.198C361.768 276.198 352.441 258.051 352.32 254.015C352.32 254.015 351.1 250.239 349.946 254.396C348.792 258.552 345.391 268.508 345.391 268.508L342.074 280.735L338.172 299.003L335.647 314.384C335.647 314.384 331.865 334.796 331.261 335.678C330.657 336.56 331.261 355.209 331.261 355.209C331.261 355.209 328.337 371.091 324.205 373.864C320.073 376.637 309.125 373.908 309.125 373.908C309.125 373.908 308.48 334.524 308.607 332.634Z" fill="#151515"/>
<path d="M318.125 181.86L323.084 196.8L316.965 204.085L319.659 206.859L317.672 210.779L312.488 251.87L340.905 262.647L350.475 250.65L358.02 262.647L390.902 254.613L382.516 202.213V198.787L380.149 192.172V178.169L386.401 136.486L367.74 129.949L358.817 122.888L355.93 132.819L343.636 130.633L343.316 123.171L333.91 132.058L325.989 134.317L316.506 136.486L315.297 139.506L317.713 138.903L317.321 178.2L318.125 181.86Z" fill="#151515"/>
<path d="M309.631 236.522L314.403 190.326L315.663 171.313L302.304 168.898C302.304 168.898 302.834 182.493 301.084 190.163C299.357 197.732 300.855 235.508 300.961 236.518C299.98 237.396 299.289 238.55 298.978 239.829C298.667 241.108 298.752 242.451 299.222 243.68C299.691 244.91 300.522 245.968 301.606 246.715C302.69 247.462 303.975 247.862 305.291 247.862C306.607 247.863 307.892 247.464 308.976 246.718C310.061 245.973 310.893 244.915 311.364 243.686C311.834 242.457 311.92 241.114 311.611 239.835C311.301 238.556 310.611 237.401 309.631 236.522Z" fill="#A0616A"/>
<path d="M296.6 199.899L300.316 200.666L313.062 203.306L313.769 203.451L315.273 197.47L317.019 195.61L320.342 178.199L320.517 177.293L325.537 166.564L329.01 134.317L316.095 136.637C316.028 136.703 315.968 136.776 315.907 136.848C314.053 138.95 312.73 141.874 310.567 144.816C303.529 154.391 298.129 177.655 298.34 190.402C298.346 190.608 298.135 190.831 297.881 191.061C296.683 192.162 295.902 193.642 295.669 195.252C295.435 196.862 295.765 198.503 296.6 199.899Z" fill="#151515"/>
<path d="M392.672 236.522L387.899 190.326L386.64 171.313L399.998 168.898C399.998 168.898 399.469 182.493 401.219 190.163C402.945 197.732 401.448 235.508 401.341 236.518C402.322 237.396 403.014 238.55 403.324 239.829C403.635 241.108 403.55 242.451 403.081 243.68C402.612 244.91 401.78 245.968 400.696 246.715C399.613 247.462 398.328 247.862 397.012 247.862C395.696 247.863 394.411 247.464 393.326 246.718C392.242 245.973 391.409 244.915 390.939 243.686C390.468 242.457 390.382 241.114 390.692 239.835C391.001 238.556 391.692 237.401 392.672 236.522Z" fill="#A0616A"/>
<path d="M405.702 199.899L401.987 200.666L389.24 203.306L388.533 203.451L387.029 197.47L385.283 195.61L381.961 178.199L381.785 177.293L376.765 166.564L377.913 134.317L386.208 136.637C386.274 136.703 386.335 136.776 386.395 136.848C388.25 138.95 389.573 141.874 391.735 144.816C398.773 154.391 404.174 177.655 403.962 190.402C403.956 190.608 404.168 190.831 404.421 191.061C405.619 192.162 406.4 193.642 406.634 195.252C406.867 196.862 406.538 198.503 405.702 199.899Z" fill="#151515"/>
<path d="M337.247 139.088L343.316 123.171L358.817 122.887L363.961 139.088L382.45 242.371C382.45 242.371 325.808 258.144 326.383 239.184C326.987 219.248 329.712 192.767 329.712 192.767L337.247 139.088Z" fill="#006BD6"/>
<path d="M350.72 118.719C360.805 118.719 368.981 110.544 368.981 100.458C368.981 90.3734 360.805 82.1978 350.72 82.1978C340.635 82.1978 332.459 90.3734 332.459 100.458C332.459 110.544 340.635 118.719 350.72 118.719Z" fill="#A0616A"/>
<path d="M331.382 87.2113C334.355 83.9755 338.074 78.0524 349.337 75.5652C363.254 72.4918 369.83 85.0641 366.321 85.2702C376.583 88.378 369.991 109.616 367.049 107.835C367.023 107.817 366.999 107.798 366.976 107.778C365.394 106.613 364.066 105.137 363.073 103.441C362.08 101.745 361.443 99.8648 361.202 97.9146L360.643 92.8889C360.564 96.978 356.384 97.5189 352.114 96.0129C352.367 95.1164 352.849 94.3012 353.512 93.6478C354.176 92.9943 354.999 92.5252 355.899 92.2867C352.923 94.985 349.142 96.6301 345.139 96.9686C345.348 95.9448 345.775 94.9777 346.389 94.1323C347.003 93.2869 347.792 92.5827 348.701 92.0671L348.532 91.9015C346.865 93.3077 344.95 94.3916 342.887 95.0981C340.533 95.7727 337.713 95.4077 336.1 93.5653C335.666 93.0568 335.338 92.4666 335.136 91.8293C335.484 95.0676 333.312 98.7642 331.625 98.1295C330.222 97.8567 329.403 89.3653 331.382 87.2113Z" fill="#151515"/>
<path d="M461.428 399.084C461.429 399.204 461.405 399.323 461.359 399.435C461.313 399.546 461.246 399.647 461.161 399.732C461.075 399.818 460.974 399.885 460.863 399.931C460.751 399.977 460.632 400 460.512 400H244.641C244.398 400 244.164 399.903 243.993 399.732C243.821 399.56 243.724 399.327 243.724 399.084C243.724 398.84 243.821 398.607 243.993 398.435C244.164 398.264 244.398 398.167 244.641 398.167H460.512C460.632 398.167 460.751 398.19 460.863 398.236C460.974 398.282 461.075 398.349 461.161 398.435C461.246 398.52 461.313 398.621 461.359 398.732C461.405 398.844 461.429 398.963 461.428 399.084Z" fill="#CCCCCC"/>
<path d="M237.231 209.38C229.929 209.38 223.511 212.686 219.877 217.648C223.762 214.821 228.452 213.316 233.257 213.355C244.564 213.355 253.763 221.275 253.763 231.011V239.104H257.738V227.037C257.738 217.301 248.538 209.38 237.231 209.38Z" fill="#00429A"/>
<path d="M260.468 243.246H212.781V229.215C212.781 217.895 223.477 208.685 236.625 208.685C249.772 208.685 260.468 217.895 260.468 229.215V243.246ZM214.321 241.705H258.928V229.215C258.928 218.744 248.923 210.225 236.625 210.225C224.326 210.225 214.321 218.744 214.321 229.215V241.705Z" fill="white"/>
<path d="M248.838 237.889H224.412C223.313 237.888 222.259 237.451 221.482 236.674C220.705 235.897 220.268 234.843 220.267 233.744V228.161C220.267 220.376 227.605 214.042 236.625 214.042C245.644 214.042 252.982 220.376 252.982 228.161V233.744C252.981 234.843 252.544 235.897 251.767 236.674C250.99 237.451 249.936 237.888 248.838 237.889ZM236.625 215.582C228.454 215.582 221.808 221.225 221.808 228.161V233.744C221.808 234.435 222.083 235.097 222.571 235.585C223.059 236.074 223.721 236.348 224.412 236.349H248.838C249.528 236.348 250.19 236.074 250.678 235.585C251.167 235.097 251.441 234.435 251.442 233.744V228.161C251.442 221.225 244.795 215.582 236.625 215.582Z" fill="white"/>
</g>
<defs>
<clipPath id="clip0_59_804">
<rect width="460.856" height="400" fill="white" transform="translate(0.571777)"/>
</clipPath>
</defs>
</svg>
