<svg width="380" height="351" viewBox="0 0 380 351" fill="none" xmlns="http://www.w3.org/2000/svg">
<g clip-path="url(#clip0_43_427)">
<path d="M269.33 321.899H96.0013C91.8849 321.894 87.9385 320.25 85.0282 317.328C82.118 314.405 80.4818 310.443 80.4786 306.31V239.426C80.1197 239.837 79.7442 240.242 79.3574 240.636V306.31C79.3614 310.741 81.1161 314.989 84.2364 318.122C87.3567 321.256 91.5878 323.019 96.0013 323.024H269.818C269.649 322.653 269.487 322.276 269.33 321.899ZM80.4786 74.6783C80.4818 70.546 82.118 66.5837 85.0282 63.6611C87.9385 60.7386 91.8849 59.0945 96.0013 59.0899H153.753C153.647 58.7128 153.546 58.3414 153.451 57.9644H96.0013C91.5878 57.9699 87.3567 59.7328 84.2364 62.8662C81.1161 65.9997 79.3614 70.2477 79.3574 74.6783V177.213C79.7442 177.607 80.1143 178.012 80.4786 178.423V74.6783ZM313.213 87.8244L276.999 59.028C276.135 58.3399 275.064 57.9651 273.961 57.9644H241.732C241.642 58.3414 241.542 58.7185 241.435 59.0899H273.961C274.81 59.0919 275.635 59.3792 276.304 59.9059L312.518 88.7079C312.862 88.9801 313.139 89.3273 313.33 89.7231C313.52 90.119 313.618 90.5532 313.617 90.9927V258.6C313.992 258.611 314.368 258.639 314.738 258.667V90.9927C314.74 90.3831 314.604 89.781 314.34 89.232C314.075 88.6831 313.69 88.2017 313.213 87.8244Z" fill="#3F3D56"/>
<path d="M312.734 89.311H283.513C282.457 89.311 281.411 89.1022 280.435 88.6964C279.459 88.2906 278.572 87.6958 277.826 86.9461C277.079 86.1963 276.486 85.3062 276.082 84.3265C275.678 83.3469 275.47 82.2969 275.47 81.2366V59.5707C275.47 59.4758 275.496 59.3829 275.547 59.3025C275.597 59.2222 275.669 59.1577 275.754 59.1164C275.839 59.0751 275.934 59.0587 276.028 59.0691C276.121 59.0795 276.211 59.1162 276.285 59.1751L313.046 88.4108C313.128 88.4759 313.188 88.5649 313.217 88.6655C313.246 88.7661 313.243 88.8733 313.209 88.9723C313.175 89.0712 313.11 89.157 313.025 89.2177C312.94 89.2784 312.839 89.311 312.734 89.311Z" fill="#E6E6E6"/>
<path d="M312.734 89.8737H283.513C281.232 89.8711 279.045 88.9603 277.432 87.341C275.819 85.7218 274.912 83.5264 274.909 81.2364V59.5707C274.909 59.3701 274.965 59.1735 275.072 59.0035C275.178 58.8336 275.33 58.6971 275.51 58.6097C275.689 58.5224 275.89 58.4876 276.089 58.5096C276.288 58.5315 276.476 58.6092 276.633 58.7337L313.394 87.9697C313.568 88.1073 313.694 88.2956 313.755 88.5084C313.817 88.7212 313.811 88.948 313.739 89.1574C313.666 89.3667 313.53 89.5481 313.35 89.6765C313.17 89.8048 312.955 89.8738 312.734 89.8737ZM276.03 59.6908V81.2364C276.033 83.228 276.822 85.1373 278.225 86.5456C279.627 87.9538 281.529 88.746 283.513 88.7482H312.568L276.03 59.6908Z" fill="#3F3D56"/>
<path d="M254.729 126.655H168.766C167.699 126.655 166.676 126.23 165.922 125.473C165.168 124.716 164.744 123.689 164.744 122.618C164.744 121.547 165.168 120.521 165.922 119.763C166.676 119.006 167.699 118.581 168.766 118.581H254.729C255.796 118.581 256.819 119.006 257.573 119.763C258.327 120.521 258.751 121.547 258.751 122.618C258.751 123.689 258.327 124.716 257.573 125.473C256.819 126.23 255.796 126.655 254.729 126.655Z" fill="#CCCCCC"/>
<path d="M271.318 140.281H168.766C167.699 140.281 166.676 139.856 165.922 139.099C165.168 138.342 164.744 137.315 164.744 136.244C164.744 135.173 165.168 134.146 165.922 133.389C166.676 132.632 167.699 132.207 168.766 132.207H271.318C272.385 132.207 273.408 132.632 274.162 133.389C274.916 134.146 275.34 135.173 275.34 136.244C275.34 137.315 274.916 138.342 274.162 139.099C273.408 139.856 272.385 140.281 271.318 140.281Z" fill="#CCCCCC"/>
<path d="M254.729 187.719H168.766C167.699 187.719 166.676 187.293 165.922 186.536C165.168 185.779 164.744 184.752 164.744 183.681C164.744 182.611 165.168 181.584 165.922 180.827C166.676 180.07 167.699 179.644 168.766 179.644H254.729C255.796 179.644 256.819 180.07 257.573 180.827C258.327 181.584 258.751 182.611 258.751 183.681C258.751 184.752 258.327 185.779 257.573 186.536C256.819 187.293 255.796 187.719 254.729 187.719Z" fill="#CCCCCC"/>
<path d="M271.318 201.344H168.766C167.699 201.344 166.676 200.919 165.922 200.162C165.168 199.405 164.744 198.378 164.744 197.307C164.744 196.236 165.168 195.21 165.922 194.452C166.676 193.695 167.699 193.27 168.766 193.27H271.318C272.385 193.27 273.408 193.695 274.162 194.452C274.916 195.21 275.34 196.236 275.34 197.307C275.34 198.378 274.916 199.405 274.162 200.162C273.408 200.919 272.385 201.344 271.318 201.344Z" fill="#CCCCCC"/>
<path d="M254.729 248.782H168.766C168.238 248.782 167.715 248.678 167.227 248.475C166.739 248.272 166.295 247.974 165.922 247.6C165.549 247.225 165.252 246.78 165.05 246.29C164.848 245.8 164.744 245.275 164.744 244.745C164.744 244.215 164.848 243.69 165.05 243.2C165.252 242.71 165.549 242.265 165.922 241.89C166.295 241.515 166.739 241.218 167.227 241.015C167.715 240.812 168.238 240.708 168.766 240.708H254.729C255.796 240.708 256.819 241.133 257.573 241.89C258.327 242.647 258.751 243.674 258.751 244.745C258.751 245.815 258.327 246.842 257.573 247.6C256.819 248.357 255.796 248.782 254.729 248.782Z" fill="#CCCCCC"/>
<path d="M271.318 262.408H168.766C168.238 262.408 167.715 262.303 167.227 262.1C166.739 261.897 166.295 261.6 165.922 261.225C165.549 260.85 165.252 260.405 165.05 259.915C164.848 259.426 164.744 258.901 164.744 258.37C164.744 257.84 164.848 257.315 165.05 256.825C165.252 256.336 165.549 255.89 165.922 255.516C166.295 255.141 166.739 254.843 167.227 254.64C167.715 254.438 168.238 254.333 168.766 254.333H271.318C271.846 254.333 272.369 254.438 272.857 254.64C273.345 254.843 273.789 255.141 274.162 255.516C274.536 255.89 274.832 256.336 275.034 256.825C275.236 257.315 275.34 257.84 275.34 258.37C275.34 258.901 275.236 259.426 275.034 259.915C274.832 260.405 274.536 260.85 274.162 261.225C273.789 261.6 273.345 261.897 272.857 262.1C272.369 262.303 271.847 262.408 271.318 262.408Z" fill="#CCCCCC"/>
<path d="M132.968 143.7C140.819 143.7 147.183 137.312 147.183 129.431C147.183 121.55 140.819 115.162 132.968 115.162C125.118 115.162 118.754 121.55 118.754 129.431C118.754 137.312 125.118 143.7 132.968 143.7Z" fill="#006BD6"/>
<path d="M131.56 134.874C131.24 134.875 130.929 134.771 130.673 134.579L130.657 134.567L127.317 132.001C127.161 131.882 127.031 131.734 126.933 131.564C126.836 131.395 126.772 131.208 126.746 131.013C126.721 130.819 126.733 130.622 126.784 130.433C126.834 130.243 126.921 130.066 127.04 129.91C127.159 129.755 127.307 129.625 127.476 129.527C127.645 129.429 127.831 129.365 128.025 129.34C128.218 129.314 128.415 129.327 128.603 129.378C128.792 129.429 128.968 129.516 129.123 129.636L131.287 131.302L136.4 124.605C136.518 124.45 136.666 124.32 136.835 124.222C137.004 124.124 137.19 124.06 137.383 124.035C137.576 124.009 137.773 124.022 137.961 124.072C138.149 124.123 138.326 124.21 138.48 124.329L138.449 124.374L138.482 124.33C138.794 124.57 138.998 124.926 139.049 125.317C139.101 125.709 138.995 126.105 138.756 126.419L132.742 134.291C132.603 134.473 132.424 134.62 132.219 134.72C132.014 134.821 131.789 134.873 131.561 134.873L131.56 134.874Z" fill="white"/>
<path d="M132.968 204.764C140.819 204.764 147.183 198.375 147.183 190.494C147.183 182.613 140.819 176.225 132.968 176.225C125.118 176.225 118.754 182.613 118.754 190.494C118.754 198.375 125.118 204.764 132.968 204.764Z" fill="#E6E6E6"/>
<path d="M131.56 195.938C131.24 195.938 130.929 195.834 130.673 195.642L130.657 195.63L127.317 193.065C127.004 192.824 126.8 192.469 126.748 192.077C126.697 191.685 126.802 191.289 127.042 190.975C127.281 190.661 127.635 190.456 128.025 190.404C128.416 190.353 128.811 190.459 129.123 190.699L131.287 192.365L136.4 185.668C136.518 185.513 136.666 185.383 136.835 185.285C137.004 185.187 137.19 185.124 137.383 185.098C137.576 185.072 137.773 185.085 137.961 185.136C138.149 185.186 138.326 185.274 138.48 185.393L138.449 185.437L138.482 185.393C138.794 185.634 138.998 185.989 139.049 186.38C139.101 186.772 138.995 187.168 138.756 187.482L132.742 195.355C132.603 195.536 132.424 195.683 132.219 195.784C132.015 195.884 131.789 195.937 131.561 195.936L131.56 195.938Z" fill="white"/>
<path d="M132.968 265.827C140.819 265.827 147.183 259.438 147.183 251.557C147.183 243.677 140.819 237.288 132.968 237.288C125.118 237.288 118.754 243.677 118.754 251.557C118.754 259.438 125.118 265.827 132.968 265.827Z" fill="#E6E6E6"/>
<path d="M131.56 257.001C131.24 257.001 130.929 256.898 130.673 256.705L130.657 256.693L127.317 254.128C127.161 254.009 127.031 253.86 126.933 253.691C126.836 253.521 126.772 253.334 126.746 253.14C126.721 252.946 126.733 252.748 126.784 252.559C126.834 252.37 126.921 252.192 127.04 252.037C127.159 251.881 127.307 251.751 127.476 251.653C127.645 251.555 127.831 251.492 128.025 251.466C128.218 251.441 128.415 251.454 128.603 251.504C128.792 251.555 128.968 251.643 129.123 251.762L131.287 253.428L136.4 246.732C136.518 246.576 136.666 246.446 136.835 246.348C137.004 246.25 137.19 246.187 137.383 246.161C137.576 246.136 137.773 246.148 137.961 246.199C138.149 246.249 138.326 246.337 138.48 246.456L138.449 246.5L138.482 246.456C138.794 246.697 138.998 247.052 139.049 247.444C139.101 247.835 138.995 248.231 138.756 248.545L132.742 256.418C132.603 256.599 132.424 256.746 132.219 256.847C132.014 256.948 131.789 257 131.561 256.999L131.56 257.001Z" fill="white"/>
<path d="M332.82 345.717C332.018 346.138 331.202 346.536 330.372 346.912C329.617 347.255 328.849 347.577 328.07 347.878C327.785 347.987 327.496 348.096 327.206 348.205C324.915 349.039 322.562 349.691 320.168 350.153C318.984 350.387 317.783 350.571 316.567 350.704C315.563 350.818 314.549 350.9 313.525 350.948C312.795 350.984 312.065 351 311.33 351C308.421 351.001 305.517 350.728 302.658 350.184C301.913 350.049 301.183 349.888 300.454 349.712C296.925 348.863 293.508 347.597 290.276 345.941C289.986 345.795 289.696 345.639 289.406 345.489C288.977 345.26 288.558 345.021 288.139 344.772C288.34 344.491 288.558 344.216 288.78 343.946C291.201 340.934 294.228 338.467 297.662 336.708C301.096 334.948 304.862 333.935 308.712 333.734C312.562 333.533 316.412 334.149 320.009 335.542C323.607 336.934 326.872 339.072 329.591 341.816C330.535 342.767 331.41 343.784 332.209 344.86C332.421 345.141 332.623 345.426 332.82 345.717Z" fill="#006BD6"/>
<path d="M312.363 322.899C324.912 322.899 335.084 312.687 335.084 300.09C335.084 287.493 324.912 277.282 312.363 277.282C299.815 277.282 289.643 287.493 289.643 300.09C289.643 312.687 299.815 322.899 312.363 322.899Z" fill="#2F2E41"/>
<path d="M318.407 322.931C326.601 318.434 329.613 308.12 325.134 299.893C320.654 291.666 310.379 288.643 302.184 293.14C293.989 297.637 290.977 307.952 295.457 316.178C299.937 324.405 310.212 327.429 318.407 322.931Z" fill="#A0616A"/>
<path d="M328.064 297.358C324.2 300.032 319.613 301.455 314.92 301.436C316.594 302.601 318.5 303.388 320.506 303.743C314.266 305.087 307.817 305.123 301.562 303.85C300.172 303.626 298.831 303.163 297.597 302.482C296.982 302.138 296.446 301.667 296.024 301.101C295.603 300.535 295.304 299.886 295.149 299.196C294.733 296.813 296.583 294.647 298.506 293.188C301.45 290.987 304.844 289.471 308.443 288.749C312.042 288.027 315.756 288.117 319.316 289.013C321.641 289.616 323.969 290.636 325.479 292.51C326.989 294.384 327.436 297.273 325.998 299.203L328.064 297.358Z" fill="#2F2E41"/>
<path d="M314.737 257.62C314.367 257.592 313.992 257.57 313.616 257.553C312.859 257.513 312.097 257.496 311.329 257.496C303.692 257.497 296.173 259.382 289.433 262.987C282.693 266.591 276.94 271.805 272.68 278.167C268.42 284.53 265.784 291.846 265.004 299.472C264.224 307.098 265.325 314.8 268.208 321.899C268.36 322.276 268.517 322.653 268.685 323.024C272.537 331.785 278.96 339.159 287.095 344.162L287.392 344.336C287.644 344.488 287.891 344.634 288.137 344.769C288.558 345.023 288.978 345.259 289.404 345.49C289.696 345.642 289.987 345.794 290.273 345.94C293.506 347.597 296.923 348.863 300.453 349.71C301.182 349.89 301.911 350.048 302.657 350.183C305.516 350.727 308.419 351 311.329 350.999C312.063 350.999 312.792 350.982 313.527 350.948C314.547 350.903 315.561 350.819 316.565 350.706C317.781 350.571 318.983 350.388 320.169 350.155C322.562 349.691 324.914 349.04 327.205 348.208C327.496 348.095 327.788 347.988 328.068 347.876C328.853 347.577 329.615 347.257 330.372 346.913C331.202 346.536 332.018 346.137 332.822 345.715C340.876 341.478 347.534 334.988 351.989 327.031C352.009 326.989 352.031 326.947 352.056 326.907C355.849 320.045 357.859 312.334 357.902 304.487C357.945 296.639 356.018 288.907 352.3 282.003C348.582 275.1 343.192 269.248 336.627 264.986C330.062 260.725 322.534 258.192 314.737 257.62ZM356.064 312.827C355.164 317.548 353.523 322.095 351.204 326.3C351.164 326.373 351.125 326.446 351.086 326.513C346.723 334.355 340.159 340.734 332.211 344.859C331.415 345.276 330.609 345.666 329.795 346.03C329.116 346.334 328.421 346.626 327.721 346.897C327.429 347.009 327.126 347.127 326.829 347.229C324.849 347.954 322.821 348.537 320.758 348.973C319.229 349.301 317.683 349.545 316.127 349.705C315.169 349.812 314.199 349.885 313.218 349.919C312.59 349.947 311.962 349.964 311.329 349.964C308.513 349.965 305.704 349.701 302.937 349.176C301.253 348.866 299.589 348.456 297.953 347.949C295.461 347.178 293.04 346.193 290.716 345.006C290.447 344.865 290.178 344.724 289.914 344.578C289.533 344.375 289.152 344.167 288.782 343.948C288.502 343.79 288.221 343.621 287.947 343.458C287.784 343.362 287.627 343.267 287.465 343.165C279.72 338.36 273.577 331.348 269.817 323.024C269.649 322.653 269.487 322.276 269.329 321.899C266.433 314.952 265.29 307.393 266.005 299.896C266.719 292.399 269.267 285.195 273.424 278.925C277.58 272.655 283.215 267.513 289.828 263.956C296.441 260.4 303.827 258.538 311.329 258.538C312.097 258.538 312.859 258.554 313.616 258.6C313.992 258.611 314.367 258.639 314.737 258.667C321.134 259.154 327.356 260.991 332.997 264.058C338.638 267.125 343.57 271.353 347.471 276.465C351.372 281.578 354.154 287.459 355.635 293.725C357.116 299.991 357.262 306.5 356.064 312.827Z" fill="#3F3D56"/>
<path d="M300.857 277.596C300.613 275.016 297.464 273.427 295.001 274.206C292.538 274.986 290.921 277.475 290.433 280.021C290.198 281.093 290.175 282.201 290.368 283.281C290.56 284.362 290.963 285.394 291.553 286.318C292.798 288.116 295.086 289.239 297.219 288.782C299.655 288.261 301.342 285.873 301.825 283.421C302.308 280.968 301.829 278.44 301.35 275.986L300.857 277.596Z" fill="#2F2E41"/>
<path d="M335.517 281.283C335.272 278.702 332.123 277.114 329.66 277.893C327.198 278.673 325.581 281.162 325.092 283.707C324.857 284.779 324.835 285.887 325.027 286.968C325.219 288.049 325.622 289.08 326.212 290.004C327.457 291.803 329.745 292.925 331.878 292.469C334.314 291.947 336.001 289.56 336.484 287.107C336.967 284.655 336.488 282.126 336.009 279.673L335.517 281.283Z" fill="#2F2E41"/>
<path d="M222.431 85.6779C215.222 90.3119 206.87 92.8388 198.311 92.9755C189.752 93.1122 181.324 90.8533 173.972 86.4519C175.265 84.0351 176.904 81.8213 178.836 79.8809C181.817 76.874 185.445 74.5931 189.441 73.2135C193.437 71.8338 197.696 71.3921 201.888 71.9223C206.081 72.4526 210.097 73.9405 213.628 76.272C217.158 78.6034 220.109 81.7163 222.255 85.3714C222.311 85.4702 222.374 85.5741 222.431 85.6779Z" fill="#006BD6"/>
<path d="M196.179 60.8377C208.81 60.8377 219.05 50.5579 219.05 37.8772C219.05 25.1965 208.81 14.9167 196.179 14.9167C183.547 14.9167 173.307 25.1965 173.307 37.8772C173.307 50.5579 183.547 60.8377 196.179 60.8377Z" fill="#2F2E41"/>
<path d="M210.955 54.0722C215.465 45.7909 212.433 35.4077 204.183 30.8807C195.934 26.3537 185.591 29.3972 181.081 37.6785C176.572 45.9599 179.603 56.3431 187.853 60.8701C196.102 65.3971 206.445 62.3536 210.955 54.0722Z" fill="#FFB8B8"/>
<path d="M180.373 35.1265C184.263 37.8179 188.88 39.2504 193.605 39.2314C191.919 40.4045 190.001 41.1968 187.981 41.5539C194.263 42.9065 200.755 42.9431 207.051 41.6615C208.45 41.4362 209.801 40.9706 211.043 40.2851C211.662 39.9381 212.201 39.4642 212.625 38.8942C213.05 38.3243 213.35 37.671 213.507 36.9769C213.925 34.5775 212.063 32.3976 210.127 30.9285C207.164 28.7135 203.747 27.1874 200.124 26.4606C196.501 25.7339 192.763 25.8246 189.179 26.7263C186.839 27.3335 184.495 28.3594 182.975 30.2459C181.455 32.1325 181.005 35.0408 182.453 36.9834L180.373 35.1265Z" fill="#2F2E41"/>
<path d="M197.58 0C185.233 0.0137813 173.395 4.94329 164.664 13.7072C155.933 22.4711 151.021 34.3537 151.006 46.7485C151.008 50.5296 151.471 54.2962 152.385 57.9643C152.48 58.3413 152.575 58.7184 152.676 59.0898C155.363 68.9772 161.214 77.7029 169.329 83.9218C177.444 90.1406 187.371 93.5073 197.58 93.5026C207.791 93.5023 217.719 90.1344 225.837 83.9167C233.955 77.6991 239.813 68.9762 242.511 59.0898C242.612 58.7128 242.707 58.3413 242.797 57.9643C244.486 51.0776 244.593 43.8956 243.11 36.9614C241.627 30.0271 238.592 23.5221 234.237 17.9382C229.881 12.3543 224.317 7.83781 217.967 4.73013C211.616 1.62244 204.645 0.0049616 197.58 0ZM241.732 57.9643C241.642 58.3413 241.541 58.7184 241.435 59.0898C239.543 65.8521 236.126 72.0861 231.447 77.3086C226.769 82.5311 220.955 86.6017 214.456 89.2047C207.958 91.8078 200.949 92.8733 193.975 92.3186C187 91.764 180.246 89.6042 174.237 86.0066C164.249 79.9735 156.925 70.3492 153.753 59.0898C153.646 58.7128 153.545 58.3413 153.45 57.9643C152.516 54.2994 152.043 50.5314 152.043 46.7485C152.05 40.273 153.428 33.873 156.085 27.9724C158.742 22.0717 162.617 16.8051 167.454 12.5213C172.292 8.23756 177.98 5.03442 184.144 3.12408C190.307 1.21373 196.805 0.639789 203.206 1.44025C209.607 2.24072 215.765 4.39731 221.273 7.76722C226.781 11.1371 231.513 15.6434 235.156 20.9876C238.799 26.3318 241.268 32.3919 242.402 38.7666C243.536 45.1412 243.307 51.685 241.732 57.9643Z" fill="#3F3D56"/>
<path d="M71.4251 247.828C64.2167 252.463 55.8651 254.99 47.3063 255.127C38.7476 255.264 30.3198 253.006 22.9678 248.605C23.0461 248.453 23.1301 248.301 23.2199 248.155C25.5782 243.887 29.015 240.319 33.1843 237.809C37.3535 235.299 42.1079 233.937 46.9687 233.859C51.8295 233.78 56.6249 234.989 60.8721 237.364C65.1193 239.738 68.6683 243.194 71.1615 247.384C71.1952 247.429 71.2231 247.479 71.2513 247.524C71.3074 247.62 71.369 247.727 71.4251 247.828Z" fill="#006BD6"/>
<path d="M68.0447 200.027C68.0447 204.569 66.7032 209.008 64.19 212.784C61.6768 216.559 58.1047 219.502 53.9254 221.24C49.7461 222.978 45.1473 223.433 40.7106 222.547C36.2739 221.661 32.1985 219.474 28.9998 216.263C25.8011 213.052 23.6228 208.961 22.7403 204.507C21.8578 200.053 22.3107 195.436 24.0418 191.241C25.773 187.045 28.7045 183.459 32.4658 180.936C36.227 178.413 40.6491 177.067 45.1727 177.067C48.1804 177.052 51.161 177.636 53.9425 178.785C56.7239 179.934 59.251 181.625 61.3778 183.76C63.5045 185.895 65.1887 188.431 66.333 191.224C67.4773 194.016 68.0591 197.008 68.0447 200.027Z" fill="#2F2E41"/>
<path d="M63.0944 214.293C62.8326 214.954 62.5313 215.599 62.192 216.224C60.0262 220.2 56.3757 223.15 52.0434 224.425C47.711 225.7 43.0517 225.195 39.0901 223.022C37.1269 221.946 35.3941 220.493 33.9906 218.745C32.5872 216.997 31.5406 214.988 30.9107 212.834C30.2809 210.68 30.08 208.422 30.3197 206.19C30.5594 203.958 31.2349 201.795 32.3076 199.825C33.3804 197.855 34.8293 196.116 36.5716 194.709C38.3139 193.301 40.3154 192.252 42.4618 191.621C44.6082 190.99 46.8573 190.79 49.0808 191.032C51.3042 191.274 53.4583 191.954 55.42 193.032C59.0591 195.03 61.8468 198.292 63.2598 202.207C64.6729 206.121 64.6141 210.419 63.0944 214.293Z" fill="#A0616A"/>
<path d="M80.4782 176.898C80.1194 176.504 79.7438 176.116 79.357 175.739C73.1279 169.542 65.2815 165.237 56.7218 163.321C48.162 161.406 39.2373 161.957 30.9759 164.911C22.7145 167.865 15.4526 173.102 10.0269 180.019C4.60114 186.936 1.23237 195.25 0.308705 204.005C-0.614961 212.76 0.944059 221.599 4.80615 229.503C8.66824 237.407 14.6763 244.055 22.1379 248.681C29.5996 253.307 38.2114 255.722 46.9809 255.649C55.7505 255.576 64.321 253.017 71.705 248.267C74.4627 246.491 77.0274 244.429 79.357 242.116C79.7383 241.739 80.1139 241.356 80.4782 240.963C88.6121 232.296 93.1419 220.838 93.1419 208.93C93.1419 197.023 88.6121 185.565 80.4782 176.898ZM79.357 240.636C76.8951 243.197 74.1446 245.461 71.1612 247.384C71.1557 247.389 71.1499 247.389 71.1445 247.395C64.0164 251.976 55.7585 254.474 47.2959 254.609C38.8333 254.744 30.5003 252.511 23.2307 248.16C23.2253 248.16 23.2253 248.155 23.2195 248.155C17.6441 244.817 12.844 240.321 9.14124 234.968C5.43851 229.616 2.91871 223.53 1.75086 217.12C0.583014 210.71 0.794109 204.123 2.36999 197.801C3.94588 191.479 6.85011 185.569 10.8879 180.466C14.9257 175.364 20.0038 171.187 25.7814 168.216C31.5591 165.245 37.9028 163.548 44.387 163.24C50.8713 162.932 57.3463 164.019 63.3776 166.429C69.409 168.839 74.8572 172.516 79.3571 177.213C79.7438 177.607 80.1139 178.012 80.4782 178.423C87.9645 186.805 92.1047 197.667 92.1047 208.925C92.1047 220.182 87.9645 231.044 80.4782 239.426C80.1194 239.837 79.7438 240.242 79.357 240.636Z" fill="#3F3D56"/>
<path d="M63.7096 180.96C62.5828 179.04 60.9495 177.47 58.9898 176.423C57.0302 175.376 54.8205 174.894 52.6048 175.028C50.2791 175.203 48.0664 176.064 45.8937 176.914L34.8475 181.24C31.9892 182.359 28.8587 183.73 27.6184 186.547C26.4672 189.162 27.326 192.182 28.1955 194.904L32.3283 207.843C32.8946 204.937 33.4698 202.001 34.6703 199.296C35.8707 196.59 37.7694 194.096 40.3944 192.744C43.2637 191.266 46.6455 191.297 49.8666 191.452C54.4284 191.673 59.3885 192.255 62.6297 195.486C64.3503 197.32 65.5167 199.607 65.9935 202.081C66.4628 204.541 66.699 207.041 66.6989 209.546C68.5696 206.318 70.1454 202.926 71.4071 199.413C72.4449 196.797 73.0362 194.024 73.1564 191.211C73.1811 188.402 72.3888 185.503 70.5226 183.41C68.6564 181.316 65.6156 180.185 62.9415 181.014" fill="#2F2E41"/>
<path d="M28.8779 119.217L27.7568 119.204C27.7702 118.078 27.8025 116.936 27.8528 115.809L28.9729 115.859C28.9231 116.974 28.8912 118.104 28.8779 119.217Z" fill="#E6E6E6"/>
<path d="M29.4652 109.432L28.3506 109.31C28.5847 107.159 28.8913 104.989 29.2618 102.862L30.3663 103.056C29.9998 105.159 29.6966 107.305 29.4652 109.432ZM31.6751 96.7502L30.5854 96.4853C31.0928 94.3835 31.6755 92.2714 32.3173 90.2075L33.3876 90.5428C32.753 92.5836 32.1768 94.6722 31.6751 96.7502ZM35.4997 84.453L34.4534 84.0485C35.2277 82.0294 36.0785 80.0089 36.9819 78.0431L37.9999 78.5146C37.1066 80.4584 36.2654 82.4564 35.4997 84.453ZM40.8769 72.7515L39.8914 72.2151C40.9179 70.3147 42.0204 68.4217 43.1684 66.5887L44.1176 67.1877C42.9823 69.0004 41.892 70.8723 40.8769 72.7515ZM47.7072 61.845L46.7982 61.1861C48.0596 59.4327 49.3943 57.6974 50.7651 56.0286L51.6301 56.7447C50.2745 58.3951 48.9547 60.1108 47.7072 61.845ZM55.8694 51.9074L55.0518 51.1375C56.5248 49.5613 58.0688 48.0118 59.6406 46.5315L60.4076 47.3526C58.8531 48.8164 57.3262 50.3488 55.8694 51.9074ZM65.2257 43.0983L64.5125 42.23C66.1744 40.8544 67.9021 39.5154 69.6477 38.2503L70.3041 39.1626C68.5778 40.414 66.8692 41.7382 65.2257 43.0983ZM75.6223 35.5624L75.0256 34.6094C76.8492 33.4586 78.7328 32.3532 80.6244 31.3235L81.1588 32.3128C79.2884 33.3311 77.4256 34.4242 75.6223 35.5624ZM86.8908 29.4289L86.4211 28.4067C88.3749 27.5018 90.3837 26.6492 92.3919 25.8723L92.7949 26.9226C90.8092 27.6906 88.8228 28.5339 86.8908 29.4289ZM98.8462 24.8053L98.5116 23.7309C100.567 23.086 102.67 22.5002 104.764 21.9899L105.029 23.0835C102.958 23.5883 100.878 24.1676 98.8462 24.8053ZM111.309 21.767L111.116 20.6586C113.235 20.2857 115.396 19.9771 117.539 19.7413L117.661 20.8603C115.542 21.0933 113.405 21.3986 111.309 21.767Z" fill="#E6E6E6"/>
<path d="M124.101 20.3619L124.051 19.2374C125.174 19.1869 126.311 19.1545 127.432 19.141L127.446 20.2665C126.337 20.2797 125.212 20.3119 124.101 20.3619Z" fill="#E6E6E6"/>
<path d="M33.0183 115.599L32.2172 114.81L28.3525 118.778L24.6919 114.619L23.8516 115.366L28.3111 120.431L33.0183 115.599Z" fill="#E6E6E6"/>
<path d="M123.842 24.4232L123.057 23.619L127.01 19.7393L122.866 16.0645L123.61 15.2209L128.655 19.6977L123.842 24.4232Z" fill="#E6E6E6"/>
<path d="M291.577 31.4903C290.59 30.9689 289.596 30.4566 288.595 29.9532L289.096 28.9469C290.105 29.4533 291.106 29.9691 292.099 30.4941L291.577 31.4903Z" fill="#E6E6E6"/>
<path d="M367.763 239.22L366.726 238.793C367.569 236.727 368.381 234.619 369.137 232.528L370.191 232.912C369.429 235.018 368.613 237.14 367.763 239.22ZM372.36 226.51L371.291 226.169C371.963 224.044 372.6 221.876 373.185 219.727L374.266 220.023C373.678 222.188 373.037 224.37 372.36 226.51ZM375.905 213.463L374.812 213.212C375.308 211.037 375.766 208.824 376.171 206.635L377.274 206.841C376.865 209.045 376.405 211.273 375.905 213.463ZM378.369 200.167L377.259 200.007C377.575 197.8 377.849 195.556 378.074 193.339L379.189 193.453C378.963 195.686 378.687 197.945 378.369 200.167ZM379.733 186.711L378.614 186.643C378.747 184.418 378.836 182.16 378.879 179.93L380 179.951C379.957 182.197 379.867 184.471 379.733 186.711ZM379.989 173.187L378.868 173.212C378.847 172.233 378.817 171.255 378.778 170.278C378.728 169.024 378.662 167.753 378.583 166.499L379.702 166.428C379.782 167.691 379.848 168.971 379.898 170.232C379.937 171.216 379.968 172.201 379.989 173.187ZM378.025 159.807C377.794 157.59 377.515 155.347 377.194 153.143L378.304 152.98C378.626 155.2 378.908 157.457 379.14 159.69L378.025 159.807ZM376.093 146.517C375.683 144.328 375.223 142.115 374.724 139.942L375.816 139.689C376.319 141.878 376.782 144.105 377.195 146.31L376.093 146.517ZM373.088 133.427C372.502 131.275 371.863 129.108 371.19 126.984L372.259 126.643C372.936 128.781 373.579 130.964 374.17 133.13L373.088 133.427ZM369.033 120.624C368.274 118.528 367.462 116.419 366.619 114.356L367.656 113.929C368.505 116.006 369.322 118.129 370.086 120.24L369.033 120.624ZM363.953 108.191C363.026 106.164 362.046 104.128 361.038 102.14L362.037 101.63C363.052 103.631 364.039 105.68 364.972 107.722L363.953 108.191ZM357.88 96.2135C356.792 94.2689 355.65 92.3199 354.483 90.4209L355.438 89.8303C356.612 91.7422 357.763 93.7046 358.858 95.6627L357.88 96.2135ZM350.853 84.7722C349.61 82.9221 348.311 81.0732 346.994 79.277L347.897 78.6098C349.223 80.4183 350.53 82.2801 351.782 84.143L350.853 84.7722ZM342.914 73.9448C341.522 72.2021 340.077 70.4664 338.617 68.7856L339.463 68.046C340.932 69.7384 342.388 71.4862 343.789 73.2408L342.914 73.9448ZM334.112 63.8079C332.582 62.1858 330.999 60.5752 329.406 59.0203L330.188 58.2134C331.791 59.7789 333.386 61.4008 334.926 63.0338L334.112 63.8079ZM324.506 54.4311C322.848 52.9417 321.137 51.4672 319.42 50.0484L320.133 49.1793C321.861 50.6081 323.584 52.0929 325.253 53.5925L324.506 54.4311ZM314.157 45.8796C312.389 44.5372 310.566 43.211 308.738 41.938L309.377 41.0131C311.218 42.2949 313.054 43.6302 314.834 44.9818L314.157 45.8796ZM303.161 38.2233C301.29 37.031 299.365 35.859 297.438 34.7394L298 33.7653C299.94 34.8924 301.878 36.0726 303.762 37.2729L303.161 38.2233Z" fill="#E6E6E6"/>
<path d="M363.643 248.499L362.633 248.01C363.12 246.998 363.595 245.982 364.059 244.965L365.079 245.433C364.611 246.458 364.133 247.48 363.643 248.499Z" fill="#E6E6E6"/>
<path d="M289.998 35.2811L291.056 34.9069L289.214 29.6749L294.547 28.2117L294.25 27.1256L287.755 28.9084L289.998 35.2811Z" fill="#E6E6E6"/>
<path d="M360.503 242.931L361.569 242.578L363.293 247.851L368.406 245.739L368.832 246.781L362.604 249.352L360.503 242.931Z" fill="#E6E6E6"/>
</g>
<defs>
<clipPath id="clip0_43_427">
<rect width="380" height="351" fill="white"/>
</clipPath>
</defs>
</svg>
