<svg width="24" height="25" viewBox="0 0 24 25" fill="none" xmlns="http://www.w3.org/2000/svg">
<path d="M21.5933 8.09192C21.4794 7.66933 21.2568 7.28393 20.9477 6.97409C20.6386 6.66425 20.2537 6.44078 19.8313 6.32592C18.2653 5.89592 12.0003 5.88892 12.0003 5.88892C12.0003 5.88892 5.73633 5.88192 4.16933 6.29292C3.74725 6.41307 3.36315 6.6397 3.0539 6.95106C2.74464 7.26242 2.52062 7.64804 2.40333 8.07092C1.99033 9.63692 1.98633 12.8849 1.98633 12.8849C1.98633 12.8849 1.98233 16.1489 2.39233 17.6989C2.62233 18.5559 3.29733 19.2329 4.15533 19.4639C5.73733 19.8939 11.9853 19.9009 11.9853 19.9009C11.9853 19.9009 18.2503 19.9079 19.8163 19.4979C20.2388 19.3833 20.6241 19.1603 20.934 18.8511C21.2439 18.5419 21.4677 18.1572 21.5833 17.7349C21.9973 16.1699 22.0003 12.9229 22.0003 12.9229C22.0003 12.9229 22.0203 9.65792 21.5933 8.09192ZM9.99633 15.8939L10.0013 9.89392L15.2083 12.8989L9.99633 15.8939Z" fill="#006BD6"/>
</svg>
