<svg width="62" height="61" viewBox="0 0 62 61" fill="none" xmlns="http://www.w3.org/2000/svg">
<path d="M28.0944 8.71359H14.4037C11.4989 8.71359 8.71326 9.86749 6.65925 11.9215C4.60527 13.9755 3.45117 16.7613 3.45117 19.6661V47.0475C3.45117 49.9524 4.60527 52.7381 6.65925 54.792C8.71326 56.8462 11.4989 58 14.4037 58H44.5232C50.5745 58 52.7376 53.0714 52.7376 47.0475V33.3568M56.2421 15.2852L30.1203 41.4069C27.5191 44.0081 19.7975 45.2129 18.0725 43.4879C16.3474 41.7629 17.5248 34.0413 20.1261 31.4401L46.2753 5.29097C46.9201 4.58744 47.7008 4.0219 48.5704 3.62843C49.4398 3.23496 50.3801 3.02166 51.3343 3.00156C52.2883 2.98149 53.2367 3.15493 54.122 3.51146C55.0072 3.86799 55.8111 4.40028 56.485 5.07606C57.1589 5.75183 57.689 6.55711 58.043 7.44334C58.397 8.32959 58.5682 9.27835 58.5454 10.2325C58.5227 11.1866 58.3067 12.1263 57.911 12.9947C57.5151 13.8631 56.9475 14.6423 56.2421 15.2852Z" stroke="#006BD6" stroke-width="5" stroke-linecap="round" stroke-linejoin="round"/>
</svg>
