<svg width="39" height="56" viewBox="0 0 39 56" fill="none" xmlns="http://www.w3.org/2000/svg">
<path d="M34.1786 26.6781L34.179 26.6785C37.4748 29.9722 37.4754 35.318 34.1786 38.6148L19.7645 53.0288C19.4542 53.3391 18.9468 53.3391 18.6365 53.0288L4.22243 38.6148C0.925858 35.3182 0.925858 29.9721 4.22243 26.6756C7.5187 23.3793 12.8641 23.379 16.1608 26.6747L16.1616 26.6756L17.9596 28.4761L19.1962 29.7144L20.4345 28.4779L22.2385 26.6764L22.2394 26.6756C25.5354 23.3796 30.8814 23.381 34.1786 26.6781Z" stroke="#00429A" stroke-width="3.5"/>
<path d="M19.192 1.75C23.8566 1.75 27.6341 5.52743 27.6341 10.192C27.6341 14.8566 23.8566 18.6341 19.192 18.6341C14.5274 18.6341 10.75 14.8566 10.75 10.192C10.75 5.52743 14.5274 1.75 19.192 1.75Z" stroke="#006BD6" stroke-width="3.5"/>
</svg>
