<svg width="616" height="600" viewBox="0 0 616 600" fill="none" xmlns="http://www.w3.org/2000/svg">
<g clip-path="url(#clip0_43_336)">
<path d="M57.2197 397.338L68.5982 402.683L95.1998 362.509L78.405 354.62L57.2197 397.338Z" fill="#FFB6B6"/>
<path d="M51.0879 408.702L86.0796 425.142L86.2933 424.711C88.0367 421.196 88.274 417.15 86.9529 413.464C85.6318 409.778 82.8605 406.754 79.2486 405.057L75.1971 397.334L60.9306 396.451L57.876 395.016L51.0879 408.702Z" fill="#151515"/>
<path d="M141.921 412.313L154.555 412.312L160.566 364.877L141.918 364.878L141.921 412.313Z" fill="#FFB6B6"/>
<path d="M141.475 425.142L180.33 425.14V424.662C180.33 420.758 178.737 417.015 175.901 414.254C173.064 411.494 169.218 409.943 165.207 409.943H165.206L158.109 404.702L144.866 409.944L141.475 409.944L141.475 425.142Z" fill="#151515"/>
<path d="M154.443 192.319L168.922 289.498L170.152 311.341L162.559 379.502L165.641 386.107L157.03 391.276H139.506L138.576 319.275L125.435 258.973L123.403 327.321L120.589 332.602C110.11 355.742 95.9939 363.319 86.0142 380.616L68.4898 371.377L68.8573 364.487C65.3367 362.752 74.143 357.682 74.9892 353.931L76.5218 347.214L86.7444 326.605L87.1345 319.347L84.3367 269.983L85.6532 203.507L108.64 186.4L154.443 192.319Z" fill="#151515"/>
<path d="M132.422 54.5494C144.996 54.5494 155.19 44.6285 155.19 32.3905C155.19 20.1525 144.996 10.2317 132.422 10.2317C119.849 10.2317 109.655 20.1525 109.655 32.3905C109.655 44.6285 119.849 54.5494 132.422 54.5494Z" fill="#FFB6B6"/>
<path d="M135.555 210.253C105.54 210.254 83.0248 199.251 82.7168 199.098L82.4501 198.964L82.5321 198.684C83.3379 195.937 84.1012 191.33 82.72 190.658C82.5714 190.603 82.4395 190.512 82.3366 190.393C82.2337 190.275 82.1631 190.134 82.1314 189.982C82.0522 189.43 82.6202 188.925 83.4064 188.226C84.9323 186.87 87.0223 185.012 85.7965 182.03C83.6356 176.773 89.7117 149.831 90.1046 148.104L87.5094 105.159C87.0365 96.9655 89.4766 88.8631 94.4195 82.2144C99.3624 75.5656 106.507 70.7759 114.651 68.6506L114.709 68.6357L114.768 68.6395C115.612 68.6857 116.506 65.8964 117.183 63.8553C118.184 60.8384 118.845 58.9847 119.973 59.0634C128.704 59.6114 134.521 59.9698 138.398 60.2041C145.748 60.6486 147.036 69.3498 147.194 70.7389C155.106 75.431 161.293 82.4352 164.873 90.7522C168.453 99.0692 169.242 108.274 167.129 117.054L163.466 132.385L160.228 139.752L161.295 154.285C166.317 158.349 164.878 166.663 164.592 168.068C169.376 172.885 166.438 178.555 165.726 179.755C166.95 181.212 167.784 182.942 168.151 184.79C168.518 186.638 168.408 188.545 167.829 190.341L172.236 204.28L171.904 204.393C160.212 208.322 147.923 210.303 135.555 210.253Z" fill="#00429A"/>
<path d="M276.606 64.8039C275.813 63.8064 274.805 62.9903 273.653 62.4131C272.501 61.8358 271.233 61.5114 269.938 61.4627C268.643 61.4141 267.353 61.6423 266.159 62.1314C264.964 62.6205 263.895 63.3585 263.025 64.2935L191.035 64.6748L170.581 74.2921L167.928 85.3147L200.978 83.9699L264.063 76.957C265.773 78.2748 267.921 78.9361 270.099 78.8156C272.278 78.695 274.335 77.801 275.881 76.303C277.427 74.805 278.355 72.807 278.488 70.6876C278.622 68.5683 277.953 66.4748 276.606 64.8039Z" fill="#FFB6B6"/>
<path d="M195.714 87.8483L167.691 100.75L141.711 90.1655L141.685 89.9611C141.196 86.2211 141.871 82.4242 143.622 79.0613C145.374 75.6985 148.121 72.9244 151.51 71.0978C156.932 68.1567 162.842 66.1652 168.971 65.2141C186.156 62.7261 189.641 61.7705 189.675 61.7609L190.053 61.6543L195.714 87.8483Z" fill="#00429A"/>
<path d="M113.117 46.3188C112.836 46.3199 112.557 46.2761 112.29 46.189C111.244 45.7428 110.37 44.9863 109.792 44.0275C105.757 38.3789 103.808 30.8478 104.001 21.6431C104.083 17.749 104.536 12.7701 107.338 8.80141C109.694 5.46424 114.461 2.81587 118.903 4.14526C118.852 3.28072 119.049 2.41951 119.472 1.6577C119.895 0.895889 120.528 0.263448 121.298 -0.169075C123 -1.02017 124.88 -1.48219 126.793 -1.51998C131.304 -1.93153 135.968 -2.35696 140.537 -1.51444C145.659 -0.568845 149.847 2.00075 152.027 5.53535L152.072 5.64639L152.515 7.74093C152.575 8.0225 152.696 8.28817 152.871 8.51964C153.046 8.75111 153.271 8.94287 153.53 9.08172C153.788 9.22058 154.075 9.30322 154.369 9.32396C154.664 9.34469 154.96 9.30303 155.236 9.20184C155.538 9.09128 155.864 9.05922 156.182 9.10881C156.501 9.15841 156.8 9.28793 157.052 9.48462C157.303 9.68132 157.497 9.93838 157.615 10.2304C157.733 10.5225 157.771 10.8394 157.724 11.1499L157.601 11.9831L158.889 11.7485C159.212 11.69 159.544 11.7157 159.853 11.823C160.162 11.9303 160.436 12.1153 160.647 12.3593C160.859 12.6032 161 12.8973 161.057 13.2117C161.113 13.526 161.083 13.8494 160.97 14.1488L160.606 15.1069C160.872 15.1085 161.136 15.1633 161.38 15.2679C161.624 15.3724 161.843 15.5245 162.024 15.7148C162.285 15.9875 162.449 16.3343 162.493 16.7043C162.537 17.0744 162.458 17.4483 162.267 17.7715C160.828 20.168 158.785 22.1684 156.331 23.5843C154.991 24.3693 153.524 24.9305 151.993 25.2447C142.058 27.3315 131.814 27.6312 121.768 26.1292C122.363 28.0577 122.592 30.0755 122.444 32.0839C122.357 33.2228 121.951 34.3169 121.271 35.2475C120.59 36.1781 119.661 36.9097 118.584 37.3632C118.124 37.5091 117.652 37.6198 117.174 37.6943C116.717 37.7636 116.266 37.8702 115.827 38.0128C115.177 38.2454 114.601 38.6408 114.157 39.1593C113.714 39.6777 113.419 40.3007 113.302 40.9656C113.185 41.6305 113.25 42.3136 113.491 42.9461C113.732 43.5786 114.14 44.1381 114.674 44.5682L115.671 43.5563L115.347 44.8427C115.279 45.0931 115.158 45.3268 114.991 45.5287C114.825 45.7306 114.616 45.8961 114.38 46.0145C113.991 46.2161 113.557 46.3207 113.117 46.3188Z" fill="#151515"/>
<path d="M265.579 316.383C337.389 316.383 395.602 260.59 395.602 191.766C395.602 122.942 337.389 67.1492 265.579 67.1492C193.769 67.1492 135.556 122.942 135.556 191.766C135.556 260.59 193.769 316.383 265.579 316.383Z" fill="#F0F0F0"/>
<path d="M373.313 191.766C373.33 206.709 369.959 221.472 363.44 235.001C363.24 235.418 363.033 235.836 362.826 236.253C352.856 256.13 336.658 272.411 316.567 282.749C316.146 282.965 315.724 283.18 315.303 283.389C299.916 291.065 282.869 295.053 265.579 295.022C259.582 295.023 253.594 294.549 247.676 293.603C247.205 293.527 246.733 293.45 246.269 293.367C224.124 289.532 203.762 279.065 188.023 263.426C187.694 263.099 187.365 262.766 187.03 262.432C171.956 247.116 162.144 227.619 158.953 206.639C158.889 206.18 158.817 205.721 158.76 205.262C155.848 183.931 159.931 162.249 170.427 143.309C170.648 142.899 170.884 142.488 171.113 142.085C179.196 128.035 190.513 115.998 204.176 106.916C204.568 106.651 204.961 106.394 205.354 106.137C218.556 97.5931 233.526 91.9791 249.205 89.6924C249.677 89.6298 250.148 89.5603 250.62 89.4977C255.577 88.8376 260.576 88.5077 265.579 88.5104C281.337 88.4853 296.911 91.795 311.223 98.2102C311.659 98.4049 312.088 98.5996 312.516 98.8012C325.903 105.018 337.828 113.857 347.544 124.765C347.858 125.112 348.173 125.467 348.473 125.821C360.217 139.311 368.159 155.54 371.52 172.916V172.923C371.613 173.375 371.691 173.827 371.77 174.286C372.799 180.058 373.315 185.907 373.313 191.766Z" fill="white"/>
<path d="M276.217 183.917C277.7 185.705 278.662 187.849 279.003 190.123L330.911 180.594C328.861 169.854 323.974 159.818 316.73 151.474L276.217 183.917Z" fill="#006BD6"/>
<path d="M332.541 181.482C332.477 181.023 332.391 180.571 332.305 180.119V180.112C330.213 169.141 325.225 158.888 317.831 150.36C317.524 150.005 317.21 149.65 316.896 149.31C310.936 142.7 303.684 137.311 295.563 133.456H295.556C295.127 133.254 294.706 133.053 294.27 132.858C282.359 127.534 269.132 125.636 256.149 127.386C255.677 127.442 255.206 127.511 254.734 127.588C245.327 129.037 236.338 132.396 228.351 137.447C227.951 137.698 227.551 137.955 227.158 138.219C218.388 144.005 211.139 151.718 205.997 160.734C205.768 161.137 205.54 161.547 205.311 161.964C198.888 173.863 196.474 187.427 198.41 200.736C198.467 201.202 198.539 201.661 198.624 202.112C200.787 214.933 206.886 226.815 216.12 236.197C216.442 236.531 216.77 236.865 217.113 237.191C226.833 246.727 239.304 253.159 252.87 255.632C253.341 255.722 253.813 255.798 254.284 255.875C268.74 258.21 283.585 255.993 296.656 249.547C297.078 249.339 297.492 249.123 297.914 248.901H297.921C310.279 242.466 320.277 232.453 326.533 220.247C326.747 219.829 326.954 219.412 327.154 218.995C332.799 207.307 334.677 194.229 332.541 181.482ZM325.854 218.418C325.654 218.842 325.447 219.259 325.233 219.669C319.102 231.598 309.323 241.383 297.242 247.677C296.82 247.893 296.399 248.108 295.977 248.317C283.191 254.626 268.668 256.792 254.527 254.498C254.056 254.429 253.577 254.352 253.113 254.262C239.857 251.842 227.669 245.559 218.164 236.246C217.821 235.919 217.492 235.585 217.163 235.252C208.141 226.08 202.172 214.472 200.039 201.946C199.96 201.494 199.889 201.035 199.825 200.576C197.931 187.555 200.29 174.284 206.569 162.639C206.783 162.229 207.012 161.818 207.247 161.408C212.289 152.574 219.396 145.019 227.994 139.352C228.387 139.088 228.78 138.831 229.18 138.588C236.979 133.663 245.753 130.385 254.934 128.964C255.399 128.888 255.87 128.818 256.349 128.763C269.055 127.05 282 128.91 293.656 134.124C294.091 134.311 294.52 134.513 294.942 134.715C302.878 138.477 309.967 143.739 315.795 150.193C316.11 150.54 316.424 150.895 316.724 151.25C323.968 159.594 328.855 169.629 330.905 180.37C330.991 180.822 331.069 181.274 331.141 181.739C333.216 194.205 331.373 206.989 325.854 218.418Z" fill="#CCCCCC"/>
<path d="M260.614 181.392L259.45 182.198L227.994 139.353L227.158 138.219L204.176 106.916C204.569 106.652 204.962 106.394 205.355 106.137L228.352 137.447L229.18 138.588L260.614 181.392Z" fill="#CCCCCC"/>
<path d="M254.992 186.933L254.299 188.157L206.569 162.639L205.312 161.964L170.427 143.309C170.648 142.898 170.884 142.488 171.113 142.085L205.997 160.734L207.248 161.408L254.992 186.933Z" fill="#CCCCCC"/>
<path d="M254.384 195.743L200.039 201.945L198.624 202.112L158.953 206.639C158.888 206.18 158.817 205.721 158.76 205.262L198.41 200.736L199.824 200.576L254.22 194.366L254.384 195.743Z" fill="#CCCCCC"/>
<path d="M257.892 200.416L218.163 236.246L217.113 237.192L188.022 263.426C187.694 263.099 187.365 262.766 187.029 262.432L216.12 236.197L217.163 235.252L256.92 199.394L257.892 200.416Z" fill="#CCCCCC"/>
<path d="M312.517 98.8012L295.564 133.456H295.556L294.942 134.715L271.766 182.094L270.48 181.496L293.656 134.124L294.27 132.858L311.224 98.2102C311.659 98.4049 312.088 98.5996 312.517 98.8012Z" fill="#CCCCCC"/>
<path d="M348.473 125.822L317.831 150.36L316.724 151.25L274.838 184.792L273.931 183.721L315.795 150.193L316.896 149.31L347.544 124.765C347.858 125.112 348.173 125.467 348.473 125.822Z" fill="#CCCCCC"/>
<path d="M371.769 174.285L332.541 181.482L331.141 181.739L277.46 191.592L277.195 190.229L330.905 180.37L332.305 180.119V180.112L371.519 172.923C371.612 173.375 371.691 173.827 371.769 174.285Z" fill="#CCCCCC"/>
<path d="M363.44 235.001C363.24 235.418 363.032 235.836 362.825 236.253L326.533 220.246L325.233 219.669L276.217 198.052L276.81 196.786L325.854 218.418L327.155 218.995L363.44 235.001Z" fill="#CCCCCC"/>
<path d="M316.567 282.749C316.145 282.965 315.724 283.18 315.302 283.389L296.656 249.547L295.977 248.317L270.494 202.064L271.752 201.41L297.242 247.677L297.913 248.901H297.92L316.567 282.749Z" fill="#CCCCCC"/>
<path d="M263.507 203.183L254.527 254.498L254.284 255.875L247.676 293.603C247.205 293.527 246.733 293.45 246.269 293.367L252.87 255.631L253.113 254.262L262.093 202.947L263.507 203.183Z" fill="#CCCCCC"/>
<path d="M263.915 180.599L262.5 180.794L254.935 128.964L254.735 127.588L249.205 89.6925C249.677 89.6299 250.148 89.5604 250.62 89.4978L256.149 127.386L256.349 128.763L263.915 180.599Z" fill="#CCCCCC"/>
<path d="M265.58 204.775C273.076 204.775 279.154 198.951 279.154 191.766C279.154 184.581 273.076 178.757 265.58 178.757C258.083 178.757 252.006 184.581 252.006 191.766C252.006 198.951 258.083 204.775 265.58 204.775Z" fill="#00429A"/>
<path d="M544.808 555.448L534.648 563.727L496.998 529.526L511.993 517.305L544.808 555.448Z" fill="#A0616A"/>
<path d="M554.04 565.472L522.797 590.934L522.466 590.549C519.765 587.41 518.457 583.356 518.827 579.278C519.198 575.199 521.218 571.432 524.443 568.803L524.444 568.802L526.525 559.937L540.799 555.474L543.526 553.251L554.04 565.472Z" fill="#151515"/>
<path d="M454.031 587.022L440.781 587.021L434.477 537.273L454.035 537.274L454.031 587.022Z" fill="#A0616A"/>
<path d="M454.498 600.476L413.748 600.475V599.973C413.748 595.879 415.42 591.953 418.394 589.058C421.368 586.163 425.403 584.536 429.609 584.536L437.054 579.04L450.942 584.537L454.499 584.537L454.498 600.476Z" fill="#151515"/>
<path d="M487.176 348.96C490.377 352.854 488.776 366.095 488.776 366.095L489.561 448.559C503.166 459.463 513.585 504.737 513.585 504.737L526.575 527.998C524.975 532.672 514.591 550.946 511.39 550.167C509.905 549.806 491.417 533.211 479.121 508.6C464.918 480.171 456.765 443.205 456.765 443.205C456.765 443.205 458.366 549.134 458.366 553.807C458.366 558.481 436.759 556.144 431.957 556.144C427.155 556.144 402.439 365.316 402.439 365.316V354.412L406.441 348.96C406.441 348.96 483.975 345.065 487.176 348.96Z" fill="#151515"/>
<path d="M315.145 172.89L305.44 177.298L316.256 175.094C316.256 175.094 324.203 175.409 324.203 172.26L337.142 165.333C337.142 165.333 348.141 171.001 351.376 167.852C354.611 164.704 348.788 158.407 348.788 158.407C348.788 158.407 352.686 156.315 352.354 155.472C352.023 154.629 346.847 155.888 346.847 155.888C346.847 155.888 334.554 148.962 335.201 160.926L322.262 169.275C322.262 169.275 315.792 169.112 315.145 172.89Z" fill="#00429A"/>
<path d="M491.622 375.925C474.639 384.126 454.43 386.607 435.394 384.429C418.984 382.548 415.572 364.703 400.34 358.372C405.153 344.912 405.211 327.044 404.398 322.03C403.006 313.468 402.748 253.79 407.845 247.575C414.53 239.422 424.736 235.067 424.272 224.645L425.702 226.074C423.895 221.448 427.394 216.152 432 214.059C436.606 211.967 441.927 212.232 447.002 212.54C451.275 212.8 455.548 213.061 459.822 213.321C459.263 215.019 459.127 216.822 459.427 218.581C459.727 220.339 460.454 222.003 461.546 223.434C469.121 221.4 477.111 226.807 480.494 233.702C483.878 240.601 483.796 248.563 483.643 256.207C483.469 265.051 490.203 327.159 482.055 331.09C486.257 332.12 492.197 353.932 488.612 351.569C490.271 352.7 489.87 363.262 491.622 375.925Z" fill="#006BD6"/>
<path d="M326.538 162.611C328.369 162.087 330.296 161.96 332.183 162.24C334.07 162.519 335.871 163.198 337.46 164.228C339.048 165.258 340.385 166.615 341.377 168.202C342.368 169.789 342.99 171.569 343.198 173.416L415.258 235.081L402.246 243.494L330.725 187.656C327.514 187.791 324.364 186.775 321.872 184.801C319.379 182.826 317.718 180.031 317.202 176.943C316.686 173.856 317.351 170.692 319.072 168.051C320.792 165.409 323.449 163.474 326.538 162.611Z" fill="#A0616A"/>
<path d="M404.139 215.188C402.561 215.276 365.321 188.829 364.368 190.056L361.865 203.266L354.981 212.126L369.862 227.479L374.114 230.873L376.847 233.686C375.891 234.931 382.238 241.601 382.582 243.123C382.748 243.868 383.077 244.57 383.546 245.18C384.015 245.791 384.613 246.297 385.301 246.663L409.516 259.45C412.744 261.783 416.791 262.775 420.769 262.208C424.747 261.641 428.332 259.562 430.738 256.426C433.144 253.29 434.174 249.354 433.602 245.481C433.03 241.607 430.904 238.112 427.688 235.763L424.117 232.246L418.646 226.85L408.407 216.758C407.855 216.212 407.187 215.788 406.45 215.517C405.713 215.246 404.925 215.134 404.139 215.188Z" fill="#006BD6"/>
<path d="M444.312 205.556C458.819 205.556 470.579 194.11 470.579 179.99C470.579 165.871 458.819 154.425 444.312 154.425C429.804 154.425 418.044 165.871 418.044 179.99C418.044 194.11 429.804 205.556 444.312 205.556Z" fill="#A0616A"/>
<path d="M475.647 171.894C474.186 166.252 468.738 161.331 462.789 161.901C463.524 157.555 460.551 153.179 456.545 151.13C452.538 149.082 447.752 148.994 443.286 149.707C440.692 150.165 438.124 150.749 435.59 151.457C433.441 152.02 423.363 148.662 421.228 149.275C419.402 149.799 415.008 156.166 413.622 157.436C412.236 158.706 411.502 160.843 412.428 162.462C413.342 164.061 415.434 164.581 417.307 164.731C419.18 164.881 421.193 164.854 422.748 165.882C424.746 167.203 425.312 169.836 425.231 172.186C425.15 174.536 424.596 176.905 425.047 179.215C425.498 181.525 427.418 183.832 429.828 183.674C431.633 181.822 434.929 181.941 436.999 183.507C437.988 184.349 438.779 185.39 439.317 186.557C439.854 187.724 440.127 188.991 440.115 190.27C440.072 192.825 439.664 195.362 438.903 197.807C438.469 199.495 438.142 201.542 439.427 202.752C440.184 203.34 441.094 203.709 442.056 203.821C445.848 204.605 460.08 203.541 463.873 204.325L463.579 203.761C466.327 198.594 469.973 193.916 472.673 188.725C475.373 183.534 477.108 177.536 475.647 171.894Z" fill="#151515"/>
<path d="M515.966 383.041C514.11 382.609 512.374 381.785 510.88 380.629C509.386 379.472 508.171 378.011 507.32 376.348C506.469 374.685 506.003 372.861 505.955 371.004C505.907 369.147 506.278 367.302 507.041 365.6L476.072 277.209L491.66 276.215L525.142 359.29C527.996 360.728 530.208 363.135 531.36 366.055C532.512 368.975 532.524 372.205 531.393 375.132C530.262 378.06 528.067 380.482 525.224 381.94C522.381 383.397 519.087 383.789 515.966 383.041Z" fill="#A0616A"/>
<path d="M468.901 288.765C470.314 289.452 489.091 330.431 490.545 329.828L499.471 319.583L509.972 315.232L504.915 294.708L502.963 289.704L502.031 285.941C503.497 285.324 501.403 276.464 501.883 274.978C502.12 274.251 502.193 273.483 502.099 272.726C502.004 271.969 501.743 271.241 501.334 270.59L486.87 247.77C485.263 244.182 482.26 241.362 478.52 239.926C474.779 238.49 470.606 238.557 466.916 240.112C463.226 241.666 460.32 244.581 458.835 248.218C457.35 251.855 457.408 255.917 458.995 259.512L460.296 264.292L462.281 271.623L466.001 285.335C466.201 286.077 466.563 286.768 467.064 287.36C467.564 287.952 468.191 288.431 468.901 288.765Z" fill="#006BD6"/>
<path d="M588.731 585.849L581.413 574.404L579.952 580.944C579.695 582.089 579.439 583.253 579.202 584.408C577.124 582.68 574.912 581.082 572.748 579.549C566.105 574.856 559.464 570.158 552.827 565.453L554.906 577.184C556.187 584.408 557.525 591.779 560.695 598.383C561.046 599.132 561.426 599.871 561.834 600.591H592.717C592.965 599.922 593.137 599.228 593.23 598.522C593.237 598.476 593.24 598.43 593.239 598.384C593.723 593.903 591.179 589.682 588.731 585.849Z" fill="#F0F0F0"/>
<path d="M614.87 601.716L353.162 602C352.863 602 352.575 601.884 352.363 601.678C352.151 601.472 352.032 601.192 352.032 600.9C352.032 600.608 352.151 600.329 352.363 600.122C352.575 599.916 352.863 599.8 353.162 599.8L614.87 599.516C615.019 599.516 615.166 599.544 615.303 599.599C615.441 599.654 615.566 599.735 615.671 599.837C615.776 599.94 615.86 600.061 615.917 600.195C615.974 600.328 616.003 600.472 616.003 600.616C616.003 600.761 615.974 600.904 615.917 601.038C615.86 601.172 615.776 601.293 615.671 601.395C615.566 601.497 615.441 601.578 615.303 601.633C615.166 601.688 615.019 601.716 614.87 601.716Z" fill="#CACACA"/>
<path d="M236.698 409.907L229.381 398.462L227.92 405.002C227.663 406.147 227.407 407.311 227.17 408.466C225.091 406.738 222.88 405.14 220.716 403.607C214.073 398.914 207.432 394.216 200.795 389.511L202.873 401.242C204.155 408.466 205.493 415.837 208.663 422.441C209.014 423.19 209.394 423.929 209.802 424.649H240.685C240.933 423.98 241.105 423.286 241.197 422.58C241.205 422.534 241.208 422.488 241.207 422.441C241.691 417.961 239.147 413.74 236.698 409.907Z" fill="#F0F0F0"/>
<path d="M262.838 425.774L1.13067 426.058C0.831532 426.057 0.544961 425.941 0.333742 425.735C0.122524 425.528 0.00390625 425.249 0.00390625 424.958C0.00390625 424.667 0.122524 424.388 0.333742 424.181C0.544961 423.975 0.831532 423.859 1.13067 423.858L262.838 423.574C262.987 423.574 263.134 423.602 263.272 423.657C263.409 423.712 263.534 423.793 263.639 423.895C263.745 423.997 263.828 424.119 263.885 424.252C263.942 424.386 263.972 424.529 263.972 424.674C263.972 424.819 263.942 424.962 263.885 425.096C263.828 425.229 263.745 425.351 263.639 425.453C263.534 425.555 263.409 425.636 263.272 425.691C263.134 425.746 262.987 425.774 262.838 425.774Z" fill="#CACACA"/>
<path d="M141.797 213.413C140.564 213.023 139.435 212.375 138.488 211.515C137.54 210.654 136.799 209.602 136.314 208.432C135.83 207.262 135.615 206.003 135.685 204.744C135.755 203.485 136.108 202.255 136.718 201.143L112.784 135.061L115.181 113.075L124.945 106.924L134.802 137.656L149.316 197.819C151.168 198.941 152.533 200.685 153.151 202.722C153.77 204.758 153.6 206.944 152.673 208.866C151.746 210.789 150.127 212.313 148.123 213.151C146.118 213.989 143.867 214.082 141.797 213.413Z" fill="#FFB6B6"/>
<path d="M99.8877 89.9513L122.524 81.4236L135.667 124.063L105.331 133.419L99.8877 89.9513Z" fill="#00429A"/>
</g>
<defs>
<clipPath id="clip0_43_336">
<rect width="616" height="604" fill="white" transform="translate(0 -2)"/>
</clipPath>
</defs>
</svg>
