<svg width="66" height="56" viewBox="0 0 66 56" fill="none" xmlns="http://www.w3.org/2000/svg">
<path d="M31.4151 8.26029L27.9405 4.78552L28.5196 4.20628C29.4792 3.24684 29.4792 1.69095 28.5196 0.731345C27.5601 -0.228264 26.0044 -0.228264 25.0446 0.731345L0.719583 25.0561C-0.239861 26.0155 -0.239861 27.5714 0.719583 28.531C1.19955 29.0108 1.82826 29.2508 2.45713 29.2508C2.81932 29.2508 3.18053 29.1686 3.51437 29.0092L27.3604 52.8554L27.3613 52.8564C28.7984 54.2933 30.6861 55.0115 32.5737 55.0115C34.4612 55.0115 36.3489 54.2928 37.7856 52.856C39.082 51.56 39.8353 49.8657 39.9333 48.0491C41.682 47.9525 43.4027 47.2389 44.7354 45.9062C46.0695 44.5721 46.7832 42.8496 46.8789 41.0994C48.6289 41.0038 50.3516 40.2899 51.6858 38.9563C51.6884 38.9537 51.6907 38.9509 51.6935 38.9483C52.6507 37.7986 54.277 34.513 53.1246 30.5673C52.7735 29.8305 52.2948 29.1401 51.6858 28.531C51.6851 28.5305 51.6845 28.53 51.684 28.5295L41.6942 18.5537L38.3653 22.1604L48.211 32.0061L48.2123 32.0072C49.1682 32.9642 49.1687 34.5196 48.2143 35.4776L48.2112 35.4809C48.2107 35.4814 48.2102 35.482 48.2097 35.4825C47.2516 36.4385 45.6949 36.4383 44.7372 35.4822C44.7366 35.4815 44.7359 35.4807 44.7353 35.48L41.261 32.0061C40.3015 31.0465 38.7457 31.0467 37.7861 32.0063C36.8265 32.9659 36.8265 34.5216 37.7862 35.4812L41.258 38.9527C41.2592 38.9538 41.26 38.955 41.261 38.9561C42.219 39.9141 42.219 41.4731 41.2607 42.4312C40.3033 43.3889 38.745 43.3892 37.7867 42.4317L37.7861 42.4311L34.3108 38.956C33.351 37.9965 31.7955 37.9965 30.8357 38.9561C29.8762 39.9157 29.8763 41.4715 30.8359 42.4311L34.3095 45.9045C34.31 45.9052 34.3105 45.9057 34.311 45.9062C34.3115 45.9067 34.3121 45.9072 34.3128 45.9078C34.7757 46.3717 35.0309 46.988 35.0309 47.6436C35.0309 48.2998 34.775 48.9169 34.3108 49.3813C33.3528 50.3392 31.7942 50.3391 30.8359 49.3809L7.09071 25.6353L24.4656 8.26046L27.9402 11.7352L31.4151 8.26029Z" fill="#006BD6"/>
<path d="M64.4276 27.3728L37.7859 0.731181C36.8263 -0.228428 35.2706 -0.228428 34.311 0.731181C33.3515 1.69079 33.3515 3.24651 34.311 4.20612L34.8902 4.78536L31.4151 8.26029L27.9402 11.7352L22.728 16.9475C22.7273 16.948 22.727 16.9487 22.7264 16.9492C19.8541 19.8234 19.8544 24.4988 22.728 27.3725C24.1648 28.8096 26.0526 29.5281 27.9402 29.5281C29.8269 29.528 31.7137 28.8103 33.1505 27.3747C33.1513 27.374 33.1522 27.3735 33.1528 27.3728L38.3653 22.1604L41.6942 18.5537L40.1028 16.948C39.1434 15.9884 37.5875 15.9886 36.6279 16.948L29.6777 23.8981L29.6774 23.8984C28.7189 24.8562 27.1604 24.8559 26.2028 23.8982C25.2448 22.9401 25.2448 21.3813 26.2024 20.4233L26.2029 20.423L33.1523 13.4734L33.1526 13.4731L33.1528 13.4728L38.3648 8.26046L56.8983 26.7934L53.1246 30.5673C54.277 34.513 52.6507 37.7986 51.6935 38.9483L60.3729 30.2685L60.9523 30.8479C61.4319 31.3278 62.061 31.5677 62.6895 31.5677C63.3186 31.5677 63.9473 31.3279 64.4271 30.8479C65.3872 29.8882 65.3872 28.3323 64.4276 27.3728Z" fill="#00429A"/>
</svg>
