<svg width="130" height="80" viewBox="0 0 130 80" fill="none" xmlns="http://www.w3.org/2000/svg">
<path opacity="0.5" fill-rule="evenodd" clip-rule="evenodd" d="M0.648438 5.21739C0.648438 2.33593 2.98437 0 5.86583 0H124.127C127.008 0 129.344 2.33593 129.344 5.21739C129.344 8.09885 127.008 10.4348 124.127 10.4348H5.86583C2.98437 10.4348 0.648438 8.09885 0.648438 5.21739ZM0.648438 40C0.648438 37.1186 2.98437 34.7826 5.86583 34.7826H61.518C64.3994 34.7826 66.7354 37.1186 66.7354 40C66.7354 42.8814 64.3994 45.2174 61.518 45.2174H5.86583C2.98437 45.2174 0.648438 42.8814 0.648438 40ZM0.648438 74.7826C0.648438 71.9012 2.98437 69.5652 5.86583 69.5652H61.518C64.3994 69.5652 66.7354 71.9012 66.7354 74.7826C66.7354 77.664 64.3994 80 61.518 80H5.86583C2.98437 80 0.648438 77.664 0.648438 74.7826Z" fill="#AAAAAA"/>
<path d="M85.6639 36.3065C87.7015 34.2689 91.0044 34.2689 93.042 36.3065L106.744 50.0081L120.447 36.3065C122.484 34.2689 125.787 34.2689 127.825 36.3065C129.862 38.3441 129.862 41.647 127.825 43.6846L114.123 57.3868L127.825 71.0891C129.862 73.1267 129.862 76.4296 127.825 78.4672C125.787 80.5047 122.484 80.5047 120.447 78.4672L106.744 64.7656L93.042 78.4672C91.0044 80.5047 87.7015 80.5047 85.6639 78.4672C83.6264 76.4296 83.6264 73.1267 85.6639 71.0891L99.3655 57.3868L85.6639 43.6846C83.6264 41.647 83.6264 38.3441 85.6639 36.3065Z" fill="#AAAAAA"/>
</svg>
