<svg width="25" height="20" viewBox="0 0 25 20" fill="none" xmlns="http://www.w3.org/2000/svg">
<path d="M0 2.5C0 1.83696 0.263392 1.20107 0.732233 0.732233C1.20107 0.263392 1.83696 0 2.5 0H13.75C14.413 0 15.0489 0.263392 15.5178 0.732233C15.9866 1.20107 16.25 1.83696 16.25 2.5V5C16.25 5.33152 16.1183 5.64946 15.8839 5.88388C15.6495 6.1183 15.3315 6.25 15 6.25C14.6685 6.25 14.3505 6.1183 14.1161 5.88388C13.8817 5.64946 13.75 5.33152 13.75 5V2.5H2.5V17.5H13.75V15C13.75 14.6685 13.8817 14.3505 14.1161 14.1161C14.3505 13.8817 14.6685 13.75 15 13.75C15.3315 13.75 15.6495 13.8817 15.8839 14.1161C16.1183 14.3505 16.25 14.6685 16.25 15V17.5C16.25 18.163 15.9866 18.7989 15.5178 19.2678C15.0489 19.7366 14.413 20 13.75 20H2.5C1.83696 20 1.20107 19.7366 0.732233 19.2678C0.263392 18.7989 0 18.163 0 17.5V2.5ZM19.1162 5.36625C19.3507 5.13191 19.6685 5.00027 20 5.00027C20.3315 5.00027 20.6493 5.13191 20.8838 5.36625L24.6338 9.11625C24.8681 9.35066 24.9997 9.66854 24.9997 10C24.9997 10.3315 24.8681 10.6493 24.6338 10.8837L20.8838 14.6337C20.648 14.8614 20.3322 14.9874 20.0045 14.9846C19.6768 14.9817 19.3632 14.8503 19.1315 14.6185C18.8997 14.3868 18.7683 14.0732 18.7654 13.7455C18.7626 13.4178 18.8886 13.102 19.1162 12.8663L20.7325 11.25H8.75C8.41848 11.25 8.10054 11.1183 7.86612 10.8839C7.6317 10.6495 7.5 10.3315 7.5 10C7.5 9.66848 7.6317 9.35054 7.86612 9.11612C8.10054 8.8817 8.41848 8.75 8.75 8.75H20.7325L19.1162 7.13375C18.8819 6.89934 18.7503 6.58146 18.7503 6.25C18.7503 5.91854 18.8819 5.60066 19.1162 5.36625Z" fill="#FA4659"/>
</svg>
