<svg width="150" height="150" viewBox="0 0 150 150" fill="none" xmlns="http://www.w3.org/2000/svg">
<g opacity="0.5">
<path d="M85.4167 45.8333C81.965 45.8333 79.1667 48.6316 79.1667 52.0833C79.1667 55.5351 81.965 58.3333 85.4167 58.3333H114.583C118.035 58.3333 120.833 55.5351 120.833 52.0833C120.833 48.6316 118.035 45.8333 114.583 45.8333H85.4167Z" fill="#AAAAAA"/>
<path d="M79.1675 97.9167C79.1675 94.465 81.965 91.6667 85.4175 91.6667H114.583C118.035 91.6667 120.833 94.465 120.833 97.9167C120.833 101.368 118.035 104.167 114.583 104.167H85.4175C81.965 104.167 79.1675 101.368 79.1675 97.9167Z" fill="#AAAAAA"/>
<path d="M64.8358 39.3306C67.2767 41.7713 67.2767 45.7287 64.8358 48.1694L48.1694 64.8358C45.7287 67.2767 41.7713 67.2767 39.3306 64.8358L30.9972 56.5027C28.5565 54.062 28.5565 50.1047 30.9972 47.6639C33.438 45.2232 37.3953 45.2232 39.8361 47.6639L43.75 51.5778L55.9972 39.3306C58.4383 36.8898 62.395 36.8898 64.8358 39.3306Z" fill="#AAAAAA"/>
<path d="M64.8358 94.0025C67.2767 91.5617 67.2767 87.605 64.8358 85.1642C62.395 82.7233 58.4383 82.7233 55.9972 85.1642L43.75 97.4108L39.8361 93.4975C37.3953 91.0567 33.438 91.0567 30.9972 93.4975C28.5565 95.9383 28.5565 99.895 30.9972 102.336L39.3306 110.669C41.7713 113.11 45.7287 113.11 48.1694 110.669L64.8358 94.0025Z" fill="#AAAAAA"/>
<path d="M18.75 0C8.39467 0 0 8.39467 0 18.75V131.25C0 141.605 8.39467 150 18.75 150H131.25C141.605 150 150 141.605 150 131.25V18.75C150 8.39467 141.605 0 131.25 0H18.75ZM12.5 18.75C12.5 15.2983 15.2983 12.5 18.75 12.5H131.25C134.702 12.5 137.5 15.2983 137.5 18.75V131.25C137.5 134.702 134.702 137.5 131.25 137.5H18.75C15.2983 137.5 12.5 134.702 12.5 131.25V18.75Z" fill="#AAAAAA"/>
</g>
</svg>
