<svg width="200" height="200" viewBox="0 0 200 200" fill="none" xmlns="http://www.w3.org/2000/svg">
<g clip-path="url(#clip0_297_232)">
<path d="M183.333 125.47V9.44C183.333 4.23667 179.096 0 173.893 0H12.7763C7.56967 0 3.33301 4.23667 3.33301 9.44V190.56C3.33301 195.763 7.56967 200 12.7763 200H153.333C177.226 200 196.666 180.56 196.666 156.667C196.666 144.417 191.533 133.36 183.333 125.47ZM12.7763 6.66667H173.893C175.423 6.66667 176.666 7.91 176.666 9.44V96.6667H9.99967V9.44C9.99967 7.91 11.2463 6.66667 12.7763 6.66667ZM130.26 193.333H12.7763C11.2463 193.333 9.99967 192.09 9.99967 190.56V103.333H176.666V120.197C176.333 119.983 175.99 119.797 175.65 119.593C174.613 118.967 173.553 118.383 172.463 117.843C171.953 117.59 171.446 117.337 170.926 117.103C170.343 116.843 169.75 116.603 169.15 116.367C168.556 116.13 167.953 115.913 167.35 115.707C166.806 115.52 166.266 115.327 165.71 115.16C164.613 114.83 163.503 114.543 162.383 114.303C161.983 114.22 161.573 114.16 161.17 114.083C160.266 113.917 159.356 113.777 158.44 113.667C158.033 113.62 157.63 113.573 157.223 113.533C155.936 113.413 154.64 113.333 153.333 113.333C129.44 113.333 110 132.773 110 156.667C110 157.997 110.083 159.307 110.2 160.61C110.226 160.913 110.256 161.213 110.29 161.513C110.433 162.787 110.616 164.047 110.866 165.283C110.896 165.43 110.936 165.57 110.966 165.713C111.206 166.843 111.5 167.953 111.826 169.047C111.906 169.32 111.986 169.59 112.07 169.86C112.446 171.037 112.866 172.19 113.34 173.32C113.426 173.53 113.526 173.733 113.616 173.94C114.05 174.93 114.52 175.903 115.023 176.853C115.14 177.077 115.25 177.3 115.373 177.52C115.96 178.583 116.59 179.613 117.26 180.62C117.41 180.843 117.563 181.06 117.716 181.28C118.333 182.167 118.976 183.033 119.653 183.87C119.776 184.023 119.893 184.18 120.016 184.33C120.79 185.26 121.606 186.15 122.453 187.01C122.656 187.217 122.863 187.417 123.07 187.62C123.89 188.423 124.736 189.2 125.62 189.937C125.693 189.997 125.76 190.063 125.833 190.123C126.776 190.9 127.763 191.627 128.77 192.323C129.01 192.49 129.25 192.653 129.493 192.813C129.753 192.987 130 193.17 130.26 193.333ZM153.333 193.333C133.116 193.333 116.666 176.883 116.666 156.667C116.666 136.45 133.116 120 153.333 120C154.523 120 155.7 120.067 156.86 120.18C157.396 120.233 157.926 120.327 158.46 120.403C159.063 120.487 159.67 120.563 160.263 120.68C160.933 120.81 161.593 120.98 162.253 121.147C162.686 121.257 163.123 121.357 163.55 121.48C164.28 121.693 165.003 121.943 165.72 122.203C166.053 122.323 166.39 122.44 166.72 122.57C167.48 122.87 168.226 123.2 168.966 123.553C169.233 123.68 169.5 123.803 169.76 123.937C170.53 124.327 171.286 124.743 172.03 125.187C172.24 125.313 172.45 125.437 172.656 125.567C173.426 126.047 174.176 126.553 174.913 127.093C175.076 127.213 175.236 127.333 175.4 127.457C176.15 128.023 176.883 128.623 177.593 129.25C185.183 135.973 190 145.757 190 156.667C190 176.883 173.55 193.333 153.333 193.333Z" fill="#AAAAAA"/>
<path d="M173.333 153.333H133.333C131.493 153.333 130 154.823 130 156.667C130 158.51 131.493 160 133.333 160H173.333C175.173 160 176.667 158.51 176.667 156.667C176.667 154.823 175.173 153.333 173.333 153.333Z" fill="#AAAAAA"/>
<path d="M150 136.667V176.667C150 178.507 151.49 180 153.333 180C155.177 180 156.667 178.507 156.667 176.667V136.667C156.667 134.827 155.177 133.333 153.333 133.333C151.49 133.333 150 134.827 150 136.667Z" fill="#AAAAAA"/>
<path d="M75.0163 60H111.653C118.093 60 123.333 54.76 123.333 48.3167V43.3333C123.333 41.49 121.84 40 120 40C118.16 40 116.666 41.49 116.666 43.3333V48.3167C116.666 51.0833 114.416 53.3333 111.653 53.3333H75.0163C72.2497 53.3333 69.9997 51.0833 69.9997 48.3167V43.3333C69.9997 41.49 68.5063 40 66.6663 40C64.8263 40 63.333 41.49 63.333 43.3333V48.3167C63.333 54.76 68.573 60 75.0163 60Z" fill="#AAAAAA"/>
<path d="M99.9997 150H75.0163C72.2497 150 69.9997 147.75 69.9997 144.983V140C69.9997 138.157 68.5063 136.667 66.6663 136.667C64.8263 136.667 63.333 138.157 63.333 140V144.983C63.333 151.426 68.573 156.667 75.0163 156.667H99.9997C101.84 156.667 103.333 155.177 103.333 153.333C103.333 151.49 101.84 150 99.9997 150Z" fill="#AAAAAA"/>
</g>
<defs>
<clipPath id="clip0_297_232">
<rect width="200" height="200" fill="white"/>
</clipPath>
</defs>
</svg>
