<svg width="109" height="30" viewBox="0 0 109 30" fill="none" xmlns="http://www.w3.org/2000/svg">
<g clip-path="url(#clip0_59_2205)">
<path d="M8.06211 26.4375H12.7496C14.0996 26.4375 15.2496 26.2375 16.1996 25.8375C17.1496 25.4125 17.9496 24.7875 18.5996 23.9625C19.2746 23.1125 19.7871 22.025 20.1371 20.7C20.4871 19.375 20.6621 17.8 20.6621 15.975C20.6621 12.425 19.9746 9.7125 18.5996 7.8375C17.9246 6.9125 17.0746 6.225 16.0496 5.775C15.0496 5.3 13.8246 5.0625 12.3746 5.0625H8.06211V26.4375ZM0.0371094 2.25H13.7621C17.4871 2.25 20.3871 3.3 22.4621 5.4C23.6371 6.6 24.5371 8.075 25.1621 9.825C25.7871 11.575 26.0996 13.45 26.0996 15.45C26.0996 17.55 25.7621 19.525 25.0871 21.375C24.4371 23.2 23.5246 24.7375 22.3496 25.9875C20.2746 28.1625 17.2996 29.25 13.4246 29.25H0.0371094V27.075L3.18711 26.2875V5.2125L0.0371094 4.425V2.25ZM48.9857 19.125C48.9857 20.725 48.7482 22.2375 48.2732 23.6625C47.8232 25.0625 47.1607 26.2375 46.2857 27.1875C45.4607 28.0625 44.4607 28.6875 43.2857 29.0625C42.1357 29.4375 40.7857 29.625 39.2357 29.625C37.6857 29.625 36.3232 29.4375 35.1482 29.0625C33.9982 28.6875 33.0107 28.0625 32.1857 27.1875C31.3107 26.2375 30.6357 25.0625 30.1607 23.6625C29.7107 22.2375 29.4857 20.725 29.4857 19.125C29.4857 17.525 29.7107 16.0125 30.1607 14.5875C30.6357 13.1625 31.3107 11.9875 32.1857 11.0625C33.0107 10.1875 33.9982 9.5625 35.1482 9.1875C36.3232 8.8125 37.6857 8.625 39.2357 8.625C40.7857 8.625 42.1357 8.8125 43.2857 9.1875C44.4607 9.5625 45.4607 10.1875 46.2857 11.0625C47.1607 11.9875 47.8232 13.1625 48.2732 14.5875C48.7482 16.0125 48.9857 17.525 48.9857 19.125ZM35.8232 25.6125C36.1732 26.1125 36.6232 26.4875 37.1732 26.7375C37.7482 26.9875 38.4357 27.1125 39.2357 27.1125C40.0357 27.1125 40.7232 26.9875 41.2982 26.7375C41.8732 26.4875 42.3232 26.1125 42.6482 25.6125C43.4482 24.3875 43.8482 22.225 43.8482 19.125C43.8482 17.55 43.7482 16.225 43.5482 15.15C43.3482 14.075 43.0482 13.2375 42.6482 12.6375C42.3232 12.1375 41.8732 11.7625 41.2982 11.5125C40.7232 11.2625 40.0357 11.1375 39.2357 11.1375C38.4357 11.1375 37.7482 11.2625 37.1732 11.5125C36.6232 11.7625 36.1732 12.1375 35.8232 12.6375C35.0232 13.8625 34.6232 16.025 34.6232 19.125C34.6232 22.225 35.0232 24.3875 35.8232 25.6125ZM54.4514 26.4V2.85L51.5639 2.1375V0H59.2139V26.4L62.1014 27.1125V29.25H51.5639V27.1125L54.4514 26.4ZM63.5329 11.4375V9.525L67.2079 9L67.6579 4.35L71.9329 3.75V9H76.7329V11.4375H71.9329V23.7C71.9329 24.55 71.9454 25.1375 71.9704 25.4625C71.9954 25.7625 72.0454 26.0125 72.1204 26.2125C72.1954 26.3625 72.3329 26.475 72.5329 26.55C72.7329 26.625 73.0579 26.6625 73.5079 26.6625H76.1329V28.3125C74.6829 28.7625 73.3954 29.0875 72.2704 29.2875C71.1704 29.5125 70.2954 29.625 69.6454 29.625C68.5204 29.625 67.7954 29.1625 67.4704 28.2375C67.3704 27.9375 67.2954 27.55 67.2454 27.075C67.1954 26.6 67.1704 25.9 67.1704 24.975V11.4375H63.5329Z" fill="#00429A"/>
<path d="M107.188 21.25V8.4375C107.188 6.02125 105.229 4.0625 102.812 4.0625H84.875C84.7369 4.0625 84.625 4.17437 84.625 4.3125V28.5625C84.625 28.7006 84.7369 28.8125 84.875 28.8125H96.5M99.4375 26.1875L102.134 29.0597C102.231 29.1635 102.395 29.1651 102.495 29.0634L107.75 23.6875M91.5 22.4375H100M91.5 16.5H100M91.5 10.6875H100" stroke="#006BD6" stroke-width="2" stroke-linecap="round" stroke-linejoin="round"/>
</g>
<defs>
<clipPath id="clip0_59_2205">
<rect width="108.625" height="30" fill="white"/>
</clipPath>
</defs>
</svg>
