<svg width="676" height="470" viewBox="0 0 676 470" fill="none" xmlns="http://www.w3.org/2000/svg">
<g clip-path="url(#clip0_61_771)">
<path d="M134.923 469.893C209.223 469.893 269.456 465.318 269.456 459.675C269.456 454.032 209.223 449.458 134.923 449.458C60.6222 449.458 0.389648 454.032 0.389648 459.675C0.389648 465.318 60.6222 469.893 134.923 469.893Z" fill="#F0F0F0"/>
<path d="M103.225 104.345C126.637 94.3863 155.798 100.696 184.277 105.075C184.542 99.7717 187.755 93.3177 184.39 89.618C180.302 85.1233 180.678 80.4005 183.138 75.6506C189.429 63.5043 180.416 50.58 171.316 39.8336C169.265 37.4169 166.673 35.518 163.75 34.2912C160.827 33.0645 157.656 32.5444 154.495 32.7733L137.638 33.9774C133.536 34.2704 129.621 35.8091 126.417 38.3878C123.214 40.9664 120.874 44.4619 119.711 48.4066C115.686 53.8809 113.532 59.34 114.888 64.7707C108.859 68.8909 107.846 73.8643 110.556 79.471C112.853 83.0011 112.829 86.4374 110.451 89.7786C107.329 94.0383 104.938 98.7881 103.375 103.833L103.225 104.345Z" fill="#151515"/>
<path d="M659.61 406.23H182.428C178.184 406.23 174.115 404.544 171.114 401.543C168.113 398.543 166.428 394.473 166.428 390.229C339.406 370.126 509.134 370.126 675.61 390.229C675.61 394.473 673.924 398.543 670.924 401.543C667.923 404.544 663.853 406.23 659.61 406.23Z" fill="#151515"/>
<path d="M675.61 391.17L166.428 390.229L225.44 290.934L225.723 290.463V71.628C225.722 68.9718 226.245 66.3415 227.262 63.8875C228.278 61.4335 229.768 59.2037 231.646 57.3255C233.524 55.4472 235.754 53.9574 238.208 52.941C240.662 51.9246 243.292 51.4016 245.949 51.4019H593.266C595.922 51.4016 598.552 51.9246 601.006 52.941C603.46 53.9574 605.69 55.4472 607.568 57.3255C609.446 59.2037 610.936 61.4335 611.952 63.8875C612.969 66.3415 613.492 68.9718 613.492 71.628V291.969L675.61 391.17Z" fill="#AAAAAA"/>
<path d="M245.487 65.5198C243.74 65.5217 242.065 66.2165 240.83 67.4516C239.595 68.6867 238.9 70.3614 238.898 72.1081V271.64C238.9 273.387 239.595 275.061 240.83 276.296C242.065 277.531 243.74 278.226 245.487 278.228H596.55C598.296 278.226 599.971 277.531 601.206 276.296C602.441 275.061 603.136 273.386 603.138 271.64V72.1081C603.136 70.3614 602.441 68.6868 601.206 67.4517C599.971 66.2166 598.296 65.5218 596.55 65.5198H245.487Z" fill="white"/>
<path d="M246.959 304.581C246.419 304.582 245.891 304.737 245.436 305.028C244.982 305.32 244.62 305.735 244.393 306.225L226.21 345.754C226.012 346.185 225.925 346.658 225.958 347.13C225.991 347.602 226.142 348.059 226.397 348.458C226.653 348.856 227.004 349.184 227.42 349.412C227.835 349.639 228.301 349.758 228.775 349.758H611.165C611.647 349.758 612.12 349.635 612.54 349.401C612.961 349.166 613.314 348.828 613.567 348.419C613.82 348.009 613.964 347.542 613.986 347.061C614.007 346.58 613.906 346.102 613.69 345.672L593.925 306.142C593.692 305.672 593.332 305.277 592.886 305.001C592.44 304.725 591.925 304.58 591.4 304.581H246.959Z" fill="#151515"/>
<path d="M419.606 62.2256C421.946 62.2256 423.842 60.3293 423.842 57.9902C423.842 55.6511 421.946 53.7549 419.606 53.7549C417.267 53.7549 415.371 55.6511 415.371 57.9902C415.371 60.3293 417.267 62.2256 419.606 62.2256Z" fill="white"/>
<path d="M382.021 357.288C381.401 357.288 380.797 357.493 380.305 357.871C379.812 358.248 379.457 358.778 379.295 359.377L374.734 376.318C374.621 376.737 374.606 377.175 374.69 377.601C374.774 378.026 374.955 378.426 375.219 378.77C375.483 379.114 375.822 379.393 376.21 379.585C376.599 379.776 377.027 379.876 377.46 379.876H464.203C464.653 379.876 465.097 379.768 465.497 379.562C465.897 379.356 466.242 379.057 466.503 378.69C466.764 378.323 466.934 377.9 466.998 377.454C467.062 377.008 467.018 376.554 466.871 376.129L461.007 359.187C460.814 358.633 460.454 358.152 459.976 357.811C459.498 357.471 458.925 357.288 458.338 357.288H382.021Z" fill="#151515"/>
<path d="M613.491 287.169V290.934H225.439L225.731 290.464V287.169H613.491Z" fill="#151515"/>
<path d="M602.667 131.873C639.054 131.873 668.55 102.377 668.55 65.9903C668.55 29.6041 639.054 0.107178 602.667 0.107178C566.281 0.107178 536.784 29.6041 536.784 65.9903C536.784 102.377 566.281 131.873 602.667 131.873Z" fill="#00429A"/>
<path d="M629.962 94.6964H575.373C574.375 94.6954 573.418 94.2985 572.712 93.5926C572.006 92.8868 571.609 91.9298 571.608 90.9317V57.9901C571.609 56.9919 572.006 56.035 572.712 55.3292C573.418 54.6234 574.375 54.2264 575.373 54.2253H629.962C630.96 54.2264 631.917 54.6234 632.623 55.3292C633.329 56.035 633.726 56.9919 633.727 57.9901V90.9316C633.726 91.9298 633.329 92.8868 632.623 93.5926C631.917 94.2985 630.96 94.6954 629.962 94.6964ZM575.373 57.9901V90.9317H629.965L629.962 57.9901L575.373 57.9901Z" fill="white"/>
<path d="M619.609 57.9902H585.727V42.9312C585.727 32.0239 592.852 24.1074 602.668 24.1074C612.484 24.1074 619.609 32.0239 619.609 42.9312L619.609 57.9902ZM589.491 54.2254H615.845V42.9312C615.845 34.0648 610.426 27.8722 602.668 27.8722C594.91 27.8722 589.491 34.0648 589.491 42.9312L589.491 54.2254Z" fill="white"/>
<path d="M602.668 77.2846C604.747 77.2846 606.433 75.5991 606.433 73.5199C606.433 71.4407 604.747 69.7551 602.668 69.7551C600.589 69.7551 598.903 71.4407 598.903 73.5199C598.903 75.5991 600.589 77.2846 602.668 77.2846Z" fill="white"/>
<path d="M556.675 210.549H285.361C284.029 210.547 282.752 210.017 281.81 209.076C280.868 208.134 280.338 206.857 280.337 205.525V138.223C280.338 136.891 280.868 135.614 281.81 134.672C282.752 133.73 284.029 133.2 285.361 133.199H556.675C558.007 133.2 559.284 133.73 560.226 134.672C561.168 135.614 561.698 136.891 561.7 138.223V205.525C561.698 206.857 561.168 208.134 560.226 209.076C559.284 210.017 558.007 210.547 556.675 210.549ZM285.361 135.208C284.562 135.209 283.796 135.527 283.231 136.092C282.665 136.658 282.348 137.424 282.347 138.223V205.525C282.348 206.324 282.665 207.09 283.231 207.655C283.796 208.22 284.562 208.538 285.361 208.539H556.675C557.474 208.538 558.241 208.22 558.806 207.655C559.371 207.09 559.689 206.324 559.69 205.525V138.223C559.689 137.424 559.371 136.658 558.806 136.092C558.241 135.527 557.474 135.209 556.675 135.208L285.361 135.208Z" fill="#E6E6E6"/>
<path d="M224.772 177.493L174.617 204.158L173.982 181.938C190.352 179.205 205.927 174.447 220.328 166.701L225.573 153.741C226.145 152.329 227.074 151.09 228.269 150.145C229.464 149.2 230.884 148.583 232.39 148.353C233.896 148.123 235.436 148.288 236.859 148.833C238.282 149.378 239.538 150.284 240.505 151.461C241.92 153.183 242.627 155.379 242.483 157.603C242.34 159.828 241.356 161.914 239.732 163.44L224.772 177.493Z" fill="#FFB8B8"/>
<path d="M102.225 331.444C101.859 330.102 101.781 328.698 101.997 327.324C102.213 325.95 102.717 324.637 103.476 323.472L114.494 306.563C117.099 302.564 121.098 299.675 125.713 298.458C130.329 297.24 135.232 297.78 139.472 299.974C134.841 307.855 135.487 314.769 141.071 320.778C132.402 325.01 124.391 330.472 117.284 336.995C115.986 337.879 114.497 338.441 112.938 338.633C111.38 338.825 109.798 338.642 108.325 338.099C106.851 337.556 105.529 336.668 104.468 335.511C103.407 334.353 102.638 332.959 102.225 331.444Z" fill="#151515"/>
<path d="M227.057 309.336C225.389 312.115 223.036 314.418 220.222 316.026C217.408 317.633 214.229 318.49 210.988 318.514L137.795 319.069L134.621 300.658L166.999 291.135L139.7 270.184L169.539 235.266L223.735 285.78C226.903 288.732 228.961 292.682 229.565 296.97C230.17 301.258 229.284 305.623 227.057 309.336Z" fill="#151515"/>
<path d="M126.368 435.25H109.226C93.8357 329.754 78.1697 223.963 124.463 184.477L179.062 193.365L172.078 239.71L141.604 274.628L126.368 435.25Z" fill="#151515"/>
<path d="M141.435 459.148C140.094 459.514 138.689 459.591 137.315 459.376C135.941 459.16 134.628 458.656 133.463 457.897L114.851 455.395C110.852 452.79 107.963 448.791 106.745 444.176C105.527 439.561 106.067 434.657 108.26 430.418C116.142 435.048 123.056 434.402 129.064 428.817C133.31 437.39 140.304 436.867 146.985 444.089C147.869 445.386 148.431 446.876 148.623 448.434C148.815 449.993 148.632 451.574 148.089 453.048C147.547 454.521 146.659 455.843 145.502 456.904C144.345 457.965 142.95 458.735 141.435 459.148Z" fill="#151515"/>
<path d="M166.999 114.007L135.256 106.388C140.528 95.5969 140.962 83.5891 138.43 70.8358L160.016 70.2009C160.692 86.06 162.738 100.876 166.999 114.007Z" fill="#FFB8B8"/>
<path d="M175.723 212.481C152.616 228.227 136.288 213.019 123.828 189.556C125.56 175.198 122.756 158.017 117.564 139.347C115.255 131.113 116.117 122.312 119.98 114.682C123.843 107.052 130.427 101.148 138.43 98.135L165.73 109.563C188.91 128.457 193.472 148.924 184.776 170.51L175.723 212.481Z" fill="#00429A"/>
<path d="M109.226 129.878L83.8317 143.211L128.907 169.875L135.179 185.346C135.598 186.379 135.802 187.486 135.779 188.6C135.755 189.714 135.506 190.811 135.044 191.825C134.583 192.84 133.92 193.749 133.096 194.499C132.272 195.249 131.303 195.823 130.25 196.186C129.052 196.599 127.776 196.729 126.52 196.566C125.264 196.403 124.062 195.952 123.01 195.247C121.957 194.542 121.082 193.604 120.453 192.504C119.824 191.405 119.458 190.175 119.384 188.911L118.749 178.128L61.459 159.222C59.5287 158.585 57.7687 157.518 56.3123 156.1C54.8558 154.682 53.7411 152.951 53.0526 151.039C52.049 148.251 51.998 145.209 52.9074 142.389C53.8168 139.569 55.6354 137.13 58.0786 135.454L104.148 103.849L109.226 129.878Z" fill="#FFB8B8"/>
<path d="M134.621 132.418C124.03 127.777 114.399 132.819 102.242 136.862L100.338 103.214C112.409 96.7806 123.917 95.046 134.621 100.04L134.621 132.418Z" fill="#00429A"/>
<path d="M147.29 86.8681C158.483 86.8681 167.557 77.7942 167.557 66.6011C167.557 55.408 158.483 46.3342 147.29 46.3342C136.097 46.3342 127.023 55.408 127.023 66.6011C127.023 77.7942 136.097 86.8681 147.29 86.8681Z" fill="#FFB8B8"/>
<path d="M171.536 64.0438C151.47 66.0091 136.18 62.7273 126.408 53.3832V45.8582H169.833L171.536 64.0438Z" fill="#151515"/>
<rect x="368" y="156" width="170" height="15" rx="7.5" fill="#D9D9D9"/>
<path d="M393.549 164.701L394.765 163.378L393 162.942L393.333 162.09L395.064 162.691L394.959 161H396.035L395.919 162.725L397.617 162.129L397.944 162.996L396.152 163.432L397.328 164.725L396.457 165.258L395.436 163.843L394.421 165.214L393.549 164.701Z" fill="#00429A"/>
<path d="M410.075 164.701L411.29 163.378L409.526 162.942L409.859 162.09L411.59 162.691L411.485 161H412.561L412.445 162.725L414.143 162.129L414.47 162.996L412.678 163.432L413.854 164.725L412.983 165.258L411.962 163.843L410.946 165.214L410.075 164.701Z" fill="#00429A"/>
<path d="M426.601 164.701L427.816 163.378L426.052 162.942L426.385 162.09L428.116 162.691L428.01 161H429.087L428.971 162.725L430.669 162.129L430.996 162.996L429.204 163.432L430.38 164.725L429.509 165.258L428.488 163.843L427.472 165.214L426.601 164.701Z" fill="#00429A"/>
<path d="M443.127 164.701L444.342 163.378L442.577 162.942L442.91 162.09L444.642 162.691L444.536 161H445.613L445.496 162.725L447.194 162.129L447.522 162.996L445.729 163.432L446.906 164.725L446.035 165.258L445.014 163.843L443.998 165.214L443.127 164.701Z" fill="#00429A"/>
<path d="M459.653 164.701L460.868 163.378L459.103 162.942L459.436 162.09L461.168 162.691L461.062 161H462.139L462.022 162.725L463.72 162.129L464.048 162.996L462.255 163.432L463.432 164.725L462.56 165.258L461.539 163.843L460.524 165.214L459.653 164.701Z" fill="#00429A"/>
<path d="M476.178 164.701L477.394 163.378L475.629 162.942L475.962 162.09L477.693 162.691L477.588 161H478.664L478.548 162.725L480.246 162.129L480.573 162.996L478.781 163.432L479.957 164.725L479.086 165.258L478.065 163.843L477.05 165.214L476.178 164.701Z" fill="#00429A"/>
<path d="M492.704 164.701L493.919 163.378L492.155 162.942L492.488 162.09L494.219 162.691L494.114 161H495.19L495.074 162.725L496.772 162.129L497.099 162.996L495.307 163.432L496.483 164.725L495.612 165.258L494.591 163.843L493.575 165.214L492.704 164.701Z" fill="#00429A"/>
<path d="M509.23 164.701L510.445 163.378L508.681 162.942L509.014 162.09L510.745 162.691L510.639 161H511.716L511.6 162.725L513.298 162.129L513.625 162.996L511.833 163.432L513.009 164.725L512.138 165.258L511.117 163.843L510.101 165.214L509.23 164.701Z" fill="#00429A"/>
<path d="M347.697 165.956V167.848M342.966 161.726C343.412 161.698 343.962 161.698 344.669 161.698H350.724C351.431 161.698 351.981 161.698 352.427 161.726M342.966 161.726C342.41 161.759 342.015 161.836 341.678 162.008C341.144 162.28 340.709 162.714 340.437 163.248C340.128 163.855 340.128 164.65 340.128 166.239V167.564C340.128 169.154 340.128 169.948 340.437 170.556C340.709 171.09 341.144 171.524 341.678 171.796C342.285 172.105 343.08 172.105 344.669 172.105H350.724C352.314 172.105 353.108 172.105 353.716 171.796C354.25 171.524 354.684 171.09 354.956 170.556C355.265 169.948 355.265 169.154 355.265 167.564V166.239C355.265 164.65 355.265 163.855 354.956 163.248C354.684 162.714 354.25 162.28 353.716 162.008C353.378 161.836 352.984 161.759 352.427 161.726M342.966 161.726V159.806C342.966 157.194 345.084 155.076 347.697 155.076C350.309 155.076 352.427 157.194 352.427 159.806V161.726" stroke="#006BD6" stroke-width="2" stroke-linecap="round" stroke-linejoin="round"/>
<rect x="394" y="184" width="50" height="10" rx="2" fill="#006BD6"/>
</g>
<defs>
<clipPath id="clip0_61_771">
<rect width="675.22" height="469.786" fill="white" transform="translate(0.389648 0.107178)"/>
</clipPath>
</defs>
</svg>
