<svg width="116" height="20" viewBox="0 0 116 20" fill="none" xmlns="http://www.w3.org/2000/svg">
<g clip-path="url(#clip0_61_468)">
<path d="M9.07088 1.27885C9.41462 0.462389 10.5854 0.46239 10.9291 1.27885L12.9579 6.09774C13.1029 6.44194 13.4306 6.67711 13.8067 6.7069L19.0727 7.12398C19.9649 7.19465 20.3267 8.29464 19.6469 8.8699L15.6348 12.2652C15.3482 12.5077 15.223 12.8883 15.3106 13.2508L16.5363 18.3275C16.744 19.1876 15.7969 19.8675 15.033 19.4066L10.5245 16.6861C10.2025 16.4917 9.7975 16.4917 9.47548 16.6861L4.96699 19.4066C4.20311 19.8675 3.25596 19.1876 3.46363 18.3275L4.68942 13.2508C4.77698 12.8883 4.65182 12.5077 4.36526 12.2652L0.353062 8.8699C-0.326718 8.29464 0.0350679 7.19465 0.927291 7.12398L6.19336 6.7069C6.5695 6.67711 6.89716 6.44194 7.04207 6.09774L9.07088 1.27885Z" fill="#006BD6"/>
<path d="M33.0709 1.27885C33.4146 0.462389 34.5854 0.46239 34.9291 1.27885L36.9579 6.09774C37.1029 6.44194 37.4306 6.67711 37.8067 6.7069L43.0727 7.12398C43.9649 7.19465 44.3267 8.29464 43.6469 8.8699L39.6348 12.2652C39.3482 12.5077 39.223 12.8883 39.3106 13.2508L40.5363 18.3275C40.744 19.1876 39.7969 19.8675 39.033 19.4066L34.5245 16.6861C34.2025 16.4917 33.7975 16.4917 33.4755 16.6861L28.967 19.4066C28.2031 19.8675 27.256 19.1876 27.4636 18.3275L28.6894 13.2508C28.777 12.8883 28.6518 12.5077 28.3653 12.2652L24.3531 8.8699C23.6733 8.29464 24.0351 7.19465 24.9273 7.12398L30.1934 6.7069C30.5695 6.67711 30.8972 6.44194 31.0421 6.09774L33.0709 1.27885Z" fill="#006BD6"/>
<path d="M57.0709 1.27885C57.4146 0.462389 58.5854 0.46239 58.9291 1.27885L60.9579 6.09774C61.1029 6.44194 61.4306 6.67711 61.8067 6.7069L67.0727 7.12398C67.9649 7.19465 68.3267 8.29464 67.6469 8.8699L63.6348 12.2652C63.3482 12.5077 63.223 12.8883 63.3106 13.2508L64.5363 18.3275C64.744 19.1876 63.7969 19.8675 63.033 19.4066L58.5245 16.6861C58.2025 16.4917 57.7975 16.4917 57.4755 16.6861L52.967 19.4066C52.2031 19.8675 51.256 19.1876 51.4636 18.3275L52.6894 13.2508C52.777 12.8883 52.6518 12.5077 52.3653 12.2652L48.3531 8.8699C47.6733 8.29464 48.0351 7.19465 48.9273 7.12398L54.1934 6.7069C54.5695 6.67711 54.8972 6.44194 55.0421 6.09774L57.0709 1.27885Z" fill="#006BD6"/>
<path d="M81.0709 1.27885C81.4146 0.462389 82.5854 0.46239 82.9291 1.27885L84.9579 6.09774C85.1029 6.44194 85.4306 6.67711 85.8067 6.7069L91.0727 7.12398C91.9649 7.19465 92.3267 8.29464 91.6469 8.8699L87.6348 12.2652C87.3482 12.5077 87.223 12.8883 87.3106 13.2508L88.5363 18.3275C88.744 19.1876 87.7969 19.8675 87.033 19.4066L82.5245 16.6861C82.2025 16.4917 81.7975 16.4917 81.4755 16.6861L76.967 19.4066C76.2031 19.8675 75.256 19.1876 75.4636 18.3275L76.6894 13.2508C76.777 12.8883 76.6518 12.5077 76.3653 12.2652L72.3531 8.8699C71.6733 8.29464 72.0351 7.19465 72.9273 7.12398L78.1934 6.7069C78.5695 6.67711 78.8972 6.44194 79.0421 6.09774L81.0709 1.27885Z" fill="#006BD6"/>
<path d="M105.071 1.27885C105.415 0.462389 106.585 0.46239 106.929 1.27885L108.958 6.09774C109.103 6.44194 109.431 6.67711 109.807 6.7069L115.073 7.12398C115.965 7.19465 116.327 8.29464 115.647 8.8699L111.635 12.2652C111.348 12.5077 111.223 12.8883 111.311 13.2508L112.536 18.3275C112.744 19.1876 111.797 19.8675 111.033 19.4066L106.525 16.6861C106.203 16.4917 105.797 16.4917 105.475 16.6861L100.967 19.4066C100.203 19.8675 99.256 19.1876 99.4636 18.3275L100.689 13.2508C100.777 12.8883 100.652 12.5077 100.365 12.2652L96.3531 8.8699C95.6733 8.29464 96.0351 7.19465 96.9273 7.12398L102.193 6.7069C102.569 6.67711 102.897 6.44194 103.042 6.09774L105.071 1.27885Z" fill="#006BD6"/>
</g>
<defs>
<clipPath id="clip0_61_468">
<rect width="116" height="18.8889" fill="white" transform="translate(0 0.666504)"/>
</clipPath>
</defs>
</svg>
