<svg width="436" height="400" viewBox="0 0 436 400" fill="none" xmlns="http://www.w3.org/2000/svg">
<g clip-path="url(#clip0_55_349)">
<path d="M200.266 220.075C200.188 220.075 200.139 220.073 200.122 220.072L190.834 220.073V218.704H200.156C200.371 218.712 204.775 218.836 208.832 213.915C214.878 206.58 219.843 188.424 209.161 143.576C194.799 83.273 206.778 29.9983 212.595 9.89248C212.881 8.89776 212.932 7.85004 212.744 6.83211C212.556 5.81418 212.134 4.85393 211.511 4.02722C210.888 3.20051 210.081 2.52999 209.154 2.06866C208.227 1.60733 207.205 1.36782 206.17 1.36905H67.4611C66.4065 1.37046 65.3672 1.62043 64.4273 2.09867C63.4875 2.57691 62.6737 3.26994 62.052 4.12152C59.5879 7.51003 56.2064 14.0197 54.0904 25.7902L52.7427 25.5482C54.9045 13.522 58.396 6.82083 60.9443 3.31667C61.6932 2.29056 62.6737 1.45547 63.8059 0.879199C64.9382 0.302925 66.1905 0.00170501 67.4611 3.72518e-06H206.17C207.418 -0.00119661 208.649 0.287698 209.765 0.843863C210.882 1.40003 211.855 2.20823 212.605 3.2046C213.356 4.20098 213.865 5.35824 214.091 6.58495C214.318 7.81166 214.256 9.07421 213.91 10.2729C208.123 30.2744 196.207 83.2727 210.494 143.26C221.325 188.737 216.118 207.288 209.843 214.841C205.704 219.823 201.143 220.075 200.266 220.075Z" fill="#F0F0F0"/>
<path d="M175.273 245.06C175.196 245.06 175.147 245.058 175.13 245.057L165.842 245.058V243.689H175.164C175.381 243.696 179.783 243.821 183.84 238.9C189.885 231.565 194.85 213.408 184.169 168.561C169.807 108.258 181.786 54.9832 187.602 34.8773C187.889 33.8826 187.94 32.8349 187.752 31.817C187.564 30.799 187.142 29.8388 186.519 29.0121C185.896 28.1854 185.089 27.5149 184.162 27.0535C183.235 26.5922 182.213 26.3527 181.178 26.3539H42.469C41.4144 26.3553 40.3751 26.6053 39.4352 27.0835C38.4954 27.5618 37.6816 28.2548 37.0599 29.1064C34.5958 32.4949 31.2143 39.0046 29.0984 50.7751L27.7505 50.5331C29.9124 38.5068 33.4039 31.8057 35.9522 28.3015C36.7011 27.2754 37.6815 26.4403 38.8138 25.8641C39.9461 25.2878 41.1984 24.9866 42.469 24.9849H181.178C182.425 24.9837 183.656 25.2726 184.773 25.8287C185.89 26.3849 186.862 27.1931 187.613 28.1895C188.364 29.1858 188.873 30.3431 189.099 31.5698C189.326 32.7965 189.264 34.0591 188.918 35.2577C183.131 55.2592 171.215 108.258 185.502 168.244C196.333 213.722 191.126 232.273 184.851 239.826C180.712 244.808 176.151 245.06 175.273 245.06Z" fill="#AAAAAA"/>
<path d="M150.281 270.046C150.203 270.046 150.154 270.044 150.137 270.043L13.5666 270.044C12.2517 270.045 10.9565 269.725 9.7943 269.11C8.63209 268.495 7.6383 267.605 6.89991 266.517C6.16152 265.43 5.70103 264.178 5.55873 262.871C5.41643 261.564 5.59667 260.242 6.08366 259.021C11.0389 246.645 17.7109 216.951 6.7215 157.138C-6.25502 86.5086 5.36241 60.9831 10.9595 53.2869C11.7084 52.2608 12.6889 51.4257 13.8212 50.8494C14.9535 50.2731 16.2058 49.9719 17.4764 49.9702H156.185C157.433 49.969 158.664 50.2579 159.781 50.8141C160.898 51.3702 161.87 52.1784 162.621 53.1748C163.371 54.1712 163.88 55.3285 164.107 56.5552C164.333 57.7819 164.271 59.0444 163.925 60.2431C158.139 80.2446 146.222 133.243 160.509 193.23C171.34 238.708 166.133 257.258 159.858 264.811C155.719 269.793 151.158 270.046 150.281 270.046ZM17.4764 51.3393C16.4218 51.3407 15.3824 51.5906 14.4426 52.0689C13.5027 52.5471 12.6889 53.2401 12.0672 54.0917C6.57389 61.6452 -4.81235 86.7826 8.06836 156.89C18.5665 214.03 13.475 244.245 7.35497 259.53C6.9425 260.539 6.78769 261.634 6.90449 262.717C7.02128 263.8 7.40602 264.837 8.02398 265.735C8.63672 266.641 9.4625 267.383 10.4289 267.895C11.3952 268.408 12.4726 268.675 13.5666 268.675H150.171C150.387 268.685 154.79 268.807 158.847 263.885C164.893 256.551 169.858 238.394 159.177 193.547C144.814 133.243 156.793 79.9685 162.61 59.8627C162.896 58.868 162.948 57.8203 162.76 56.8023C162.571 55.7844 162.149 54.8241 161.526 53.9974C160.903 53.1707 160.096 52.5002 159.169 52.0389C158.242 51.5775 157.22 51.338 156.185 51.3393H17.4764Z" fill="#AAAAAA"/>
<path d="M132.592 111.577H23.7205C22.2677 111.577 20.8744 111 19.8471 109.973C18.8198 108.946 18.2427 107.553 18.2427 106.101C18.2427 104.648 18.8198 103.255 19.8471 102.228C20.8744 101.201 22.2677 100.625 23.7205 100.625H132.592C134.045 100.625 135.438 101.201 136.465 102.228C137.493 103.255 138.07 104.648 138.07 106.101C138.07 107.553 137.493 108.946 136.465 109.973C135.438 111 134.045 111.577 132.592 111.577Z" fill="#006BD6"/>
<path d="M132.592 134.851H23.7205C22.2677 134.851 20.8744 134.274 19.8471 133.247C18.8198 132.22 18.2427 130.827 18.2427 129.375C18.2427 127.922 18.8198 126.529 19.8471 125.502C20.8744 124.475 22.2677 123.898 23.7205 123.898H132.592C134.045 123.898 135.438 124.475 136.465 125.502C137.493 126.529 138.07 127.922 138.07 129.375C138.07 130.827 137.493 132.22 136.465 133.247C135.438 134.274 134.045 134.851 132.592 134.851Z" fill="#AAAAAA"/>
<path d="M132.592 158.125H23.7205C22.2677 158.125 20.8744 157.548 19.8471 156.521C18.8198 155.494 18.2427 154.101 18.2427 152.649C18.2427 151.196 18.8198 149.803 19.8471 148.776C20.8744 147.749 22.2677 147.172 23.7205 147.172H132.592C134.045 147.172 135.438 147.749 136.465 148.776C137.493 149.803 138.07 151.196 138.07 152.649C138.07 154.101 137.493 155.494 136.465 156.521C135.438 157.548 134.045 158.125 132.592 158.125Z" fill="#AAAAAA"/>
<path d="M140.809 181.398H31.9373C30.4845 181.398 29.0912 180.821 28.0639 179.794C27.0366 178.767 26.4595 177.374 26.4595 175.922C26.4595 174.47 27.0366 173.077 28.0639 172.05C29.0912 171.023 30.4845 170.446 31.9373 170.446H140.809C142.262 170.446 143.655 171.023 144.682 172.05C145.709 173.077 146.287 174.47 146.287 175.922C146.287 177.374 145.709 178.767 144.682 179.794C143.655 180.821 142.262 181.398 140.809 181.398Z" fill="#AAAAAA"/>
<path d="M140.809 204.672H31.9373C30.4845 204.672 29.0912 204.095 28.0639 203.068C27.0366 202.041 26.4595 200.648 26.4595 199.196C26.4595 197.744 27.0366 196.351 28.0639 195.324C29.0912 194.297 30.4845 193.72 31.9373 193.72H140.809C142.262 193.72 143.655 194.297 144.682 195.324C145.709 196.351 146.287 197.744 146.287 199.196C146.287 200.648 145.709 202.041 144.682 203.068C143.655 204.095 142.262 204.672 140.809 204.672Z" fill="#AAAAAA"/>
<path d="M75.0749 88.3034H23.7205C22.2677 88.3034 20.8744 87.7265 19.8471 86.6995C18.8198 85.6725 18.2427 84.2796 18.2427 82.8272C18.2427 81.3749 18.8198 79.982 19.8471 78.955C20.8744 77.928 22.2677 77.3511 23.7205 77.3511H75.0749C76.5277 77.3511 77.921 77.928 78.9483 78.955C79.9756 79.982 80.5527 81.3749 80.5527 82.8272C80.5527 84.2796 79.9756 85.6725 78.9483 86.6995C77.921 87.7265 76.5277 88.3034 75.0749 88.3034Z" fill="#006BD6"/>
<path d="M68.444 242.198C69.5492 237.52 74.742 235.986 78.9876 236.158C81.6699 236.339 84.3307 236.76 86.9379 237.415C89.6659 238.025 92.3674 238.748 95.0552 239.514C99.9842 240.919 104.862 242.619 109.873 243.718C114.044 244.632 118.576 245.169 122.736 243.906C126.734 242.692 130.126 239.712 131.214 235.593C132.239 231.71 130.832 227.466 127.069 225.691C123.637 224.074 119.302 224.896 117.601 228.555C115.684 232.68 117.6 237.18 120.636 240.165C122.362 241.785 124.253 243.22 126.277 244.448C128.332 245.848 130.618 246.872 133.031 247.472C136.992 248.318 141.711 247.072 143.753 243.288C144.208 242.432 144.481 241.491 144.556 240.525C144.677 239.209 142.622 239.218 142.502 240.525C142.155 244.292 137.742 246.056 134.442 245.643C132.215 245.274 130.087 244.449 128.194 243.219C126.366 242.154 124.635 240.932 123.019 239.568C120.219 237.147 117.596 233.162 119.476 229.383C121.006 226.306 124.997 226.337 127.424 228.321C130.363 230.724 129.839 235.086 127.9 237.94C125.754 241.1 121.863 242.424 118.195 242.567C114.209 242.723 110.257 241.808 106.447 240.727C101.714 239.383 97.028 237.879 92.272 236.614C89.5719 235.896 86.8511 235.248 84.1024 234.744C81.5033 234.171 78.8337 233.986 76.1804 234.195C71.8941 234.69 67.5186 237.185 66.4632 241.653C66.1596 242.938 68.1398 243.486 68.444 242.198Z" fill="#00429A"/>
<path d="M278.312 358.306C278.43 371.785 279.418 385.242 281.269 398.594C281.334 399.062 281.404 399.531 281.469 400L407.734 399.295C408.105 398.829 408.47 398.358 408.823 397.881C410.002 396.303 411.107 394.68 412.121 393.001C416.996 384.912 419.228 375.441 416.992 368.906L416.952 368.805C416.469 367.374 415.708 366.053 414.713 364.916C409.614 359.178 399.304 360.135 389.948 364.766C398.34 355.584 405.022 343.996 405.529 333.653C406.027 323.564 400.75 316.357 395.027 310.233C394.839 310.03 394.651 309.833 394.464 309.637C394.373 309.535 394.276 309.44 394.185 309.338C389.72 304.671 384.514 300.07 376.978 300.626C368.714 301.238 359.552 308.158 353.127 316.222C346.703 324.28 342.433 333.434 338.106 342.369C333.773 351.297 329.085 360.454 322.133 368.085C331.55 356.177 339.142 342.628 341.947 329.451C344.752 316.274 342.284 303.619 333.891 297.413C331.343 295.587 328.394 294.397 325.292 293.944C324.93 293.884 324.562 293.835 324.189 293.792C316.419 292.908 307.143 295.595 299.25 302.016C290.558 309.086 284.532 319.568 281.533 329.518C278.535 339.468 278.215 349.046 278.312 358.306Z" fill="#F2F2F2"/>
<path d="M360.922 399.556L363.337 399.543C364.103 399.063 364.874 398.59 365.648 398.122C366.127 397.82 366.611 397.529 367.096 397.232C375.105 392.342 383.164 387.652 391.272 383.161C399.374 378.666 407.516 374.379 415.699 370.299C415.916 370.204 416.093 370.037 416.199 369.826C416.305 369.614 416.334 369.372 416.281 369.142C416.272 369.112 416.258 369.083 416.24 369.057C416.126 368.843 415.871 368.754 415.499 368.937C414.495 369.44 413.486 369.943 412.482 370.458C404.277 374.608 396.107 378.966 387.972 383.53C379.843 388.093 371.76 392.857 363.723 397.822C363.554 397.925 363.385 398.033 363.216 398.136C362.45 398.609 361.689 399.083 360.922 399.556Z" fill="white"/>
<path d="M329.791 399.73L331.284 399.722C331.621 399.251 331.952 398.779 332.289 398.308C340.2 387.217 348.11 376.126 356.019 365.035C368.969 346.877 381.916 328.719 394.859 310.561C394.936 310.464 394.993 310.352 395.027 310.232C395.138 309.83 394.842 309.595 394.464 309.636C394.304 309.659 394.151 309.716 394.015 309.802C393.879 309.889 393.763 310.003 393.675 310.138C386.414 320.321 379.155 330.5 371.898 340.676C359.014 358.743 346.133 376.808 333.253 394.871C332.434 396.018 331.615 397.17 330.796 398.317C330.459 398.788 330.122 399.259 329.791 399.73Z" fill="white"/>
<path d="M296.53 391.062C296.606 393.578 296.772 396.053 296.99 398.506C297.032 398.975 297.074 399.444 297.117 399.913L298.683 399.904C298.635 399.435 298.587 398.966 298.545 398.497C298.214 394.954 297.979 391.371 297.947 387.691C297.906 377.487 298.9 367.306 300.916 357.303C303.059 346.533 306.135 335.97 310.11 325.734C314.283 314.937 319.313 304.492 325.154 294.499C325.264 294.336 325.313 294.14 325.292 293.944C325.227 293.498 324.633 293.366 324.189 293.792C324.101 293.876 324.025 293.971 323.964 294.076C323.241 295.318 322.532 296.564 321.836 297.813C316.211 307.862 311.396 318.344 307.437 329.158C303.667 339.428 300.799 350.007 298.866 360.775C297.055 370.765 296.272 380.913 296.53 391.062Z" fill="white"/>
<path d="M143.92 242.685C143.66 242.469 143.471 242.181 143.374 241.857C143.278 241.533 143.28 241.188 143.38 240.865C143.48 240.542 143.673 240.256 143.935 240.043C144.197 239.83 144.516 239.699 144.853 239.667C148.587 239.306 152.357 239.692 155.94 240.803L192.447 252.074C192.919 252.22 193.358 252.457 193.739 252.773C194.12 253.088 194.435 253.476 194.666 253.913C194.897 254.35 195.039 254.828 195.085 255.321C195.131 255.813 195.08 256.309 194.934 256.782C194.788 257.254 194.55 257.693 194.235 258.074C193.919 258.455 193.531 258.769 193.094 259C192.657 259.231 192.178 259.374 191.686 259.419C191.193 259.465 190.697 259.414 190.224 259.268L153.718 247.997C150.132 246.894 146.801 245.088 143.92 242.685Z" fill="#00429A"/>
<path d="M293.565 289.506C292.573 289.09 291.685 288.462 290.962 287.666C290.239 286.87 289.7 285.925 289.382 284.898C289.065 283.871 288.976 282.787 289.123 281.722C289.269 280.657 289.648 279.637 290.231 278.734L283.974 246.019L299.922 244.776L300.885 276.776C302.337 277.856 303.343 279.432 303.711 281.204C304.079 282.977 303.783 284.822 302.881 286.391C301.979 287.96 300.532 289.144 298.815 289.718C297.098 290.292 295.23 290.217 293.565 289.506Z" fill="#FFB8B8"/>
<path d="M282.99 272.622L266.746 196.994C266.079 193.888 266.674 190.644 268.399 187.976C270.125 185.308 272.839 183.435 275.947 182.768C279.054 182.101 282.299 182.695 284.967 184.42C287.636 186.145 289.51 188.859 290.177 191.965L306.421 267.592C306.592 268.391 306.439 269.225 305.995 269.911C305.552 270.597 304.854 271.079 304.056 271.251L286.649 274.987C286.254 275.072 285.845 275.079 285.447 275.006C285.049 274.933 284.669 274.782 284.329 274.563C283.99 274.343 283.696 274.059 283.467 273.726C283.237 273.393 283.075 273.018 282.99 272.622Z" fill="#006BD6"/>
<path d="M256.328 391.59H247.934L243.94 359.22L256.331 359.221L256.328 391.59Z" fill="#FFB8B8"/>
<path d="M241.938 389.192H258.127V399.383H231.744C231.744 398.044 232.008 396.719 232.52 395.483C233.032 394.246 233.783 393.123 234.73 392.177C235.676 391.231 236.8 390.48 238.037 389.968C239.273 389.456 240.599 389.192 241.938 389.192Z" fill="#151515"/>
<path d="M284.402 390.906H276.008L272.014 358.536L284.404 358.537L284.402 390.906Z" fill="#FFB8B8"/>
<path d="M270.012 388.508H286.201V398.698H259.818C259.818 397.36 260.082 396.035 260.594 394.798C261.106 393.562 261.857 392.439 262.804 391.492C263.75 390.546 264.874 389.795 266.111 389.283C267.347 388.771 268.673 388.508 270.012 388.508Z" fill="#151515"/>
<path d="M246.271 385.552C245.956 385.294 245.696 384.976 245.506 384.616C245.316 384.256 245.2 383.861 245.164 383.456L235.405 276.137C235.367 275.72 235.414 275.301 235.544 274.903C235.674 274.505 235.883 274.138 236.16 273.824C236.436 273.51 236.773 273.255 237.151 273.076C237.529 272.896 237.94 272.796 238.358 272.78L287.302 270.945C287.726 270.929 288.148 271.001 288.542 271.156C288.937 271.311 289.295 271.545 289.595 271.845C289.895 272.144 290.13 272.502 290.285 272.896C290.44 273.291 290.512 273.713 290.497 274.136L286.584 381.043C286.556 381.791 286.256 382.503 285.74 383.047C285.225 383.591 284.53 383.928 283.784 383.997L273.915 384.894C273.506 384.932 273.093 384.887 272.702 384.762C272.31 384.638 271.948 384.436 271.635 384.169C271.323 383.902 271.067 383.576 270.882 383.209C270.698 382.842 270.589 382.441 270.562 382.031L266.033 314.115C266.03 313.985 266 313.856 265.947 313.737C265.894 313.618 265.817 313.511 265.722 313.422C265.626 313.332 265.514 313.263 265.392 313.218C265.269 313.172 265.139 313.152 265.009 313.157H265.004C264.873 313.152 264.743 313.173 264.62 313.219C264.498 313.265 264.385 313.336 264.29 313.425C264.195 313.515 264.119 313.624 264.066 313.743C264.013 313.863 263.985 313.992 263.982 314.123L259.929 382.497C259.889 383.229 259.587 383.923 259.079 384.452C258.571 384.98 257.89 385.31 257.16 385.38L248.539 386.242C248.134 386.284 247.725 386.244 247.335 386.126C246.946 386.007 246.584 385.812 246.271 385.552Z" fill="#151515"/>
<path d="M265.097 166.697C274.385 166.697 281.915 159.17 281.915 149.884C281.915 140.599 274.385 133.072 265.097 133.072C255.809 133.072 248.28 140.599 248.28 149.884C248.28 159.17 255.809 166.697 265.097 166.697Z" fill="#FFB8B8"/>
<path d="M232.711 276.864C232.412 276.524 232.192 276.121 232.067 275.686C231.942 275.25 231.916 274.793 231.99 274.346C235.095 255.479 233.345 227.747 231.33 207.805C230.805 202.515 231.682 197.18 233.875 192.337C236.068 187.494 239.498 183.314 243.821 180.218L252.604 172.692C253.187 172.198 253.932 171.934 254.697 171.951L276.517 172.575C277.303 172.596 278.052 172.919 278.607 173.476L281.979 180.941L282.014 180.966C286.032 183.918 289.255 187.82 291.396 192.322C293.536 196.825 294.527 201.787 294.281 206.766L291.069 273.121C291.028 273.893 290.7 274.621 290.149 275.163C289.598 275.705 288.865 276.022 288.093 276.051L235.131 277.911C235.097 277.912 235.063 277.913 235.028 277.913C234.59 277.913 234.156 277.82 233.756 277.639C233.357 277.458 233 277.194 232.711 276.864Z" fill="#006BD6"/>
<path d="M169.185 249.174C169.159 248.099 169.369 247.032 169.799 246.047C170.23 245.062 170.872 244.183 171.679 243.473C172.487 242.763 173.44 242.238 174.472 241.936C175.504 241.634 176.59 241.562 177.653 241.725L204.949 222.627L212.611 236.666L183.8 250.641C183.408 252.408 182.382 253.97 180.915 255.03C179.448 256.091 177.642 256.577 175.841 256.397C174.04 256.216 172.367 255.381 171.14 254.05C169.914 252.718 169.218 250.984 169.185 249.174Z" fill="#FFB8B8"/>
<path d="M192.157 252.494C191.757 252.433 191.372 252.294 191.026 252.085C190.68 251.875 190.379 251.599 190.14 251.272L179.606 236.924C179.123 236.265 178.922 235.442 179.046 234.635C179.17 233.827 179.609 233.102 180.267 232.618L242.642 186.849C245.204 184.969 248.408 184.183 251.549 184.665C253.104 184.903 254.598 185.446 255.943 186.261C257.289 187.077 258.461 188.149 259.392 189.417C260.323 190.686 260.995 192.125 261.37 193.653C261.745 195.181 261.815 196.767 261.576 198.322C261.338 199.877 260.795 201.37 259.979 202.715C259.164 204.061 258.091 205.232 256.822 206.163L194.447 251.932C193.921 252.32 193.285 252.53 192.631 252.53C192.472 252.53 192.314 252.518 192.157 252.494Z" fill="#006BD6"/>
<path d="M265.958 164.851C268.189 162.118 267.944 157.953 266.154 154.913C264.364 151.873 261.326 149.78 258.199 148.144C255.072 146.509 251.751 145.223 248.809 143.275C245.866 141.328 245.994 133.085 245.211 129.645L247.08 130.267C246.361 129.349 246.131 126.635 245.413 125.716C247.524 125.925 249.148 127.929 251.259 128.137L250.041 124.868C257.282 124.422 261.783 129.452 269.024 129.005C272.611 128.784 276.507 128.644 279.456 130.698C282.019 132.483 283.316 135.572 284.168 138.576C285.995 145.027 286.279 152.252 283.123 158.167C279.966 164.082 272.69 168.068 266.333 165.932L265.958 164.851Z" fill="#151515"/>
<path d="M173.625 399.761H434.506C434.687 399.761 434.862 399.689 434.99 399.56C435.118 399.432 435.19 399.258 435.19 399.076C435.19 398.895 435.118 398.72 434.99 398.592C434.862 398.464 434.687 398.392 434.506 398.392H173.625C173.444 398.392 173.269 398.464 173.141 398.592C173.013 398.72 172.94 398.895 172.94 399.076C172.94 399.258 173.013 399.432 173.141 399.56C173.269 399.689 173.444 399.761 173.625 399.761Z" fill="#00429A"/>
</g>
<defs>
<clipPath id="clip0_55_349">
<rect width="434.382" height="400" fill="white" transform="translate(0.809082)"/>
</clipPath>
</defs>
</svg>
